<svg xmlns="http://www.w3.org/2000/svg" xmlns:xlink="http://www.w3.org/1999/xlink" width="500" zoomAndPan="magnify" viewBox="0 0 375 374.999991" height="500" preserveAspectRatio="xMidYMid meet" version="1.0"><defs><g/><clipPath id="id1"><path d="M 40.316406 117 L 332 117 L 332 221 L 40.316406 221 Z M 40.316406 117 " clip-rule="nonzero"/></clipPath><clipPath id="id2"><path d="M 171 11.351562 L 323 11.351562 L 323 143 L 171 143 Z M 171 11.351562 " clip-rule="nonzero"/></clipPath></defs><g clip-path="url(#id1)"><path fill="#b58247" d="M 330.367188 165.949219 C 324.730469 169.308594 319.148438 172.761719 313.585938 176.253906 C 307.984375 179.785156 302.460938 183.410156 297.109375 187.328125 C 292.125 190.976562 286.773438 193.945312 282.15625 198.117188 C 279.652344 200.390625 277.324219 202.902344 274.550781 204.828125 C 270.566406 207.589844 265.851562 209.035156 261.117188 210.058594 C 254.324219 211.527344 247.507812 212.875 240.675781 214.035156 C 229.207031 215.964844 217.773438 218.183594 206.207031 219.457031 C 201.160156 219.996094 195.078125 221.328125 190.710938 219.203125 C 184.378906 216.097656 179.375 210.484375 173.753906 206.296875 C 167.191406 201.417969 160.472656 196.667969 153.660156 192.078125 C 142.398438 184.453125 130.8125 177.199219 118.859375 170.675781 C 103.078125 162.070312 86.410156 154.332031 68.878906 150.128906 C 68.492188 150.03125 68.105469 149.933594 67.703125 149.839844 C 60.078125 148.042969 49.320312 145.882812 40.5625 147.5625 C 40.5625 147.5625 42.488281 145.554688 46.066406 142.582031 C 64.390625 127.320312 87.738281 117.265625 111.757812 117.226562 C 141.785156 117.152344 169.65625 133.589844 190.210938 154.546875 C 192.308594 156.6875 194.40625 158.925781 197.023438 160.429688 C 199.488281 161.859375 202.316406 162.550781 205.125 163.054688 C 214.386719 164.675781 223.890625 164.25 233.230469 165.3125 L 233.304688 165.332031 L 240.40625 166.625 L 252.101562 168.757812 C 255.136719 169.308594 257.648438 171.554688 258.371094 174.558594 C 258.375 174.578125 258.378906 174.59375 258.386719 174.613281 C 258.789062 176.445312 259.019531 178.414062 258.710938 180.210938 C 258.421875 182.003906 257.632812 183.605469 256.054688 184.917969 C 254.496094 186.25 252.167969 187.210938 249.589844 187.792969 C 247.027344 188.390625 244.199219 188.621094 241.351562 188.679688 C 238.484375 188.738281 235.671875 188.542969 232.6875 188.332031 C 231.226562 188.238281 229.800781 188.121094 228.320312 188.082031 C 226.855469 188.0625 225.394531 188.003906 223.988281 188.003906 C 221.140625 188.023438 218.425781 188.160156 215.828125 188.371094 C 213.25 188.621094 210.824219 188.929688 208.609375 189.335938 C 204.183594 190.144531 200.566406 191.207031 198.121094 192.117188 C 195.675781 193.039062 194.367188 193.753906 194.367188 193.753906 C 194.367188 193.753906 195.753906 193.175781 198.257812 192.539062 C 200.757812 191.902344 204.414062 191.246094 208.820312 190.9375 C 211.015625 190.761719 213.402344 190.726562 215.925781 190.761719 C 218.445312 190.804688 221.101562 190.976562 223.816406 191.246094 C 225.183594 191.421875 226.550781 191.59375 227.9375 191.765625 C 229.320312 191.960938 230.765625 192.230469 232.207031 192.480469 C 235.035156 192.984375 238.136719 193.484375 241.175781 193.734375 C 244.277344 193.96875 247.414062 194.023438 250.609375 193.621094 C 253.765625 193.195312 257.074219 192.34375 260.019531 190.359375 C 263.003906 188.429688 265.199219 185.128906 266.007812 181.945312 C 266.871094 178.742188 266.757812 175.769531 266.449219 173.222656 C 266.046875 170.328125 265.390625 167.859375 264.675781 165.773438 C 275.324219 159.523438 286.40625 154.003906 297.78125 149.257812 C 299.09375 148.71875 300.535156 148.179688 301.902344 148.582031 C 303.25 149.007812 304.175781 150.898438 303.171875 151.902344 C 304.675781 150.378906 315.625 147.8125 312.585938 152.886719 C 325.015625 148.410156 331.984375 153 325.886719 158.019531 C 325.886719 158.019531 334.082031 160.351562 330.367188 165.949219 " fill-opacity="1" fill-rule="nonzero"/></g><path fill="#b58247" d="M 240.40625 166.625 L 233.304688 165.332031 C 234.730469 165.484375 236.152344 165.679688 237.558594 165.929688 C 238.308594 166.0625 239.269531 166.296875 240.40625 166.625 " fill-opacity="1" fill-rule="nonzero"/><g clip-path="url(#id2)"><path fill="#584641" d="M 267.429688 28.839844 C 267.429688 28.839844 308.867188 16.472656 313.160156 59.027344 C 313.160156 59.027344 304.773438 27.433594 267.429688 28.839844 Z M 314.945312 26.46875 C 306.824219 16.421875 293.511719 11.355469 280.804688 11.660156 C 270.800781 11.902344 261.515625 16.15625 254.585938 23.355469 C 252.558594 25.464844 246.957031 30.964844 246.84375 34.339844 C 246.757812 30.964844 241.144531 25.453125 239.105469 23.34375 C 232.175781 16.140625 222.902344 11.886719 212.898438 11.648438 C 200.179688 11.339844 186.878906 16.410156 178.746094 26.453125 C 165.21875 43.179688 171.5 64.4375 181.886719 81.390625 C 184.5625 72.449219 190.183594 66.265625 198.191406 63.917969 C 200.304688 63.308594 202.535156 62.988281 204.804688 62.988281 C 210.414062 62.988281 216.089844 64.882812 220.828125 68.347656 C 225.5625 71.828125 228.820312 76.894531 230.074219 82.710938 C 231.253906 82.535156 232.441406 82.445312 233.632812 82.445312 C 238.320312 82.445312 242.855469 83.804688 246.730469 86.371094 C 253.699219 90.980469 258.207031 98.34375 258.792969 106.066406 C 259.675781 117.925781 251.609375 127.96875 236.941406 133.609375 C 240.574219 136.199219 244.097656 139.046875 246.390625 142.285156 C 246.425781 142.335938 246.746094 142.6875 246.84375 142.917969 L 246.84375 142.929688 C 246.84375 142.929688 246.84375 142.929688 246.859375 142.929688 C 246.945312 142.703125 247.277344 142.347656 247.316406 142.296875 C 251.429688 136.480469 259.5 131.957031 265.0625 127.820312 C 278.742188 117.597656 291.738281 107.460938 302.65625 94.179688 C 317.25 76.4375 332.1875 47.789062 314.945312 26.46875 " fill-opacity="1" fill-rule="nonzero"/></g><path fill="#f1ba1a" d="M 230.464844 129.113281 C 230.199219 129.191406 229.933594 129.265625 229.667969 129.34375 C 221.914062 131.554688 214.203125 131.957031 206.210938 132.238281 C 205.714844 132.253906 205.195312 132.261719 204.664062 132.261719 C 203.929688 132.261719 203.167969 132.253906 202.394531 132.253906 C 200 132.253906 197.507812 132.339844 195.492188 133.078125 C 195.480469 133.078125 195.25 133.128906 195.152344 133.179688 C 195.175781 133.066406 195.136719 132.847656 195.152344 132.808594 C 195.097656 129.472656 193.1875 125.558594 192.160156 122.472656 C 189.601562 114.867188 187.296875 107.460938 186.636719 99.4375 C 186.359375 96.121094 186.347656 92.398438 186.828125 88.730469 C 187.894531 80.476562 191.425781 72.503906 199.964844 70.011719 C 201.535156 69.554688 203.167969 69.339844 204.804688 69.339844 C 209.175781 69.339844 213.554688 70.886719 217.078125 73.464844 C 220.863281 76.246094 223.3125 80.375 224.058594 85 C 224.285156 86.355469 224.96875 89.988281 224.109375 91.324219 C 225.058594 90.039062 228.679688 89.429688 230.035156 89.164062 C 231.226562 88.921875 232.429688 88.796875 233.632812 88.796875 C 237.027344 88.796875 240.359375 89.761719 243.25 91.679688 C 248.226562 94.96875 252.011719 100.492188 252.46875 106.535156 C 253.40625 119.042969 240.703125 126.066406 230.464844 129.113281 " fill-opacity="1" fill-rule="nonzero"/><g fill="#584641" fill-opacity="1"><g transform="translate(23.722059, 293.464891)"><g><path d="M 48.46875 -18.46875 C 48.039062 -12.5 45.835938 -7.800781 41.859375 -4.375 C 37.890625 -0.945312 32.65625 0.765625 26.15625 0.765625 C 19.050781 0.765625 13.460938 -1.625 9.390625 -6.40625 C 5.316406 -11.195312 3.28125 -17.769531 3.28125 -26.125 L 3.28125 -29.515625 C 3.28125 -34.835938 4.21875 -39.53125 6.09375 -43.59375 C 7.96875 -47.65625 10.648438 -50.769531 14.140625 -52.9375 C 17.628906 -55.113281 21.6875 -56.203125 26.3125 -56.203125 C 32.707031 -56.203125 37.859375 -54.488281 41.765625 -51.0625 C 45.679688 -47.632812 47.941406 -42.820312 48.546875 -36.625 L 37.125 -36.625 C 36.84375 -40.207031 35.84375 -42.804688 34.125 -44.421875 C 32.414062 -46.035156 29.8125 -46.84375 26.3125 -46.84375 C 22.5 -46.84375 19.644531 -45.476562 17.75 -42.75 C 15.863281 -40.019531 14.894531 -35.785156 14.84375 -30.046875 L 14.84375 -25.859375 C 14.84375 -19.867188 15.75 -15.488281 17.5625 -12.71875 C 19.382812 -9.945312 22.25 -8.5625 26.15625 -8.5625 C 29.6875 -8.5625 32.320312 -9.367188 34.0625 -10.984375 C 35.800781 -12.597656 36.796875 -15.09375 37.046875 -18.46875 Z M 48.46875 -18.46875 "/></g></g><g transform="translate(74.74504, 293.464891)"><g><path d="M 50.078125 0 L 38.65625 0 L 38.65625 -23.765625 L 16.375 -23.765625 L 16.375 0 L 4.953125 0 L 4.953125 -55.4375 L 16.375 -55.4375 L 16.375 -32.96875 L 38.65625 -32.96875 L 38.65625 -55.4375 L 50.078125 -55.4375 Z M 50.078125 0 "/></g></g><g transform="translate(129.842244, 293.464891)"><g><path d="M 36.25 -11.421875 L 16.21875 -11.421875 L 12.40625 0 L 0.265625 0 L 20.90625 -55.4375 L 31.484375 -55.4375 L 52.25 0 L 40.09375 0 Z M 19.3125 -20.671875 L 33.171875 -20.671875 L 26.203125 -41.421875 Z M 19.3125 -20.671875 "/></g></g><g transform="translate(182.312144, 293.464891)"><g><path d="M 25.46875 -20.296875 L 16.375 -20.296875 L 16.375 0 L 4.953125 0 L 4.953125 -55.4375 L 25.546875 -55.4375 C 32.097656 -55.4375 37.148438 -53.976562 40.703125 -51.0625 C 44.253906 -48.144531 46.03125 -44.019531 46.03125 -38.6875 C 46.03125 -34.90625 45.210938 -31.75 43.578125 -29.21875 C 41.941406 -26.695312 39.460938 -24.6875 36.140625 -23.1875 L 48.125 -0.53125 L 48.125 0 L 35.875 0 Z M 16.375 -29.546875 L 25.59375 -29.546875 C 28.457031 -29.546875 30.675781 -30.273438 32.25 -31.734375 C 33.820312 -33.191406 34.609375 -35.207031 34.609375 -37.78125 C 34.609375 -40.394531 33.863281 -42.445312 32.375 -43.9375 C 30.894531 -45.4375 28.617188 -46.1875 25.546875 -46.1875 L 16.375 -46.1875 Z M 16.375 -29.546875 "/></g></g><g transform="translate(232.078588, 293.464891)"><g><path d="M 17.09375 0 L 5.671875 0 L 5.671875 -55.4375 L 17.09375 -55.4375 Z M 17.09375 0 "/></g></g><g transform="translate(254.810468, 293.464891)"><g><path d="M 46.6875 -46.1875 L 29.703125 -46.1875 L 29.703125 0 L 18.28125 0 L 18.28125 -46.1875 L 1.515625 -46.1875 L 1.515625 -55.4375 L 46.6875 -55.4375 Z M 46.6875 -46.1875 "/></g></g><g transform="translate(303.053838, 293.464891)"><g><path d="M 24.0625 -30.46875 L 35.609375 -55.4375 L 48.09375 -55.4375 L 29.890625 -20.109375 L 29.890625 0 L 18.28125 0 L 18.28125 -20.109375 L 0.078125 -55.4375 L 12.609375 -55.4375 Z M 24.0625 -30.46875 "/></g></g></g><g fill="#584641" fill-opacity="1"><g transform="translate(9.603228, 351.148291)"><g><path d="M 15.71875 -14.265625 L 24.96875 -14.265625 L 24.96875 -1.03125 C 23.519531 -0.5625 22.050781 -0.210938 20.5625 0.015625 C 19.082031 0.253906 17.359375 0.375 15.390625 0.375 C 11.273438 0.375 8.066406 -0.847656 5.765625 -3.296875 C 3.472656 -5.753906 2.328125 -9.191406 2.328125 -13.609375 C 2.328125 -16.441406 2.894531 -18.921875 4.03125 -21.046875 C 5.164062 -23.171875 6.800781 -24.796875 8.9375 -25.921875 C 11.070312 -27.046875 13.570312 -27.609375 16.4375 -27.609375 C 19.34375 -27.609375 22.046875 -27.070312 24.546875 -26 L 23.328125 -23.21875 C 20.867188 -24.257812 18.503906 -24.78125 16.234375 -24.78125 C 12.921875 -24.78125 10.332031 -23.789062 8.46875 -21.8125 C 6.601562 -19.84375 5.671875 -17.109375 5.671875 -13.609375 C 5.671875 -9.929688 6.566406 -7.144531 8.359375 -5.25 C 10.160156 -3.351562 12.796875 -2.40625 16.265625 -2.40625 C 18.148438 -2.40625 19.992188 -2.617188 21.796875 -3.046875 L 21.796875 -11.4375 L 15.71875 -11.4375 Z M 15.71875 -14.265625 "/></g></g></g><g fill="#584641" fill-opacity="1"><g transform="translate(37.357029, 351.148291)"><g><path d="M 6.359375 0 L 3.28125 0 L 3.28125 -20.40625 L 6.359375 -20.40625 Z M 3.015625 -25.9375 C 3.015625 -26.644531 3.1875 -27.160156 3.53125 -27.484375 C 3.882812 -27.816406 4.320312 -27.984375 4.84375 -27.984375 C 5.332031 -27.984375 5.757812 -27.8125 6.125 -27.46875 C 6.488281 -27.132812 6.671875 -26.625 6.671875 -25.9375 C 6.671875 -25.238281 6.488281 -24.71875 6.125 -24.375 C 5.757812 -24.03125 5.332031 -23.859375 4.84375 -23.859375 C 4.320312 -23.859375 3.882812 -24.03125 3.53125 -24.375 C 3.1875 -24.71875 3.015625 -25.238281 3.015625 -25.9375 Z M 3.015625 -25.9375 "/></g></g></g><g fill="#584641" fill-opacity="1"><g transform="translate(46.999191, 351.148291)"><g><path d="M 7.75 0 L 0 -20.40625 L 3.3125 -20.40625 L 7.703125 -8.296875 C 8.703125 -5.472656 9.285156 -3.640625 9.453125 -2.796875 L 9.609375 -2.796875 C 9.742188 -3.453125 10.171875 -4.8125 10.890625 -6.875 C 11.617188 -8.945312 13.25 -13.457031 15.78125 -20.40625 L 19.09375 -20.40625 L 11.359375 0 Z M 7.75 0 "/></g></g></g><g fill="#584641" fill-opacity="1"><g transform="translate(66.097373, 351.148291)"><g><path d="M 11.890625 0.375 C 8.878906 0.375 6.5 -0.539062 4.75 -2.375 C 3.007812 -4.21875 2.140625 -6.769531 2.140625 -10.03125 C 2.140625 -13.320312 2.945312 -15.9375 4.5625 -17.875 C 6.1875 -19.8125 8.363281 -20.78125 11.09375 -20.78125 C 13.65625 -20.78125 15.675781 -19.9375 17.15625 -18.25 C 18.644531 -16.570312 19.390625 -14.351562 19.390625 -11.59375 L 19.390625 -9.640625 L 5.34375 -9.640625 C 5.40625 -7.242188 6.007812 -5.425781 7.15625 -4.1875 C 8.300781 -2.945312 9.914062 -2.328125 12 -2.328125 C 14.195312 -2.328125 16.367188 -2.785156 18.515625 -3.703125 L 18.515625 -0.953125 C 17.429688 -0.472656 16.398438 -0.132812 15.421875 0.0625 C 14.453125 0.269531 13.273438 0.375 11.890625 0.375 Z M 11.0625 -18.1875 C 9.414062 -18.1875 8.101562 -17.648438 7.125 -16.578125 C 6.15625 -15.515625 5.585938 -14.039062 5.421875 -12.15625 L 16.078125 -12.15625 C 16.078125 -14.101562 15.644531 -15.59375 14.78125 -16.625 C 13.914062 -17.664062 12.675781 -18.1875 11.0625 -18.1875 Z M 11.0625 -18.1875 "/></g></g></g><g fill="#584641" fill-opacity="1"><g transform="translate(87.485113, 351.148291)"><g/></g></g><g fill="#584641" fill-opacity="1"><g transform="translate(97.387874, 351.148291)"><g><path d="M 12.125 0 L 8.953125 0 L 8.953125 -24.40625 L 0.328125 -24.40625 L 0.328125 -27.21875 L 20.734375 -27.21875 L 20.734375 -24.40625 L 12.125 -24.40625 Z M 12.125 0 "/></g></g></g><g fill="#584641" fill-opacity="1"><g transform="translate(118.477786, 351.148291)"><g><path d="M 20.890625 -10.21875 C 20.890625 -6.894531 20.050781 -4.296875 18.375 -2.421875 C 16.695312 -0.554688 14.382812 0.375 11.4375 0.375 C 9.601562 0.375 7.976562 -0.0507812 6.5625 -0.90625 C 5.15625 -1.769531 4.066406 -3 3.296875 -4.59375 C 2.523438 -6.195312 2.140625 -8.070312 2.140625 -10.21875 C 2.140625 -13.539062 2.96875 -16.128906 4.625 -17.984375 C 6.289062 -19.847656 8.601562 -20.78125 11.5625 -20.78125 C 14.414062 -20.78125 16.679688 -19.828125 18.359375 -17.921875 C 20.046875 -16.023438 20.890625 -13.457031 20.890625 -10.21875 Z M 5.34375 -10.21875 C 5.34375 -7.613281 5.863281 -5.628906 6.90625 -4.265625 C 7.945312 -2.898438 9.476562 -2.21875 11.5 -2.21875 C 13.519531 -2.21875 15.054688 -2.894531 16.109375 -4.25 C 17.160156 -5.613281 17.6875 -7.601562 17.6875 -10.21875 C 17.6875 -12.8125 17.160156 -14.78125 16.109375 -16.125 C 15.054688 -17.476562 13.507812 -18.15625 11.46875 -18.15625 C 9.445312 -18.15625 7.921875 -17.488281 6.890625 -16.15625 C 5.859375 -14.832031 5.34375 -12.851562 5.34375 -10.21875 Z M 5.34375 -10.21875 "/></g></g></g><g fill="#584641" fill-opacity="1"><g transform="translate(141.503578, 351.148291)"><g/></g></g><g fill="#584641" fill-opacity="1"><g transform="translate(151.406338, 351.148291)"><g><path d="M 3.734375 0 L 3.734375 -27.21875 L 6.90625 -27.21875 L 6.90625 -2.859375 L 18.90625 -2.859375 L 18.90625 0 Z M 3.734375 0 "/></g></g></g><g fill="#584641" fill-opacity="1"><g transform="translate(171.193256, 351.148291)"><g><path d="M 6.359375 0 L 3.28125 0 L 3.28125 -20.40625 L 6.359375 -20.40625 Z M 3.015625 -25.9375 C 3.015625 -26.644531 3.1875 -27.160156 3.53125 -27.484375 C 3.882812 -27.816406 4.320312 -27.984375 4.84375 -27.984375 C 5.332031 -27.984375 5.757812 -27.8125 6.125 -27.46875 C 6.488281 -27.132812 6.671875 -26.625 6.671875 -25.9375 C 6.671875 -25.238281 6.488281 -24.71875 6.125 -24.375 C 5.757812 -24.03125 5.332031 -23.859375 4.84375 -23.859375 C 4.320312 -23.859375 3.882812 -24.03125 3.53125 -24.375 C 3.1875 -24.71875 3.015625 -25.238281 3.015625 -25.9375 Z M 3.015625 -25.9375 "/></g></g></g><g fill="#584641" fill-opacity="1"><g transform="translate(180.835418, 351.148291)"><g><path d="M 7.75 0 L 0 -20.40625 L 3.3125 -20.40625 L 7.703125 -8.296875 C 8.703125 -5.472656 9.285156 -3.640625 9.453125 -2.796875 L 9.609375 -2.796875 C 9.742188 -3.453125 10.171875 -4.8125 10.890625 -6.875 C 11.617188 -8.945312 13.25 -13.457031 15.78125 -20.40625 L 19.09375 -20.40625 L 11.359375 0 Z M 7.75 0 "/></g></g></g><g fill="#584641" fill-opacity="1"><g transform="translate(199.9336, 351.148291)"><g><path d="M 11.890625 0.375 C 8.878906 0.375 6.5 -0.539062 4.75 -2.375 C 3.007812 -4.21875 2.140625 -6.769531 2.140625 -10.03125 C 2.140625 -13.320312 2.945312 -15.9375 4.5625 -17.875 C 6.1875 -19.8125 8.363281 -20.78125 11.09375 -20.78125 C 13.65625 -20.78125 15.675781 -19.9375 17.15625 -18.25 C 18.644531 -16.570312 19.390625 -14.351562 19.390625 -11.59375 L 19.390625 -9.640625 L 5.34375 -9.640625 C 5.40625 -7.242188 6.007812 -5.425781 7.15625 -4.1875 C 8.300781 -2.945312 9.914062 -2.328125 12 -2.328125 C 14.195312 -2.328125 16.367188 -2.785156 18.515625 -3.703125 L 18.515625 -0.953125 C 17.429688 -0.472656 16.398438 -0.132812 15.421875 0.0625 C 14.453125 0.269531 13.273438 0.375 11.890625 0.375 Z M 11.0625 -18.1875 C 9.414062 -18.1875 8.101562 -17.648438 7.125 -16.578125 C 6.15625 -15.515625 5.585938 -14.039062 5.421875 -12.15625 L 16.078125 -12.15625 C 16.078125 -14.101562 15.644531 -15.59375 14.78125 -16.625 C 13.914062 -17.664062 12.675781 -18.1875 11.0625 -18.1875 Z M 11.0625 -18.1875 "/></g></g></g><g fill="#584641" fill-opacity="1"><g transform="translate(221.32134, 351.148291)"><g/></g></g><g fill="#584641" fill-opacity="1"><g transform="translate(231.224101, 351.148291)"><g><path d="M 3.734375 0 L 3.734375 -27.21875 L 6.90625 -27.21875 L 6.90625 -2.859375 L 18.90625 -2.859375 L 18.90625 0 Z M 3.734375 0 "/></g></g></g><g fill="#584641" fill-opacity="1"><g transform="translate(251.011018, 351.148291)"><g><path d="M 20.890625 -10.21875 C 20.890625 -6.894531 20.050781 -4.296875 18.375 -2.421875 C 16.695312 -0.554688 14.382812 0.375 11.4375 0.375 C 9.601562 0.375 7.976562 -0.0507812 6.5625 -0.90625 C 5.15625 -1.769531 4.066406 -3 3.296875 -4.59375 C 2.523438 -6.195312 2.140625 -8.070312 2.140625 -10.21875 C 2.140625 -13.539062 2.96875 -16.128906 4.625 -17.984375 C 6.289062 -19.847656 8.601562 -20.78125 11.5625 -20.78125 C 14.414062 -20.78125 16.679688 -19.828125 18.359375 -17.921875 C 20.046875 -16.023438 20.890625 -13.457031 20.890625 -10.21875 Z M 5.34375 -10.21875 C 5.34375 -7.613281 5.863281 -5.628906 6.90625 -4.265625 C 7.945312 -2.898438 9.476562 -2.21875 11.5 -2.21875 C 13.519531 -2.21875 15.054688 -2.894531 16.109375 -4.25 C 17.160156 -5.613281 17.6875 -7.601562 17.6875 -10.21875 C 17.6875 -12.8125 17.160156 -14.78125 16.109375 -16.125 C 15.054688 -17.476562 13.507812 -18.15625 11.46875 -18.15625 C 9.445312 -18.15625 7.921875 -17.488281 6.890625 -16.15625 C 5.859375 -14.832031 5.34375 -12.851562 5.34375 -10.21875 Z M 5.34375 -10.21875 "/></g></g></g><g fill="#584641" fill-opacity="1"><g transform="translate(274.036809, 351.148291)"><g><path d="M 17.234375 0 L 17.234375 -13.203125 C 17.234375 -14.859375 16.851562 -16.097656 16.09375 -16.921875 C 15.34375 -17.742188 14.160156 -18.15625 12.546875 -18.15625 C 10.410156 -18.15625 8.84375 -17.578125 7.84375 -16.421875 C 6.851562 -15.265625 6.359375 -13.359375 6.359375 -10.703125 L 6.359375 0 L 3.28125 0 L 3.28125 -20.40625 L 5.796875 -20.40625 L 6.296875 -17.609375 L 6.4375 -17.609375 C 7.070312 -18.617188 7.957031 -19.398438 9.09375 -19.953125 C 10.238281 -20.503906 11.515625 -20.78125 12.921875 -20.78125 C 15.378906 -20.78125 17.226562 -20.1875 18.46875 -19 C 19.707031 -17.8125 20.328125 -15.914062 20.328125 -13.3125 L 20.328125 0 Z M 17.234375 0 "/></g></g></g><g fill="#584641" fill-opacity="1"><g transform="translate(297.434884, 351.148291)"><g><path d="M 19.96875 -20.40625 L 19.96875 -18.453125 L 16.203125 -18 C 16.546875 -17.5625 16.851562 -16.992188 17.125 -16.296875 C 17.394531 -15.597656 17.53125 -14.804688 17.53125 -13.921875 C 17.53125 -11.921875 16.847656 -10.328125 15.484375 -9.140625 C 14.117188 -7.953125 12.242188 -7.359375 9.859375 -7.359375 C 9.253906 -7.359375 8.6875 -7.40625 8.15625 -7.5 C 6.84375 -6.800781 6.1875 -5.925781 6.1875 -4.875 C 6.1875 -4.320312 6.414062 -3.910156 6.875 -3.640625 C 7.332031 -3.367188 8.117188 -3.234375 9.234375 -3.234375 L 12.84375 -3.234375 C 15.050781 -3.234375 16.75 -2.769531 17.9375 -1.84375 C 19.125 -0.914062 19.71875 0.4375 19.71875 2.21875 C 19.71875 4.476562 18.8125 6.195312 17 7.375 C 15.1875 8.5625 12.539062 9.15625 9.0625 9.15625 C 6.394531 9.15625 4.335938 8.660156 2.890625 7.671875 C 1.441406 6.679688 0.71875 5.28125 0.71875 3.46875 C 0.71875 2.21875 1.113281 1.140625 1.90625 0.234375 C 2.707031 -0.660156 3.828125 -1.269531 5.265625 -1.59375 C 4.742188 -1.832031 4.304688 -2.195312 3.953125 -2.6875 C 3.597656 -3.1875 3.421875 -3.769531 3.421875 -4.4375 C 3.421875 -5.175781 3.617188 -5.820312 4.015625 -6.375 C 4.410156 -6.9375 5.039062 -7.476562 5.90625 -8 C 4.84375 -8.4375 3.976562 -9.175781 3.3125 -10.21875 C 2.65625 -11.257812 2.328125 -12.453125 2.328125 -13.796875 C 2.328125 -16.023438 2.992188 -17.742188 4.328125 -18.953125 C 5.671875 -20.171875 7.570312 -20.78125 10.03125 -20.78125 C 11.101562 -20.78125 12.066406 -20.65625 12.921875 -20.40625 Z M 3.703125 3.421875 C 3.703125 4.523438 4.164062 5.363281 5.09375 5.9375 C 6.03125 6.507812 7.367188 6.796875 9.109375 6.796875 C 11.703125 6.796875 13.617188 6.40625 14.859375 5.625 C 16.109375 4.851562 16.734375 3.800781 16.734375 2.46875 C 16.734375 1.363281 16.390625 0.597656 15.703125 0.171875 C 15.023438 -0.253906 13.742188 -0.46875 11.859375 -0.46875 L 8.15625 -0.46875 C 6.75 -0.46875 5.65625 -0.132812 4.875 0.53125 C 4.09375 1.207031 3.703125 2.171875 3.703125 3.421875 Z M 5.375 -13.875 C 5.375 -12.445312 5.773438 -11.363281 6.578125 -10.625 C 7.390625 -9.894531 8.515625 -9.53125 9.953125 -9.53125 C 12.972656 -9.53125 14.484375 -10.992188 14.484375 -13.921875 C 14.484375 -16.984375 12.957031 -18.515625 9.90625 -18.515625 C 8.445312 -18.515625 7.328125 -18.125 6.546875 -17.34375 C 5.765625 -16.5625 5.375 -15.40625 5.375 -13.875 Z M 5.375 -13.875 "/></g></g></g><g fill="#584641" fill-opacity="1"><g transform="translate(318.32003, 351.148291)"><g><path d="M 11.890625 0.375 C 8.878906 0.375 6.5 -0.539062 4.75 -2.375 C 3.007812 -4.21875 2.140625 -6.769531 2.140625 -10.03125 C 2.140625 -13.320312 2.945312 -15.9375 4.5625 -17.875 C 6.1875 -19.8125 8.363281 -20.78125 11.09375 -20.78125 C 13.65625 -20.78125 15.675781 -19.9375 17.15625 -18.25 C 18.644531 -16.570312 19.390625 -14.351562 19.390625 -11.59375 L 19.390625 -9.640625 L 5.34375 -9.640625 C 5.40625 -7.242188 6.007812 -5.425781 7.15625 -4.1875 C 8.300781 -2.945312 9.914062 -2.328125 12 -2.328125 C 14.195312 -2.328125 16.367188 -2.785156 18.515625 -3.703125 L 18.515625 -0.953125 C 17.429688 -0.472656 16.398438 -0.132812 15.421875 0.0625 C 14.453125 0.269531 13.273438 0.375 11.890625 0.375 Z M 11.0625 -18.1875 C 9.414062 -18.1875 8.101562 -17.648438 7.125 -16.578125 C 6.15625 -15.515625 5.585938 -14.039062 5.421875 -12.15625 L 16.078125 -12.15625 C 16.078125 -14.101562 15.644531 -15.59375 14.78125 -16.625 C 13.914062 -17.664062 12.675781 -18.1875 11.0625 -18.1875 Z M 11.0625 -18.1875 "/></g></g></g><g fill="#584641" fill-opacity="1"><g transform="translate(339.70777, 351.148291)"><g><path d="M 12.578125 -20.78125 C 13.484375 -20.78125 14.296875 -20.703125 15.015625 -20.546875 L 14.59375 -17.6875 C 13.75 -17.875 13.003906 -17.96875 12.359375 -17.96875 C 10.710938 -17.96875 9.300781 -17.296875 8.125 -15.953125 C 6.945312 -14.609375 6.359375 -12.941406 6.359375 -10.953125 L 6.359375 0 L 3.28125 0 L 3.28125 -20.40625 L 5.828125 -20.40625 L 6.1875 -16.625 L 6.328125 -16.625 C 7.085938 -17.945312 8 -18.96875 9.0625 -19.6875 C 10.132812 -20.414062 11.304688 -20.78125 12.578125 -20.78125 Z M 12.578125 -20.78125 "/></g></g></g><g fill="#584641" fill-opacity="1"><g transform="translate(355.269252, 351.148291)"><g><path d="M 2.828125 -1.96875 C 2.828125 -2.800781 3.015625 -3.429688 3.390625 -3.859375 C 3.773438 -4.285156 4.320312 -4.5 5.03125 -4.5 C 5.75 -4.5 6.304688 -4.285156 6.703125 -3.859375 C 7.109375 -3.429688 7.3125 -2.800781 7.3125 -1.96875 C 7.3125 -1.164062 7.109375 -0.546875 6.703125 -0.109375 C 6.296875 0.328125 5.738281 0.546875 5.03125 0.546875 C 4.394531 0.546875 3.867188 0.347656 3.453125 -0.046875 C 3.035156 -0.441406 2.828125 -1.082031 2.828125 -1.96875 Z M 2.828125 -1.96875 "/></g></g></g></svg>