<svg xmlns="http://www.w3.org/2000/svg" xmlns:xlink="http://www.w3.org/1999/xlink" width="500" zoomAndPan="magnify" viewBox="0 0 375 374.999991" height="500" preserveAspectRatio="xMidYMid meet" version="1.0"><path fill="#b22334" d="M 456.679688 28.847656 C 446.679688 11.667969 428.28125 0 406.96875 0 L 204.953125 0 L 204.953125 28.847656 Z M -54.777344 288.460938 L 464.6875 288.460938 L 464.6875 317.308594 L -54.777344 317.308594 Z M 204.953125 173.078125 L 464.6875 173.078125 L 464.6875 201.921875 L 204.953125 201.921875 Z M 204.953125 115.382812 L 464.6875 115.382812 L 464.6875 144.230469 L 204.953125 144.230469 Z M -54.777344 230.769531 L 464.6875 230.769531 L 464.6875 259.617188 L -54.777344 259.617188 Z M 2.941406 375 L 406.96875 375 C 428.28125 375 446.679688 363.332031 456.679688 346.152344 L -46.769531 346.152344 C -36.769531 363.332031 -18.371094 375 2.941406 375 Z M 204.953125 57.691406 L 464.6875 57.691406 L 464.6875 86.539062 L 204.953125 86.539062 Z M 204.953125 57.691406 " fill-opacity="1" fill-rule="nonzero"/><path fill="#eeeeee" d="M -53.796875 327.101562 C -53.550781 328.441406 -53.277344 329.785156 -52.945312 331.097656 C -52.570312 332.554688 -52.109375 333.953125 -51.617188 335.367188 C -50.335938 339.101562 -48.777344 342.707031 -46.8125 346.082031 L -46.769531 346.152344 L 456.679688 346.152344 L 456.707031 346.097656 C 458.65625 342.734375 460.214844 339.128906 461.496094 335.410156 C 461.988281 333.980469 462.464844 332.554688 462.839844 331.066406 C 463.171875 329.769531 463.445312 328.441406 463.691406 327.101562 C 464.28125 323.929688 464.6875 320.667969 464.6875 317.308594 L -54.777344 317.308594 C -54.777344 320.667969 -54.375 323.914062 -53.796875 327.101562 Z M -54.777344 259.617188 L 464.6875 259.617188 L 464.6875 288.460938 L -54.777344 288.460938 Z M -54.777344 201.921875 L -54.777344 230.769531 L 464.6875 230.769531 L 464.6875 201.921875 Z M 204.953125 144.230469 L 464.6875 144.230469 L 464.6875 173.078125 L 204.953125 173.078125 Z M 204.953125 86.539062 L 464.6875 86.539062 L 464.6875 115.382812 L 204.953125 115.382812 Z M -54.777344 57.691406 C -54.777344 54.332031 -54.347656 51.101562 -53.796875 47.898438 C -54.375 51.085938 -54.777344 54.332031 -54.777344 57.691406 Z M -46.769531 28.847656 L -46.8125 28.917969 Z M -52.933594 43.902344 C -52.570312 42.433594 -52.066406 41.035156 -51.605469 39.621094 C -52.09375 41.035156 -52.554688 42.445312 -52.933594 43.902344 Z M 204.953125 57.691406 L 464.6875 57.691406 C 464.6875 54.332031 464.28125 51.070312 463.691406 47.882812 C 463.445312 46.558594 463.1875 45.230469 462.839844 43.933594 C 462.449219 42.445312 461.988281 41.003906 461.484375 39.578125 C 460.199219 35.855469 458.640625 32.265625 456.691406 28.902344 C 456.707031 28.890625 456.691406 28.859375 456.679688 28.847656 L 204.953125 28.847656 Z M 204.953125 57.691406 " fill-opacity="1" fill-rule="nonzero"/><path fill="#3c3b6e" d="M 204.953125 0 L 2.941406 0 C -28.933594 0 -54.777344 25.832031 -54.777344 57.691406 L -54.777344 201.921875 L 204.953125 201.921875 Z M 204.953125 0 " fill-opacity="1" fill-rule="nonzero"/><path fill="#ffffff" d="M -25.90625 39.316406 L -16.988281 45.792969 L -20.394531 56.25 L -11.488281 49.789062 L -2.574219 56.25 L -5.976562 45.792969 L 2.941406 39.316406 L -8.085938 39.316406 L -11.488281 28.847656 L -14.882812 39.316406 Z M 2.953125 68.164062 L 11.871094 74.640625 L 8.464844 85.097656 L 17.371094 78.632812 L 26.285156 85.097656 L 22.882812 74.640625 L 31.796875 68.164062 L 20.773438 68.164062 L 17.371094 57.691406 L 13.976562 68.164062 Z M 60.671875 68.164062 L 69.589844 74.640625 L 66.183594 85.097656 L 75.085938 78.632812 L 84.003906 85.097656 L 80.601562 74.640625 L 89.515625 68.164062 L 78.492188 68.164062 L 75.085938 57.691406 L 71.695312 68.164062 Z M 118.390625 68.164062 L 127.308594 74.640625 L 123.902344 85.097656 L 132.804688 78.632812 L 141.722656 85.097656 L 138.316406 74.640625 L 147.234375 68.164062 L 136.210938 68.164062 L 132.804688 57.691406 L 129.414062 68.164062 Z M 2.953125 125.855469 L 11.871094 132.332031 L 8.464844 142.789062 L 17.371094 136.328125 L 26.285156 142.789062 L 22.882812 132.332031 L 31.796875 125.855469 L 20.773438 125.855469 L 17.371094 115.382812 L 13.976562 125.855469 Z M 60.671875 125.855469 L 69.589844 132.332031 L 66.183594 142.789062 L 75.085938 136.328125 L 84.003906 142.789062 L 80.601562 132.332031 L 89.515625 125.855469 L 78.492188 125.855469 L 75.085938 115.382812 L 71.695312 125.855469 Z M 118.390625 125.855469 L 127.308594 132.332031 L 123.902344 142.789062 L 132.804688 136.328125 L 141.722656 142.789062 L 138.316406 132.332031 L 147.234375 125.855469 L 136.210938 125.855469 L 132.804688 115.382812 L 129.414062 125.855469 Z M 31.8125 39.316406 L 40.730469 45.792969 L 37.324219 56.25 L 46.226562 49.789062 L 55.144531 56.25 L 51.742188 45.792969 L 60.65625 39.316406 L 49.632812 39.316406 L 46.226562 28.847656 L 42.835938 39.316406 Z M 89.53125 39.316406 L 98.449219 45.792969 L 95.042969 56.25 L 103.945312 49.789062 L 112.863281 56.25 L 109.457031 45.792969 L 118.375 39.316406 L 107.351562 39.316406 L 103.945312 28.847656 L 100.554688 39.316406 Z M 147.25 39.316406 L 156.167969 45.792969 L 152.761719 56.25 L 161.664062 49.789062 L 170.582031 56.25 L 167.175781 45.792969 L 176.09375 39.316406 L 165.070312 39.316406 L 161.664062 28.847656 L 158.273438 39.316406 Z M -25.90625 97.007812 L -16.988281 103.484375 L -20.394531 113.941406 L -11.488281 107.480469 L -2.574219 113.941406 L -5.976562 103.484375 L 2.941406 97.007812 L -8.085938 97.007812 L -11.488281 86.539062 L -14.882812 97.007812 Z M 37.324219 113.941406 L 46.226562 107.480469 L 55.144531 113.941406 L 51.742188 103.484375 L 60.65625 97.007812 L 49.632812 97.007812 L 46.226562 86.539062 L 42.835938 97.007812 L 31.8125 97.007812 L 40.730469 103.484375 Z M 89.53125 97.007812 L 98.449219 103.484375 L 95.042969 113.941406 L 103.945312 107.480469 L 112.863281 113.941406 L 109.457031 103.484375 L 118.375 97.007812 L 107.351562 97.007812 L 103.945312 86.539062 L 100.554688 97.007812 Z M 147.25 97.007812 L 156.167969 103.484375 L 152.761719 113.941406 L 161.664062 107.480469 L 170.582031 113.941406 L 167.175781 103.484375 L 176.09375 97.007812 L 165.070312 97.007812 L 161.664062 86.539062 L 158.273438 97.007812 Z M -25.90625 154.703125 L -16.988281 161.179688 L -20.394531 171.632812 L -11.488281 165.171875 L -2.574219 171.632812 L -5.976562 161.179688 L 2.941406 154.703125 L -8.085938 154.703125 L -11.488281 144.230469 L -14.882812 154.703125 Z M 37.324219 171.632812 L 46.226562 165.171875 L 55.144531 171.632812 L 51.742188 161.179688 L 60.65625 154.703125 L 49.632812 154.703125 L 46.226562 144.230469 L 42.835938 154.703125 L 31.8125 154.703125 L 40.730469 161.179688 Z M 89.53125 154.703125 L 98.449219 161.179688 L 95.042969 171.632812 L 103.945312 165.171875 L 112.863281 171.632812 L 109.457031 161.179688 L 118.375 154.703125 L 107.351562 154.703125 L 103.945312 144.230469 L 100.554688 154.703125 Z M 147.25 154.703125 L 156.167969 161.179688 L 152.761719 171.632812 L 161.664062 165.171875 L 170.582031 171.632812 L 167.175781 161.179688 L 176.09375 154.703125 L 165.070312 154.703125 L 161.664062 144.230469 L 158.273438 154.703125 Z M 147.25 154.703125 " fill-opacity="1" fill-rule="nonzero"/></svg>