<svg xmlns="http://www.w3.org/2000/svg" xmlns:xlink="http://www.w3.org/1999/xlink" width="500" zoomAndPan="magnify" viewBox="0 0 375 374.999991" height="500" preserveAspectRatio="xMidYMid meet" version="1.0"><path fill="#eeeeee" d="M 449.835938 318.488281 C 449.835938 350.667969 423.730469 376.757812 391.535156 376.757812 L -16.574219 376.757812 C -48.773438 376.757812 -74.878906 350.667969 -74.878906 318.488281 L -74.878906 56.277344 C -74.878906 24.097656 -48.773438 -1.992188 -16.574219 -1.992188 L 391.535156 -1.992188 C 423.730469 -1.992188 449.835938 24.097656 449.835938 56.277344 Z M 449.835938 318.488281 " fill-opacity="1" fill-rule="nonzero"/><path fill="#ed1b2f" d="M 289.507812 187.382812 C 289.507812 189.050781 289.464844 190.71875 289.382812 192.386719 C 289.300781 194.054688 289.179688 195.714844 289.015625 197.378906 C 288.851562 199.039062 288.648438 200.695312 288.402344 202.34375 C 288.15625 203.996094 287.871094 205.640625 287.546875 207.277344 C 287.21875 208.914062 286.855469 210.539062 286.449219 212.160156 C 286.042969 213.777344 285.597656 215.386719 285.113281 216.984375 C 284.628906 218.582031 284.105469 220.164062 283.542969 221.734375 C 282.980469 223.308594 282.378906 224.863281 281.738281 226.40625 C 281.101562 227.945312 280.425781 229.472656 279.710938 230.980469 C 278.996094 232.488281 278.246094 233.980469 277.460938 235.453125 C 276.671875 236.921875 275.847656 238.375 274.992188 239.804688 C 274.132812 241.238281 273.238281 242.648438 272.3125 244.035156 C 271.382812 245.421875 270.421875 246.785156 269.429688 248.125 C 268.433594 249.46875 267.40625 250.78125 266.347656 252.074219 C 265.289062 253.363281 264.199219 254.625 263.078125 255.863281 C 261.953125 257.097656 260.804688 258.308594 259.625 259.488281 C 258.441406 260.667969 257.234375 261.816406 255.996094 262.9375 C 254.757812 264.058594 253.496094 265.148438 252.203125 266.207031 C 250.914062 267.265625 249.597656 268.292969 248.257812 269.285156 C 246.914062 270.28125 245.550781 271.242188 244.164062 272.167969 C 242.773438 273.09375 241.363281 273.988281 239.929688 274.847656 C 238.5 275.703125 237.046875 276.527344 235.574219 277.3125 C 234.101562 278.101562 232.609375 278.851562 231.101562 279.5625 C 229.59375 280.277344 228.066406 280.953125 226.523438 281.589844 C 224.980469 282.230469 223.421875 282.832031 221.851562 283.394531 C 220.277344 283.953125 218.695312 284.476562 217.097656 284.960938 C 215.5 285.445312 213.890625 285.890625 212.269531 286.296875 C 210.648438 286.703125 209.019531 287.070312 207.382812 287.394531 C 205.746094 287.71875 204.101562 288.003906 202.449219 288.25 C 200.796875 288.496094 199.140625 288.699219 197.480469 288.863281 C 195.816406 289.027344 194.152344 289.148438 192.484375 289.230469 C 190.816406 289.3125 189.148438 289.355469 187.480469 289.355469 C 185.808594 289.355469 184.140625 289.3125 182.472656 289.230469 C 180.804688 289.148438 179.140625 289.027344 177.480469 288.863281 C 175.816406 288.699219 174.160156 288.496094 172.507812 288.25 C 170.855469 288.003906 169.210938 287.71875 167.574219 287.394531 C 165.9375 287.070312 164.308594 286.703125 162.6875 286.296875 C 161.070312 285.890625 159.460938 285.445312 157.863281 284.960938 C 156.265625 284.476562 154.679688 283.953125 153.105469 283.394531 C 151.535156 282.832031 149.976562 282.230469 148.433594 281.589844 C 146.890625 280.953125 145.367188 280.277344 143.855469 279.5625 C 142.347656 278.851562 140.855469 278.101562 139.382812 277.3125 C 137.910156 276.527344 136.457031 275.703125 135.027344 274.847656 C 133.59375 273.988281 132.183594 273.09375 130.796875 272.167969 C 129.40625 271.242188 128.042969 270.28125 126.703125 269.285156 C 125.359375 268.292969 124.042969 267.265625 122.753906 266.207031 C 121.460938 265.148438 120.199219 264.058594 118.960938 262.9375 C 117.722656 261.816406 116.515625 260.667969 115.335938 259.488281 C 114.152344 258.308594 113.003906 257.097656 111.882812 255.863281 C 110.761719 254.625 109.671875 253.363281 108.609375 252.074219 C 107.550781 250.78125 106.523438 249.46875 105.53125 248.125 C 104.535156 246.785156 103.574219 245.421875 102.644531 244.035156 C 101.71875 242.648438 100.824219 241.238281 99.96875 239.804688 C 99.109375 238.375 98.285156 236.921875 97.5 235.453125 C 96.710938 233.980469 95.960938 232.488281 95.246094 230.980469 C 94.535156 229.472656 93.855469 227.945312 93.21875 226.40625 C 92.578125 224.863281 91.976562 223.308594 91.414062 221.734375 C 90.851562 220.164062 90.328125 218.582031 89.84375 216.984375 C 89.359375 215.386719 88.914062 213.777344 88.507812 212.160156 C 88.101562 210.539062 87.738281 208.914062 87.410156 207.277344 C 87.085938 205.640625 86.800781 203.996094 86.554688 202.34375 C 86.3125 200.695312 86.105469 199.039062 85.941406 197.378906 C 85.777344 195.714844 85.65625 194.054688 85.574219 192.386719 C 85.492188 190.71875 85.453125 189.050781 85.453125 187.382812 C 85.453125 185.714844 85.492188 184.046875 85.574219 182.378906 C 85.65625 180.710938 85.777344 179.046875 85.941406 177.386719 C 86.105469 175.726562 86.3125 174.070312 86.554688 172.421875 C 86.800781 170.769531 87.085938 169.125 87.410156 167.488281 C 87.738281 165.851562 88.101562 164.222656 88.507812 162.605469 C 88.914062 160.988281 89.359375 159.378906 89.84375 157.78125 C 90.328125 156.183594 90.851562 154.601562 91.414062 153.03125 C 91.976562 151.457031 92.578125 149.902344 93.21875 148.359375 C 93.855469 146.816406 94.535156 145.292969 95.246094 143.785156 C 95.960938 142.277344 96.710938 140.785156 97.5 139.3125 C 98.285156 137.84375 99.109375 136.390625 99.96875 134.957031 C 100.824219 133.527344 101.71875 132.117188 102.644531 130.730469 C 103.574219 129.34375 104.535156 127.980469 105.53125 126.636719 C 106.523438 125.296875 107.550781 123.984375 108.609375 122.691406 C 109.671875 121.402344 110.761719 120.140625 111.882812 118.902344 C 113.003906 117.667969 114.152344 116.457031 115.335938 115.277344 C 116.515625 114.097656 117.722656 112.949219 118.960938 111.828125 C 120.199219 110.707031 121.460938 109.617188 122.753906 108.558594 C 124.042969 107.5 125.359375 106.472656 126.703125 105.480469 C 128.042969 104.484375 129.40625 103.523438 130.796875 102.597656 C 132.183594 101.667969 133.59375 100.777344 135.027344 99.917969 C 136.457031 99.0625 137.910156 98.238281 139.382812 97.453125 C 140.855469 96.664062 142.347656 95.914062 143.855469 95.203125 C 145.367188 94.488281 146.890625 93.8125 148.433594 93.171875 C 149.976562 92.535156 151.535156 91.933594 153.105469 91.371094 C 154.679688 90.808594 156.265625 90.285156 157.863281 89.800781 C 159.460938 89.316406 161.070312 88.871094 162.6875 88.46875 C 164.308594 88.0625 165.9375 87.695312 167.574219 87.371094 C 169.210938 87.046875 170.855469 86.761719 172.507812 86.515625 C 174.160156 86.269531 175.816406 86.066406 177.480469 85.902344 C 179.140625 85.738281 180.804688 85.617188 182.472656 85.535156 C 184.140625 85.453125 185.808594 85.410156 187.480469 85.410156 C 189.148438 85.410156 190.816406 85.453125 192.484375 85.535156 C 194.152344 85.617188 195.816406 85.738281 197.480469 85.902344 C 199.140625 86.066406 200.796875 86.269531 202.449219 86.515625 C 204.101562 86.761719 205.746094 87.046875 207.382812 87.371094 C 209.019531 87.695312 210.648438 88.0625 212.269531 88.46875 C 213.890625 88.871094 215.5 89.316406 217.097656 89.800781 C 218.695312 90.285156 220.277344 90.808594 221.851562 91.371094 C 223.421875 91.933594 224.980469 92.535156 226.523438 93.171875 C 228.066406 93.8125 229.59375 94.488281 231.101562 95.203125 C 232.609375 95.914062 234.101562 96.664062 235.574219 97.453125 C 237.046875 98.238281 238.5 99.0625 239.929688 99.917969 C 241.363281 100.777344 242.773438 101.667969 244.164062 102.597656 C 245.550781 103.523438 246.914062 104.484375 248.257812 105.480469 C 249.597656 106.472656 250.914062 107.5 252.203125 108.558594 C 253.496094 109.617188 254.757812 110.707031 255.996094 111.828125 C 257.234375 112.949219 258.441406 114.097656 259.625 115.277344 C 260.804688 116.457031 261.953125 117.667969 263.078125 118.902344 C 264.199219 120.140625 265.289062 121.402344 266.347656 122.691406 C 267.40625 123.984375 268.433594 125.296875 269.429688 126.636719 C 270.421875 127.980469 271.382812 129.34375 272.3125 130.730469 C 273.238281 132.117188 274.132812 133.527344 274.992188 134.957031 C 275.847656 136.390625 276.671875 137.84375 277.460938 139.3125 C 278.246094 140.785156 278.996094 142.277344 279.710938 143.785156 C 280.425781 145.292969 281.101562 146.816406 281.738281 148.359375 C 282.378906 149.902344 282.980469 151.457031 283.542969 153.03125 C 284.105469 154.601562 284.628906 156.183594 285.113281 157.78125 C 285.597656 159.378906 286.042969 160.988281 286.449219 162.605469 C 286.855469 164.222656 287.21875 165.851562 287.546875 167.488281 C 287.871094 169.125 288.15625 170.769531 288.402344 172.421875 C 288.648438 174.070312 288.851562 175.726562 289.015625 177.386719 C 289.179688 179.046875 289.300781 180.710938 289.382812 182.378906 C 289.464844 184.046875 289.507812 185.714844 289.507812 187.382812 Z M 289.507812 187.382812 " fill-opacity="1" fill-rule="nonzero"/></svg>