<?xml version="1.0" encoding="UTF-8"?><svg id="Layer_1" xmlns="http://www.w3.org/2000/svg" viewBox="0 0 500 249.67"><defs><style>.cls-1{fill:#f39200;}.cls-2{fill:#33956d;}.cls-3{fill:#f07167;}</style></defs><g><circle class="cls-1" cx="241.61" cy="98.94" r="18.04"/><path class="cls-1" d="M217.79,95.37c-1.21,2.68-1.83,5.56-1.83,8.52,0,.37,0,.73,.03,1.09l.13,2.44-2.36-.65c-2.11-.59-4.28-.93-6.48-1.02-1.19-4.85-3.21-9.56-6.03-13.87,1.58-.18,3.19-.27,4.83-.27,3.53,0,7.08,.45,10.55,1.33l2.03,.52-.87,1.92Z"/><path class="cls-1" d="M248.94,134.47c0,23.64-19.23,42.86-42.86,42.86h-42.86v-42.86c0-3.64,.46-7.17,1.32-10.55,2.64-10.4,9.11-19.3,17.8-25.1,3.44,3.64,5.61,8.05,6.54,12.66-7,5.24-11.54,13.59-11.54,23v28.75h28.75c15.85,0,28.75-12.89,28.75-28.75,0-2.59-.34-5.19-1.05-7.69l-.65-2.35,2.44,.13c3.3,.17,6.62-.46,9.62-1.81l1.9-.86,.52,2.03c.88,3.47,1.33,7.03,1.33,10.55Z"/><circle class="cls-3" cx="163.22" cy="66.47" r="18.04"/><path class="cls-3" d="M151.19,90.49l-2.13,1.2c-1.92,1.09-3.69,2.39-5.31,3.87-4.28-2.59-9.01-4.5-14.05-5.56,1-1.25,2.07-2.45,3.22-3.6,2.49-2.49,5.31-4.69,8.39-6.52l1.81-1.07,.74,1.97c1.03,2.76,2.63,5.23,4.73,7.33,.26,.26,.52,.5,.79,.74l1.81,1.64Z"/><path class="cls-3" d="M193.53,147.02l-13.63,13.63h-.01v-19.96l3.65-3.65c6.66-6.66,9.35-15.77,8.13-24.43-.13-.91-.31-1.81-.51-2.72-1.11-4.52-3.31-8.83-6.62-12.48-.33-.36-.66-.7-1-1.03-.28-.28-.56-.55-.86-.82-1.62-1.49-3.4-2.79-5.31-3.87l-2.13-1.2,1.81-1.65c2.45-2.2,4.36-5,5.52-8.06l.75-1.97,1.8,1.07c3.08,1.83,5.9,4.02,8.41,6.52,1.15,1.15,2.22,2.35,3.22,3.6,.6,.74,1.16,1.51,1.67,2.27,2.91,4.16,4.98,8.74,6.21,13.48,.24,.84,.43,1.69,.6,2.54,2.7,13.58-1.2,28.22-11.7,38.72Z"/><circle class="cls-2" cx="84.83" cy="98.94" r="18.04"/><path class="cls-2" d="M163.22,134.47v42.86h-42.86c-23.64,0-42.86-19.23-42.86-42.86,0-3.53,.45-7.06,1.33-10.54l.52-2.04,1.92,.87c2.68,1.23,5.56,1.84,8.53,1.84,.36,0,.72-.01,1.07-.03l2.44-.13-.65,2.35c-.69,2.5-1.05,5.08-1.05,7.68,0,15.85,12.9,28.75,28.75,28.75h28.75v-28.75c0-9.4-4.54-17.76-11.54-23.01-.73-.55-1.49-1.06-2.27-1.55-3.96-2.43-8.56-3.91-13.48-4.15-.49-.03-.97-.04-1.46-.04-.41,0-.8,.01-1.21,.03-2.18,.09-4.36,.43-6.46,1.02l-2.36,.66,.13-2.45c.17-3.3-.46-6.62-1.8-9.61l-.87-1.92,2.03-.52c3.47-.88,7.03-1.33,10.55-1.33,1.64,0,3.26,.09,4.85,.27,.95,.11,1.88,.26,2.81,.41,4.98,.91,9.66,2.67,13.87,5.14,.75,.45,1.49,.91,2.22,1.39,8.69,5.8,15.14,14.7,17.78,25.1,.86,3.39,1.32,6.91,1.32,10.55Z"/><path class="cls-3" d="M160.66,154.82l-11.56-11.56-6.21-6.21c-6.64-6.66-9.35-15.77-8.11-24.43-3.92-2.59-8.57-4.16-13.57-4.32-2.7,13.58,1.2,28.22,11.7,38.72l16.19,16.19,14.12,14.12v-19.96l-2.56-2.56Z"/></g><g><path class="cls-3" d="M287.51,84.37h3.89v21.35h13.99v3.58h-17.88v-24.93Z"/><path class="cls-3" d="M307.41,99.89c0-5.72,4.19-9.91,10.14-9.91s10.07,4.19,10.07,9.91v1.33h-16.39c.53,3.35,3.05,5.22,6.33,5.22,2.44,0,4.16-.76,5.26-2.4h4c-1.45,3.51-4.88,5.76-9.26,5.76-5.95,0-10.14-4.19-10.14-9.91Zm16.39-1.91c-.72-3.01-3.2-4.65-6.25-4.65s-5.49,1.68-6.21,4.65h12.47Z"/><path class="cls-3" d="M330.59,102.17v-18.38h3.62v6.67h10.37v3.32h-10.37v8.39c0,2.97,1.56,4.27,3.93,4.27s3.96-1.26,3.96-4.27v-.42h3.58v.42c0,5.11-3.05,7.62-7.55,7.62s-7.55-2.52-7.55-7.62Z"/><path class="cls-3" d="M350.69,89.21c-.95-.34-1.64-1.26-1.64-2.32,0-1.45,1.07-2.52,2.52-2.52s2.52,1.07,2.52,2.52c0,.42-.11,.99-.31,1.37l-2.4,5.64h-2.14l1.45-4.69Z"/><path class="cls-3" d="M357.47,103.85h3.66c.08,1.56,1.53,2.67,4.16,2.67s4.16-1.18,4.16-2.67c0-1.79-1.98-2.02-4.35-2.33-3.28-.42-7.24-1.03-7.24-5.34,0-3.7,2.9-6.21,7.4-6.21s7.28,2.55,7.36,5.79h-3.58c-.11-1.45-1.45-2.52-3.74-2.52-2.4,0-3.77,1.14-3.77,2.63,0,1.79,1.98,1.98,4.31,2.29,3.28,.42,7.28,1.03,7.28,5.34,0,3.81-3.09,6.29-7.82,6.29s-7.7-2.52-7.82-5.95Z"/></g><g><path class="cls-2" d="M300.06,151.74l-.32-.06c-5.01-.89-8.09-1.59-8.09-4.77,0-3.35,2.71-5.43,7.08-5.43s6.79,1.98,6.96,5.29l.05,.89h7.79l-.03-.97c-.26-7.68-6.24-12.83-14.88-12.83s-14.82,5.32-14.82,13.23c0,9.74,7.81,11.12,14.17,12.24l.28,.05c5,.88,8.06,1.59,8.06,4.78,0,3.47-2.9,5.55-7.75,5.55s-7.52-2.03-7.63-5.58l-.03-.91h-8.04l.02,.96c.19,7.99,6.35,13.15,15.68,13.15s15.74-5.24,15.74-13.35c0-9.75-7.86-11.12-14.23-12.24Z"/><path class="cls-2" d="M335.38,143.65c-3.72,0-6.88,1.33-9.16,3.8v-16.22h-7.68v45.3h7.68v-16.66c0-5.62,3.06-8.97,8.18-8.97s8.18,3.19,8.18,8.97v16.66h7.68v-16.66c0-11.97-7.69-16.23-14.88-16.23Z"/><path class="cls-2" d="M370.43,143.65c-10.17,0-17.27,7.03-17.27,17.08,0,10.9,8.19,16.6,16.29,16.6,4.58,0,8.36-1.74,10.81-4.87v4.07h7.19v-15.8c0-10.06-7-17.08-17.02-17.08Zm9.4,16.84c0,5.73-3.8,9.59-9.47,9.59s-9.46-3.85-9.46-9.59,3.8-9.59,9.46-9.59,9.47,3.85,9.47,9.59Z"/><path class="cls-2" d="M405.55,143.65c-8.88,0-13.97,5.16-13.97,14.15v18.74h7.68v-18.74c0-4.64,2.06-6.9,6.28-6.9s6.28,2.32,6.28,6.9v1.3h7.62v-1.24c0-9.03-5.07-14.21-13.9-14.21Z"/><path class="cls-2" d="M454.63,160.49c0-9.76-7.19-16.84-17.08-16.84s-17.21,7.08-17.21,16.84,7.24,16.84,17.21,16.84c7.31,0,13.19-3.67,15.73-9.81l.53-1.29h-8.32l-.28,.41c-1.58,2.35-4.02,3.44-7.67,3.44-4.63,0-7.92-2.41-9-6.51h26.09v-3.08Zm-25.79-3.99c1.32-3.57,4.44-5.59,8.71-5.59s7.45,2.07,8.77,5.59h-17.48Z"/></g></svg>