<?xml version="1.0" encoding="UTF-8"?><svg id="Layer_1" xmlns="http://www.w3.org/2000/svg" viewBox="0 0 500 249.67"><defs><style>.cls-1{fill:#fff;}.cls-2{fill:#dadada;}.cls-3{fill:#ededed;}</style></defs><g><circle class="cls-1" cx="240.59" cy="98.75" r="17.98"/><path class="cls-1" d="M216.86,95.2c-1.21,2.67-1.82,5.54-1.82,8.49,0,.37,0,.73,.03,1.08l.13,2.43-2.35-.65c-2.1-.59-4.26-.93-6.45-1.02-1.18-4.84-3.2-9.52-6.01-13.82,1.58-.18,3.18-.27,4.81-.27,3.51,0,7.05,.45,10.51,1.32l2.02,.52-.87,1.91Z"/><path class="cls-1" d="M247.89,134.15c0,23.55-19.16,42.71-42.71,42.71h-42.71v-42.71c0-3.63,.46-7.14,1.31-10.51,2.63-10.36,9.08-19.23,17.73-25.01,3.42,3.63,5.59,8.02,6.52,12.61-6.98,5.22-11.49,13.54-11.49,22.91v28.64h28.64c15.8,0,28.64-12.84,28.64-28.64,0-2.58-.34-5.17-1.04-7.66l-.65-2.34,2.43,.13c3.28,.17,6.59-.46,9.59-1.81l1.9-.85,.52,2.02c.88,3.46,1.32,7,1.32,10.51Z"/><circle class="cls-3" cx="162.48" cy="66.4" r="17.98"/><path class="cls-3" d="M150.5,90.34l-2.13,1.2c-1.91,1.08-3.68,2.38-5.3,3.86-4.26-2.58-8.97-4.48-14-5.54,.99-1.25,2.06-2.44,3.21-3.59,2.48-2.48,5.3-4.67,8.36-6.49l1.81-1.07,.74,1.96c1.03,2.75,2.62,5.21,4.71,7.31,.25,.25,.52,.5,.79,.74l1.81,1.63Z"/><path class="cls-3" d="M192.69,146.66l-13.58,13.58h-.01v-19.88l3.64-3.64c6.63-6.63,9.32-15.71,8.1-24.34-.13-.9-.31-1.81-.51-2.71-1.11-4.51-3.3-8.8-6.59-12.44-.33-.36-.66-.7-.99-1.03-.28-.28-.56-.55-.85-.81-1.62-1.49-3.39-2.78-5.3-3.86l-2.13-1.2,1.81-1.64c2.44-2.19,4.34-4.98,5.5-8.03l.75-1.96,1.79,1.07c3.07,1.82,5.88,4.01,8.38,6.49,1.15,1.15,2.21,2.34,3.21,3.59,.6,.74,1.16,1.5,1.67,2.27,2.9,4.15,4.96,8.71,6.19,13.43,.24,.84,.43,1.68,.6,2.53,2.69,13.53-1.2,28.12-11.66,38.58Z"/><circle class="cls-2" cx="84.38" cy="98.75" r="17.98"/><path class="cls-2" d="M162.48,134.15v42.71h-42.71c-23.55,0-42.71-19.16-42.71-42.71,0-3.51,.45-7.04,1.32-10.5l.52-2.04,1.91,.87c2.67,1.22,5.54,1.83,8.5,1.83,.36,0,.71-.01,1.07-.03l2.43-.13-.65,2.34c-.69,2.49-1.04,5.07-1.04,7.65,0,15.8,12.86,28.64,28.64,28.64h28.64v-28.64c0-9.37-4.52-17.69-11.49-22.93-.73-.55-1.49-1.06-2.27-1.54-3.95-2.42-8.53-3.9-13.43-4.14-.48-.03-.97-.04-1.45-.04-.41,0-.8,.01-1.21,.03-2.18,.09-4.34,.43-6.44,1.02l-2.35,.66,.13-2.44c.17-3.28-.46-6.59-1.79-9.57l-.87-1.91,2.02-.52c3.46-.88,7-1.32,10.51-1.32,1.63,0,3.25,.09,4.84,.27,.94,.11,1.87,.25,2.8,.41,4.96,.9,9.62,2.66,13.82,5.12,.75,.45,1.49,.9,2.21,1.39,8.66,5.78,15.08,14.65,17.72,25.01,.85,3.37,1.31,6.89,1.31,10.51Z"/><path class="cls-3" d="M159.93,154.43l-11.52-11.52-6.19-6.19c-6.62-6.63-9.32-15.71-8.08-24.34-3.91-2.58-8.54-4.15-13.52-4.3-2.69,13.53,1.2,28.12,11.66,38.58l16.13,16.13,14.07,14.07v-19.88l-2.55-2.55Z"/></g><g><path class="cls-3" d="M287.51,84.37h3.89v21.35h13.99v3.58h-17.88v-24.93Z"/><path class="cls-3" d="M307.41,99.89c0-5.72,4.19-9.91,10.14-9.91s10.07,4.19,10.07,9.91v1.33h-16.39c.53,3.35,3.05,5.22,6.33,5.22,2.44,0,4.16-.76,5.26-2.4h4c-1.45,3.51-4.88,5.76-9.26,5.76-5.95,0-10.14-4.19-10.14-9.91Zm16.39-1.91c-.72-3.01-3.2-4.65-6.25-4.65s-5.49,1.68-6.21,4.65h12.47Z"/><path class="cls-3" d="M330.59,102.17v-18.38h3.62v6.67h10.37v3.32h-10.37v8.39c0,2.97,1.56,4.27,3.93,4.27s3.96-1.26,3.96-4.27v-.42h3.58v.42c0,5.11-3.05,7.62-7.55,7.62s-7.55-2.52-7.55-7.62Z"/><path class="cls-3" d="M350.69,89.21c-.95-.34-1.64-1.26-1.64-2.32,0-1.45,1.07-2.52,2.52-2.52s2.52,1.07,2.52,2.52c0,.42-.11,.99-.31,1.37l-2.4,5.64h-2.14l1.45-4.69Z"/><path class="cls-3" d="M357.47,103.85h3.66c.08,1.56,1.53,2.67,4.16,2.67s4.16-1.18,4.16-2.67c0-1.79-1.98-2.02-4.35-2.33-3.28-.42-7.24-1.03-7.24-5.34,0-3.7,2.9-6.21,7.4-6.21s7.28,2.55,7.36,5.79h-3.58c-.11-1.45-1.45-2.52-3.74-2.52-2.4,0-3.77,1.14-3.77,2.63,0,1.79,1.98,1.98,4.31,2.29,3.28,.42,7.28,1.03,7.28,5.34,0,3.81-3.09,6.29-7.82,6.29s-7.7-2.52-7.82-5.95Z"/></g><g><path class="cls-1" d="M300.06,151.74l-.32-.06c-5.01-.89-8.09-1.59-8.09-4.77,0-3.35,2.71-5.43,7.08-5.43s6.79,1.98,6.96,5.29l.05,.89h7.79l-.03-.97c-.26-7.68-6.24-12.83-14.88-12.83s-14.82,5.32-14.82,13.23c0,9.74,7.81,11.12,14.17,12.24l.28,.05c5,.88,8.06,1.59,8.06,4.78,0,3.47-2.9,5.55-7.75,5.55s-7.52-2.03-7.63-5.58l-.03-.91h-8.04l.02,.96c.19,7.99,6.35,13.15,15.68,13.15s15.74-5.24,15.74-13.35c0-9.75-7.86-11.12-14.23-12.24Z"/><path class="cls-1" d="M335.38,143.65c-3.72,0-6.88,1.33-9.16,3.8v-16.22h-7.68v45.3h7.68v-16.66c0-5.62,3.06-8.97,8.18-8.97s8.18,3.19,8.18,8.97v16.66h7.68v-16.66c0-11.97-7.69-16.23-14.88-16.23Z"/><path class="cls-1" d="M370.43,143.65c-10.17,0-17.27,7.03-17.27,17.08,0,10.9,8.19,16.6,16.29,16.6,4.58,0,8.36-1.74,10.81-4.87v4.07h7.19v-15.8c0-10.06-7-17.08-17.02-17.08Zm9.4,16.84c0,5.73-3.8,9.59-9.47,9.59s-9.46-3.85-9.46-9.59,3.8-9.59,9.46-9.59,9.47,3.85,9.47,9.59Z"/><path class="cls-1" d="M405.55,143.65c-8.88,0-13.97,5.16-13.97,14.15v18.74h7.68v-18.74c0-4.64,2.06-6.9,6.28-6.9s6.28,2.32,6.28,6.9v1.3h7.62v-1.24c0-9.03-5.07-14.21-13.9-14.21Z"/><path class="cls-1" d="M454.63,160.49c0-9.76-7.19-16.84-17.08-16.84s-17.21,7.08-17.21,16.84,7.24,16.84,17.21,16.84c7.31,0,13.19-3.67,15.73-9.81l.53-1.29h-8.32l-.28,.41c-1.58,2.35-4.02,3.44-7.67,3.44-4.63,0-7.92-2.41-9-6.51h26.09v-3.08Zm-25.79-3.99c1.32-3.57,4.44-5.59,8.71-5.59s7.45,2.07,8.77,5.59h-17.48Z"/></g></svg>