<svg xmlns="http://www.w3.org/2000/svg" xmlns:xlink="http://www.w3.org/1999/xlink" width="200" zoomAndPan="magnify" viewBox="0 0 150 149.999998" height="200" preserveAspectRatio="xMidYMid meet" version="1.0"><defs><clipPath id="id1"><path d="M 26.097656 66 L 123.597656 66 L 123.597656 130.5 L 26.097656 130.5 Z M 26.097656 66 " clip-rule="nonzero"/></clipPath></defs><rect x="-15" width="180" fill="#ffffff" y="-15" height="179.999997" fill-opacity="1"/><rect x="-15" width="180" fill="#d8d8d8" y="-15" height="179.999997" fill-opacity="1"/><rect x="-15" width="180" fill="#ffffff" y="-15" height="179.999997" fill-opacity="1"/><rect x="-15" width="180" fill="#d8d8d8" y="-15" height="179.999997" fill-opacity="1"/><path fill="#ffffff" d="M 101.4375 41.652344 C 101.4375 58.980469 89.472656 77.191406 74.847656 77.191406 C 60.222656 77.191406 48.257812 58.980469 48.257812 41.652344 C 48.257812 24.328125 60.222656 15 74.847656 15 C 89.472656 15 101.4375 24.328125 101.4375 41.652344 Z M 101.4375 41.652344 " fill-opacity="1" fill-rule="nonzero"/><g clip-path="url(#id1)"><path fill="#ffffff" d="M 88.144531 78.082031 L 88.144531 66.085938 L 61.554688 66.085938 L 61.554688 78.082031 C 61.554688 80.746094 59.78125 82.96875 57.566406 83.410156 C 40.28125 88.742188 26.101562 100.292969 26.101562 106.957031 C 26.101562 107.84375 26.101562 114.507812 26.101562 114.953125 C 26.101562 123.390625 47.816406 130.5 74.847656 130.5 C 101.882812 130.5 123.597656 123.390625 123.597656 114.953125 C 123.597656 114.0625 123.597656 107.398438 123.597656 106.957031 C 123.597656 100.738281 109.859375 88.742188 92.132812 83.410156 C 89.917969 82.96875 88.144531 80.300781 88.144531 78.082031 Z M 88.144531 78.082031 " fill-opacity="1" fill-rule="nonzero"/></g></svg>