<svg xmlns="http://www.w3.org/2000/svg" xmlns:xlink="http://www.w3.org/1999/xlink" width="500" zoomAndPan="magnify" viewBox="0 0 375 374.999991" height="500" preserveAspectRatio="xMidYMid meet" version="1.0"><defs><clipPath id="id1"><path d="M 97.359375 195 L 277.359375 195 L 277.359375 288.613281 L 97.359375 288.613281 Z M 97.359375 195 " clip-rule="nonzero"/></clipPath><clipPath id="id2"><path d="M 138 86.113281 L 237 86.113281 L 237 184 L 138 184 Z M 138 86.113281 " clip-rule="nonzero"/></clipPath></defs><rect x="-37.5" width="450" fill="#ffffff" y="-37.499999" height="449.999989" fill-opacity="1"/><rect x="-37.5" width="450" fill="#008037" y="-37.499999" height="449.999989" fill-opacity="1"/><rect x="-37.5" width="450" fill="#ffffff" y="-37.499999" height="449.999989" fill-opacity="1"/><rect x="-37.5" width="450" fill="#008037" y="-37.499999" height="449.999989" fill-opacity="1"/><path fill="#ffffff" d="M 275.046875 286.414062 L 99.757812 286.414062 C 99.757812 286.414062 102.027344 199.613281 187.402344 198.039062 C 187.402344 198.039062 275.046875 197.960938 275.046875 286.414062 " fill-opacity="1" fill-rule="nonzero"/><g clip-path="url(#id1)"><path fill="#ffffff" d="M 275.046875 286.414062 L 275.046875 284.230469 L 99.757812 284.230469 L 99.757812 286.414062 L 101.941406 286.472656 L 101.941406 286.429688 C 101.964844 285.292969 102.875 263.875 114.027344 242.8125 C 119.601562 232.277344 127.6875 221.84375 139.480469 213.9375 C 151.269531 206.03125 166.789062 200.609375 187.4375 200.222656 L 187.402344 198.039062 L 187.402344 200.222656 C 187.402344 200.222656 187.734375 200.222656 188.363281 200.25 C 190.730469 200.328125 197.253906 200.710938 205.671875 202.503906 C 218.3125 205.203125 235.167969 211.089844 248.757812 223.765625 C 255.554688 230.117188 261.5625 238.144531 265.886719 248.402344 C 270.21875 258.660156 272.863281 271.152344 272.863281 286.414062 L 275.046875 286.414062 L 275.046875 284.230469 L 275.046875 286.414062 L 277.230469 286.414062 C 277.238281 263.988281 271.667969 246.953125 263.222656 234.152344 C 256.890625 224.5625 248.976562 217.355469 240.695312 211.972656 C 228.269531 203.902344 215.027344 199.890625 204.863281 197.882812 C 194.695312 195.871094 187.59375 195.855469 187.402344 195.855469 L 187.359375 195.855469 C 165.65625 196.25 149.035156 202.101562 136.457031 210.707031 C 127.023438 217.164062 119.871094 225.136719 114.464844 233.445312 C 106.359375 245.914062 102.160156 259.09375 99.957031 269.175781 C 97.757812 279.265625 97.574219 286.253906 97.574219 286.359375 C 97.554688 286.953125 97.773438 287.523438 98.195312 287.941406 C 98.605469 288.359375 99.164062 288.597656 99.757812 288.597656 L 275.046875 288.597656 C 275.625 288.597656 276.183594 288.371094 276.59375 287.957031 C 277.003906 287.558594 277.230469 286.988281 277.230469 286.414062 L 275.046875 286.414062 " fill-opacity="1" fill-rule="nonzero"/></g><path fill="#ffffff" d="M 140.738281 134.992188 C 140.738281 109.210938 161.628906 88.3125 187.402344 88.3125 C 213.175781 88.3125 234.066406 109.210938 234.066406 134.992188 C 234.066406 160.773438 213.175781 181.675781 187.402344 181.675781 C 161.628906 181.675781 140.738281 160.773438 140.738281 134.992188 " fill-opacity="1" fill-rule="nonzero"/><g clip-path="url(#id2)"><path fill="#ffffff" d="M 140.738281 134.992188 L 142.921875 134.992188 C 142.921875 122.691406 147.890625 111.589844 155.941406 103.523438 C 164.003906 95.46875 175.105469 90.492188 187.402344 90.492188 C 199.699219 90.492188 210.800781 95.46875 218.863281 103.523438 C 226.914062 111.589844 231.882812 122.691406 231.882812 134.992188 C 231.882812 147.285156 226.914062 158.394531 218.863281 166.449219 C 210.800781 174.511719 199.691406 179.484375 187.402344 179.492188 C 175.105469 179.484375 164.003906 174.511719 155.953125 166.449219 C 147.890625 158.394531 142.921875 147.285156 142.921875 134.992188 L 138.554688 134.992188 C 138.554688 161.976562 160.414062 183.851562 187.402344 183.859375 C 214.390625 183.851562 236.25 161.976562 236.25 134.992188 C 236.25 107.996094 214.390625 86.128906 187.402344 86.128906 C 160.414062 86.128906 138.554688 107.996094 138.554688 134.992188 L 140.738281 134.992188 " fill-opacity="1" fill-rule="nonzero"/></g></svg>