<svg xmlns="http://www.w3.org/2000/svg" xmlns:xlink="http://www.w3.org/1999/xlink" width="50" zoomAndPan="magnify" viewBox="0 0 37.5 37.499999" height="50" preserveAspectRatio="xMidYMid meet" version="1.0"><defs><clipPath id="id1"><path d="M 0 0 L 37.007812 0 L 37.007812 37.007812 L 0 37.007812 Z M 0 0 " clip-rule="nonzero"/></clipPath></defs><g clip-path="url(#id1)"><path fill="#ffffff" d="M 0 0 L 37.5 0 L 37.5 45 L 0 45 Z M 0 0 " fill-opacity="1" fill-rule="nonzero"/><path fill="#ffffff" d="M 0 0 L 37.5 0 L 37.5 37.5 L 0 37.5 Z M 0 0 " fill-opacity="1" fill-rule="nonzero"/><path fill="#ffffff" d="M 0 0 L 37.5 0 L 37.5 37.5 L 0 37.5 Z M 0 0 " fill-opacity="1" fill-rule="nonzero"/><path fill="#ffffff" d="M 0 0 L 37.5 0 L 37.5 37.5 L 0 37.5 Z M 0 0 " fill-opacity="1" fill-rule="nonzero"/><path fill="#5a5a5a" d="M 26.875 25.0625 C 29.210938 22.335938 30.492188 18.914062 30.492188 15.292969 C 30.492188 11.253906 28.910156 7.457031 26.035156 4.601562 C 23.164062 1.746094 19.34375 0.171875 15.28125 0.171875 C 11.214844 0.171875 7.398438 1.746094 4.523438 4.601562 C -1.40625 10.496094 -1.40625 20.085938 4.523438 25.980469 C 7.398438 28.835938 11.214844 30.410156 15.28125 30.410156 C 18.925781 30.410156 22.367188 29.136719 25.113281 26.816406 L 35.324219 36.964844 C 35.566406 37.207031 35.886719 37.328125 36.203125 37.328125 C 36.523438 37.328125 36.839844 37.207031 37.085938 36.964844 C 37.570312 36.480469 37.570312 35.699219 37.085938 35.214844 Z M 6.285156 24.230469 C 1.328125 19.300781 1.328125 11.28125 6.285156 6.351562 C 11.246094 1.425781 19.3125 1.421875 24.273438 6.351562 C 26.675781 8.742188 28 11.914062 28 15.292969 C 28 18.667969 26.675781 21.84375 24.273438 24.230469 C 19.3125 29.160156 11.246094 29.160156 6.285156 24.230469 Z M 6.285156 24.230469 " fill-opacity="1" fill-rule="nonzero"/></g></svg>