<?xml version="1.0" encoding="utf-8"?>
<!-- Generator: Adobe Illustrator 26.3.1, SVG Export Plug-In . SVG Version: 6.00 Build 0)  -->
<svg version="1.1" id="_x3C_Layer_x3E_" xmlns="http://www.w3.org/2000/svg" xmlns:xlink="http://www.w3.org/1999/xlink" x="0px"
	 y="0px" viewBox="0 0 2760 1840" style="enable-background:new 0 0 2760 1840;" xml:space="preserve">
<style type="text/css">
	.st0{fill:#BED5DC;}
	.st1{fill:#B2C9C6;}
	.st2{fill:#9BBCB6;}
	.st3{fill:#74A1BD;}
	.st4{fill:#CFD3A3;}
	.st5{fill:#C4C695;}
	.st6{opacity:0.4;}
	.st7{fill:#F07167;}
	.st8{fill:#436E8E;}
	.st9{fill:#CED891;}
	.st10{fill:#2F1A31;}
	.st11{fill:#33956D;}
	.st12{fill:#F7B686;}
	.st13{fill:#E08B65;}
	.st14{fill:#020202;}
	.st15{fill:#FFFFFF;}
	.st16{fill:#DD8964;}
	.st17{fill:#DB6B49;}
	.st18{fill:#060633;}
	.st19{fill:#6F4975;}
	.st20{fill:#1C3442;}
	.st21{fill:#E28569;}
	.st22{opacity:0.3;}
	.st23{opacity:0.5;}
	.st24{fill:#DEEBE9;}
	.st25{fill:#56335B;}
	.st26{fill:#42428E;}
	.st27{fill:#EDA588;}
	.st28{fill:#96A7E2;}
</style>
<g>
	<ellipse class="st0" cx="1370" cy="1456.8" rx="954.3" ry="143"/>
</g>
<g>
	<path class="st1" d="M858.2,802.9c0,0-238.5-376.5-338.3-307.9c-99.7,68.6,215.7,216.9,281.7,328.7L858.2,802.9z"/>
</g>
<g>
	<g>
		<path class="st2" d="M854.5,860.4c0,0-267.5-280.9-358.4-200.1c-90.9,80.8,230.5,145.6,305.2,230L854.5,860.4z"/>
	</g>
	<g>
		<g>
			<path class="st3" d="M824.9,877.4c-50.5-59.2-125.4-105.7-179.3-134.3c-58.4-31-105.5-48.1-105.9-48.3l1.1-2.9
				c0.5,0.2,47.7,17.4,106.3,48.5c54.1,28.7,129.3,75.4,180.2,135L824.9,877.4z"/>
		</g>
	</g>
</g>
<g>
	<g>
		<g>
			<path class="st1" d="M525.1,1184.6c94.3,41.3,47.7,187.3,165.7,182.4c118-5,110.2-14.1,154.3,45.7c0,0,9.2,59.4,54.6,68.3
				c142.3,28.2,162.6-76.1,296.1-148.6c37.4-20.3,31.9-63.6,63.2-83.7c-3.2-25.3-14.2-63.9-50.1-94c-13.2-11.1-29.7-21-50.5-28.7
				c-112.5-41.6-159.5,4.3-223.3-151.1c-63.8-155.5-227.8,15.7-304.3-7c-76.5-22.7-140.4-59.9-217.8,10.3
				C335.7,1048.5,430.8,1143.3,525.1,1184.6z"/>
		</g>
	</g>
	<g>
		<g>
			<g>
				<path class="st3" d="M1114.3,1333l4.8-4.8c-2.1-2.1-215.6-214-724.7-329.5l-1.5,6.6C900.1,1120.5,1112.3,1330.9,1114.3,1333z"/>
			</g>
		</g>
		<g>
			<g>
				<path class="st3" d="M836.1,1071.1c79.8-47.1,101.4-92.9,102.3-94.8l-6.2-2.8c-0.2,0.5-21.8,45.9-99.6,91.8L836.1,1071.1z"/>
			</g>
		</g>
		<g>
			<g>
				<path class="st3" d="M809.9,1140.3c25.7-29.6,33.7-78.1,23-140.3c-8-46.6-23.7-85-23.9-85.4l-6.3,2.6
					c0.6,1.5,61.2,150.7,2.1,218.6L809.9,1140.3z"/>
			</g>
		</g>
		<g>
			<g>
				<path class="st3" d="M677.6,1101.5c9.4-5.1,14.6-8.6,14.8-8.7l-3.8-5.6c-1.1,0.7-111.2,74.1-245.4,42.7l-1.5,6.6
					C549.9,1161.8,642.6,1120.5,677.6,1101.5z"/>
			</g>
		</g>
		<g>
			<g>
				<path class="st3" d="M580.2,1241.6c37.8-28.1,53.5-60.7,60.1-83.1c7.1-24.4,5.3-41.9,5.2-42.6l-6.7,0.7
					c0.1,0.7,6.6,68-62.6,119.5L580.2,1241.6z"/>
			</g>
		</g>
	</g>
</g>
<g>
	<g>
		<path class="st1" d="M1741.4,1003.9c0,0,355.5-38.8,371.5,72.2c16,111-248.9-34.5-351.8-19.4L1741.4,1003.9z"/>
	</g>
	<g>
		<g>
			<path class="st3" d="M1751.8,1031.2c39.3-6.5,107.1-9.7,207,12c59.7,13,103.2,28.9,103.6,29l-0.6,1.7
				c-0.4-0.2-43.8-16.1-103.4-29c-99.6-21.6-167.2-18.4-206.3-12L1751.8,1031.2z"/>
		</g>
	</g>
</g>
<g>
	<g>
		<path class="st4" d="M1762.9,982.8c0,0,381.6-280.9,473.7-164.3c92.1,116.6-308.3,126-416.1,211.6L1762.9,982.8z"/>
	</g>
	<g>
		<g>
			<path class="st5" d="M1792.9,1007.1c40.7-33.6,116.3-82.3,245.2-123.9c77.1-24.9,137.5-35.5,138.1-35.6l0.4,2.4
				c-0.6,0.1-60.9,10.7-137.8,35.6C1910.4,927,1835,975.6,1794.5,1009L1792.9,1007.1z"/>
		</g>
	</g>
</g>
<g>
	<g>
		<g>
			<path class="st1" d="M1870.2,1387.3c-61.1-30.1-115.2,55.7-163-6.2c-47.8-61.9-39.8-61.8-88.9-58.7c0,0-34,20.7-57.9,1.5
				c-74.9-60-2-103.9-22.2-202.4c-5.7-27.6-10.1-54.1-13.3-78.6c14.2-9.2,38.4-20,69-14.7c11.2,1.9,23.3,6.1,36,13.3
				c69,39.2,65.8,82.6,171.6,48.6c105.9-34,89.1,122,133.2,151.1c44.1,29.1,90.2,45.5,87.6,114.7
				C2019.9,1425.2,1931.3,1417.4,1870.2,1387.3z"/>
		</g>
	</g>
	<g class="st6">
		<g>
			<g>
				<path class="st3" d="M1544,1152.2l0.4-4.5c2,0.2,200.2,18,475.7,226.5l-2.7,3.6C1742.9,1170.1,1545.9,1152.4,1544,1152.2z"/>
			</g>
		</g>
		<g>
			<g>
				<path class="st3" d="M1795.2,1181.5c-10.2-60.4,3.8-90.9,4.4-92.2l4.1,1.9c-0.1,0.3-13.9,30.6-4,89.5L1795.2,1181.5z"/>
			</g>
		</g>
		<g>
			<g>
				<path class="st3" d="M1771.3,1224.2c4-25.6,25.2-50.3,61.2-71.4c27-15.8,53.2-24.2,53.4-24.3l1.4,4.3
					c-1,0.3-102.4,33.2-111.6,92.2L1771.3,1224.2z"/>
			</g>
		</g>
		<g>
			<g>
				<path class="st3" d="M1847.3,1274.7c-1.4-6.9-1.9-11.1-1.9-11.2l4.5-0.5c0.1,0.9,9.9,87.9,83,142.5l-2.7,3.6
					C1871.2,1365,1852.6,1300.5,1847.3,1274.7z"/>
			</g>
		</g>
		<g>
			<g>
				<path class="st3" d="M1817.9,1383.7c-1.9-31.1,7.9-53,16.5-65.8c9.3-14,18.9-20.5,19.4-20.8l2.5,3.7
					c-0.4,0.2-37.2,25.7-33.8,82.6L1817.9,1383.7z"/>
			</g>
		</g>
		<g>
			<g>
				<path class="st3" d="M1635.4,1296.9c-13.4-65.4,17-121.1,17.4-121.7l3.9,2.2c-0.4,0.7-38,69.6-9.7,143.3l-4.2,1.6
					C1639.5,1313.8,1637.1,1305.3,1635.4,1296.9z"/>
			</g>
		</g>
		<g>
			<g>
				<path class="st3" d="M1636.8,1229l1.6-4.2c23.6,8.8,57.9,33.4,87.5,101.1c17.6,40.3,25.3,77.4,25.4,77.7l-4.4,0.9
					C1746.6,1403.1,1716,1258.4,1636.8,1229z"/>
			</g>
		</g>
	</g>
</g>
<g>
	<g>
		<g>
			<path class="st4" d="M950.3,337.7c-8.2,5.2-12.3,4.1-14.3,0.9c-2-3.2-1.2-7.4,7-12.5c14.9-9.4,25.8-8.1,25.8-8.1
				S965.5,328.1,950.3,337.7z"/>
		</g>
	</g>
	<g>
		<g>
			<path class="st4" d="M928.2,416.9c-6.9,1.8-9.5,0.1-10.2-2.6c-0.7-2.7,0.8-5.4,7.6-7.2c12.5-3.2,19.8,0.1,19.8,0.1
				S940.8,413.6,928.2,416.9z"/>
		</g>
	</g>
	<g>
		<g>
			<g>
				<g>
					<path class="st4" d="M953.2,564l-1.8-0.1c0-0.3,1.4-28.7-9.4-70c-10-38.1-32.8-95.1-84.5-150.9l1.3-1.2
						c52,56,74.9,113.4,85,151.7C954.6,535.1,953.2,563.7,953.2,564z"/>
				</g>
			</g>
		</g>
		<g>
			<g>
				<g>
					<path class="st4" d="M910.2,412.6l-1.6-0.9c34.2-57.2,10.4-124.7,10.1-125.3l1.7-0.6C920.7,286.4,944.8,354.6,910.2,412.6z"/>
				</g>
			</g>
		</g>
		<g>
			<g>
				<g>
					<path class="st4" d="M881.6,383.7c-18.6,0.6-33-8.3-33.2-8.4l1-1.6c0.2,0.1,18.6,11.5,40.5,7.2l0.4,1.8
						C887.3,383.3,884.4,383.7,881.6,383.7z"/>
				</g>
			</g>
		</g>
		<g>
			<g>
				<g>
					<path class="st4" d="M948.8,522.8c-37.8-3.1-68.9-20.5-92.5-51.7c-0.8-1.1-1.6-2.1-1.8-2.3c0,0,0.1,0.1,0.2,0.1l0.5-1.8
						c0.5,0.2,0.9,0.6,2.6,2.8c23.2,30.8,53.9,48,91.2,51L948.8,522.8z"/>
				</g>
			</g>
		</g>
		<g>
			<g>
				<g>
					<path class="st4" d="M894.9,504.7l-1.8-0.4c5.7-24.2-11.4-59.1-11.6-59.4l1.6-0.8c0,0.1,4.5,9,8.1,20.8
						C894.6,475.9,898,491.7,894.9,504.7z"/>
				</g>
			</g>
		</g>
		<g>
			<g>
				<g>
					<path class="st4" d="M855.8,332.9c10,8.4,11,13.3,8.5,16.2c-2.5,2.9-7.4,2.7-17.4-5.7c-18.2-15.4-22.5-28.1-22.5-28.1
						S837.4,317.3,855.8,332.9z"/>
				</g>
			</g>
		</g>
		<g>
			<g>
				<g>
					<path class="st4" d="M853.2,369.3c12.1,5,14.5,9.4,13,12.9c-1.5,3.5-6.2,4.8-18.3-0.2c-22-9.2-29.9-20-29.9-20
						S830.9,359.9,853.2,369.3z"/>
				</g>
			</g>
		</g>
		<g>
			<g>
				<g>
					<path class="st4" d="M886.8,438.8c4.7,8.5,3.4,12.5,0.1,14.3c-3.3,1.8-7.4,0.8-12.1-7.7c-8.6-15.4-6.7-26.2-6.7-26.2
						S878.1,423.1,886.8,438.8z"/>
				</g>
			</g>
		</g>
		<g>
			<g>
				<g>
					<path class="st4" d="M899.4,353.9c2.5,9.4,0.3,12.9-3.4,13.9c-3.7,1-7.4-1-9.9-10.4c-4.6-17.1-0.1-27.1-0.1-27.1
						S894.8,336.6,899.4,353.9z"/>
				</g>
			</g>
		</g>
		<g>
			<g>
				<g>
					<path class="st4" d="M918.8,494.3c-0.2,9.7-3.4,12.5-7.2,12.4c-3.8-0.1-6.8-3-6.6-12.7c0.4-17.7,7.5-26,7.5-26
						S919.2,476.3,918.8,494.3z"/>
				</g>
			</g>
		</g>
		<g>
			<g>
				<g>
					<path class="st4" d="M864.5,469.2c6.4,7.3,6,11.5,3.2,14c-2.8,2.5-7.1,2.4-13.5-4.9C842.5,465,842,454.1,842,454.1
						S852.7,455.7,864.5,469.2z"/>
				</g>
			</g>
		</g>
		<g>
			<g>
				<g>
					<path class="st4" d="M924.1,278.2c3.4,12.6,1.5,17.2-2.2,18.2c-3.7,1-7.7-1.9-11.1-14.6c-6.3-23-2.7-35.9-2.7-35.9
						S917.7,254.9,924.1,278.2z"/>
				</g>
			</g>
		</g>
	</g>
</g>
<g>
	<path class="st7" d="M1361.4,678.3c0,0-185.7-275.1-439.7-206C610,557.2,696.4,904.5,758.2,1002.5c61.8,98.1,556,406.4,603.3,412
		C1408.7,1420.1,1361.4,678.3,1361.4,678.3z"/>
</g>
<g>
	<path class="st7" d="M1360.6,678.3c0,0,189-284.7,439.7-206c250.7,78.7,255.7,369.9,163.5,530.1c-107.3,186.5-556,406.4-603.2,412
		C1313.3,1420.1,1360.6,678.3,1360.6,678.3z"/>
</g>
<g>
	<g>
		<path class="st8" d="M1488,468.6c-16.3,7.1-23.4,4.1-26.2-2.2c-2.8-6.3-0.2-13.5,16-20.6c29.7-12.9,49.1-7.8,49.1-7.8
			S1518.2,455.5,1488,468.6z"/>
	</g>
	<g>
		<g>
			<path class="st8" d="M1425.9,604.8c-12.9,1.3-17.2-2.3-17.7-7.3c-0.5-5,2.9-9.4,15.9-10.8c23.6-2.4,35.9,5.5,35.9,5.5
				S1449.8,602.3,1425.9,604.8z"/>
		</g>
	</g>
	<g>
		<g>
			<g>
				<path class="st8" d="M1432.1,874.1l-3.3-0.7c0.1-0.5,10.3-51,1.8-127.6c-7.9-70.7-33.9-178.7-112.8-291.9l2.8-1.9
					c79.3,113.8,105.4,222.5,113.4,293.6C1442.5,822.7,1432.2,873.6,1432.1,874.1z"/>
			</g>
		</g>
	</g>
	<g>
		<g>
			<g>
				<path class="st8" d="M1394.9,592.1l-2.6-2.1c77.5-93.4,52.5-220.2,52.2-221.4l3.3-0.7C1448.1,369.2,1473.4,497.5,1394.9,592.1z"
					/>
			</g>
		</g>
	</g>
	<g>
		<g>
			<g>
				<path class="st8" d="M1350.8,533c-34-3.8-57.7-23.5-58-23.7l2.2-2.5c0.3,0.3,30.7,25.4,71.6,23.5l0.2,3.3
					C1361.3,533.8,1356,533.6,1350.8,533z"/>
			</g>
		</g>
	</g>
	<g>
		<g>
			<g>
				<path class="st8" d="M1435.2,799.2c-67.8-15.4-119.6-54.7-154-116.7c-1.2-2.1-2.3-4.2-2.7-4.6c0,0,0.1,0.1,0.3,0.2l1.4-3
					c0.9,0.4,1.4,1.3,3.9,5.8c33.9,61.1,84.9,99.9,151.8,115.1L1435.2,799.2z"/>
			</g>
		</g>
	</g>
	<g>
		<g>
			<g>
				<path class="st8" d="M1342.3,752.8l-3.1-1.2c17-41.8-4.7-108.6-5-109.3l3.2-1c0.1,0.2,5.7,17.3,9.1,39.4
					C1349.6,701.2,1351.4,730.3,1342.3,752.8z"/>
			</g>
		</g>
	</g>
	<g>
		<g>
			<g>
				<path class="st9" d="M1317.8,435.3c15.8,17.7,16.3,26.7,11.1,31.2c-5.2,4.5-14.2,3-30-14.8c-28.9-32.3-33.3-56.1-33.3-56.1
					S1288.5,402.6,1317.8,435.3z"/>
			</g>
		</g>
	</g>
	<g>
		<g>
			<g>
				<path class="st9" d="M1303.1,499.6c20.5,12.2,23.7,20.6,20.1,26.5c-3.6,5.9-12.6,7-33.2-5.2c-37.4-22.2-49-43.6-49-43.6
					S1265.1,477.1,1303.1,499.6z"/>
			</g>
		</g>
	</g>
	<g>
		<g>
			<g>
				<path class="st9" d="M1344.8,632.7c6.2,16.4,2.7,23.2-3.8,25.6c-6.5,2.4-13.7-0.5-19.9-17c-11.3-29.9-4.9-48.7-4.9-48.7
					S1333.3,602.3,1344.8,632.7z"/>
			</g>
		</g>
	</g>
	<g>
		<g>
			<g>
				<path class="st9" d="M1391.3,484.4c2,17.4-3,23.2-9.9,24c-6.9,0.8-13.2-3.7-15.2-21.1c-3.7-31.7,7.1-48.5,7.1-48.5
					S1387.5,452.2,1391.3,484.4z"/>
			</g>
		</g>
	</g>
	<g>
		<g>
			<g>
				<path class="st9" d="M1388.6,740.3c-3,17.3-9.5,21.5-16.4,20.3c-6.9-1.2-11.5-7.2-8.5-24.5c5.5-31.5,20.6-44.6,20.6-44.6
					S1394.2,708.4,1388.6,740.3z"/>
			</g>
		</g>
	</g>
	<g>
		<g>
			<g>
				<path class="st9" d="M1295.9,681c9.6,14.7,7.7,22.1,1.8,25.8c-5.9,3.7-13.5,2.4-23.1-12.4c-17.5-26.8-15.4-46.5-15.4-46.5
					S1278.1,653.7,1295.9,681z"/>
			</g>
		</g>
	</g>
	<g>
		<g>
			<g>
				<path class="st9" d="M1457.2,355.9c2.7,23.5-2.1,31.1-9,31.9c-6.9,0.8-13.4-5.5-16.1-29c-5-42.8,5.2-64.9,5.2-64.9
					S1452.1,312.5,1457.2,355.9z"/>
			</g>
		</g>
	</g>
	<g>
		<path class="st8" d="M1483.6,866.6c0,6.7-25,12.2-55.8,12.2c-30.8,0-55.8-5.5-55.8-12.2s25-12.2,55.8-12.2
			C1458.6,854.4,1483.6,859.9,1483.6,866.6z"/>
	</g>
</g>
<g>
	<g>
		<path class="st8" d="M1970.8,1466.4c-1.5,0-2.7-1.1-2.9-2.6l-66-542c-0.2-1.6,0.9-3.1,2.6-3.3c1.6-0.2,3.1,0.9,3.3,2.6l66,542
			c0.2,1.6-0.9,3.1-2.6,3.3C1971,1466.4,1970.9,1466.4,1970.8,1466.4z"/>
	</g>
	<g>
		<path class="st8" d="M2187.4,1398.5c-1.4,0-2.6-1-2.9-2.4l-94.8-474c-0.3-1.6,0.7-3.1,2.3-3.4c1.6-0.3,3.1,0.7,3.4,2.3l94.8,474
			c0.3,1.6-0.7,3.1-2.3,3.4C2187.8,1398.5,2187.6,1398.5,2187.4,1398.5z"/>
	</g>
	<g>
		<rect x="1913.4" y="988.8" class="st8" width="191.7" height="6.8"/>
	</g>
	<g>
		<rect x="1936.2" y="1176.2" class="st8" width="207.9" height="6.8"/>
	</g>
	<g>
		
			<rect x="1954.2" y="1313" transform="matrix(0.9978 -6.648079e-02 6.648079e-02 0.9978 -82.9509 140.0771)" class="st8" width="218.1" height="6.8"/>
	</g>
</g>
<g>
	<polygon class="st10" points="995.5,1315.4 1326.6,1307.3 1531.3,1315.4 1326.6,1332.4 	"/>
</g>
<g>
	<g>
		<path class="st8" d="M1017.1,1454.2c-0.1,0-0.2,0-0.4,0c-1.6-0.2-2.7-1.7-2.6-3.3l55-451.7c0.2-1.6,1.7-2.7,3.3-2.6
			c1.6,0.2,2.7,1.7,2.6,3.3l-55,451.7C1019.8,1453.2,1018.5,1454.2,1017.1,1454.2z"/>
	</g>
	<g>
		<path class="st8" d="M789.5,1476.6c-0.2,0-0.4,0-0.6-0.1c-1.6-0.3-2.6-1.9-2.3-3.4l94.8-474c0.3-1.6,1.9-2.6,3.4-2.3
			c1.6,0.3,2.6,1.9,2.3,3.4l-94.8,474C792.1,1475.7,790.9,1476.6,789.5,1476.6z"/>
	</g>
	<g>
		<rect x="871.8" y="1067" class="st8" width="191.7" height="6.8"/>
	</g>
	<g>
		<rect x="832.7" y="1254.3" class="st8" width="207.9" height="6.8"/>
	</g>
	<g>
		
			<rect x="910.3" y="1285.5" transform="matrix(6.649962e-02 -0.9978 0.9978 6.649962e-02 -538.562 2213.4438)" class="st8" width="6.8" height="218.1"/>
	</g>
</g>
<g>
	<path class="st10" d="M1963.3,959.9c0,0-0.3,11.2-7.8,14.3c-7.6,3.2-29.4,6-21.3,13.2c4.7,4.1,26.8,1.5,33.1,1.5
		c6.2,0,12.1,2.7,16.8-1.5c5.1-4.6,0-27.5,0-27.5s-5.4,2.8-10.2,2.7C1966.8,962.4,1963.3,959.9,1963.3,959.9z"/>
</g>
<g>
	<path class="st10" d="M2050.1,959.9c0,0-0.3,11.2-7.8,14.3c-7.6,3.1-29.4,6-21.3,13.2c4.7,4.1,26.8,1.5,33.1,1.5
		c6.2,0,12.1,2.7,16.8-1.5c5.1-4.6,0-27.5,0-27.5s-5.4,2.8-10.2,2.7C2053.6,962.4,2050.1,959.9,2050.1,959.9z"/>
</g>
<g>
	<path class="st11" d="M1907.2,653.9c0,0-1.4,46.7,13.5,136.4c10.8,64.7,23.5,130,29.7,161.2c2.2,11.2,11.6,19.4,22.8,19.8l6,0.2
		c12.1,0.5,21.8-9.9,21-22.2L1985,737.8l-3.7-69.6L1907.2,653.9z"/>
</g>
<g>
	<path class="st10" d="M2043.6,695c-0.7,5.7-32.9,5-72.2,0c-39.4-5-70-13.5-69.3-19.2c0.7-5.7,32.5-6.4,71.8-1.4
		C2013.3,679.4,2044.3,689.3,2043.6,695z"/>
</g>
<g>
	<path class="st11" d="M1952.4,687.2l84.1,270.1c3.5,11.3,13.7,19.1,25.3,19.2l5.1,0.1c11.9,0.2,21.1-10.8,18.9-22.8l-46-253.8
		c-0.7-3-2.9-5.4-5.8-6.3C2018.1,689.2,1950.8,676.1,1952.4,687.2z"/>
</g>
<g>
	<g>
		<g>
			<path class="st12" d="M2049,675.9l-19.1-22.1c0.3-0.2,37.8-23.8,34.2-57.5c-1.9-17.5-12.4-31.6-31.2-41.9
				c-15-8.2-29.7-10.8-29.9-10.8l4.5-28.7c0.8,0.1,19.4,3.3,38.8,13.8c27.3,14.9,43.2,37.2,46.1,64.5c2.3,22-5.4,44-22.3,63.4
				C2057.9,670.5,2058.5,671.3,2049,675.9z"/>
		</g>
	</g>
</g>
<g>
	<g>
		<path class="st12" d="M1900.1,582c-15.3,0-31.6-5.8-48.4-17.4c-12.7-8.7-21.1-17.7-21.5-18.1l20.6-20.1l-10.3,10l10.3-10.1
			c7.3,7.7,30.6,27.5,51,26.4c9.3-0.5,17.3-5.3,24.5-14.8l22.4,17.9c-12.2,16.1-28,25.1-45.5,26C1902.1,582,1901.1,582,1900.1,582z"
			/>
	</g>
</g>
<g>
	<path class="st9" d="M2030.5,539.5c0,0-11.2-31.5-51-30c-39.9,1.4-69.9,53.8-77.4,166.4c0,0,65.3-14.3,141.7,19.1
		C2043.7,694.9,2048,585.4,2030.5,539.5z"/>
</g>
<g>
	<path class="st9" d="M2061.8,532.8l-31.5,22.8c0,0-72.6,7.3-91.8,3.8c-19.3-3.5-24.6-19.1-24.6-19.1s20.5-23.4,55.4-29.6
		c3.3-0.6,6.7-1,10.2-1.3c5.9-0.4,11.8-0.2,17.6,0.4C2031.5,513.6,2061.8,532.8,2061.8,532.8z"/>
</g>
<g>
	<path class="st10" d="M2061.8,532.8c1.7,2.5-4,9.6-12.7,15.9c-8.7,6.3-17.2,9.4-18.9,6.9c-1.7-2.5,4-9.6,12.7-15.9
		C2051.6,533.5,2060.1,530.4,2061.8,532.8z"/>
</g>
<g>
	<path class="st12" d="M1867.9,556.9c0,0-8.6-24.4-17.1-30.4c-8.5-6-13.6,1.4-13.6,1.4l-8.8-2c0,0-8.7,37.8,18.7,36
		C1849.2,561.8,1867.9,556.9,1867.9,556.9z"/>
</g>
<g>
	<path class="st13" d="M2083.2,604c-1.4,0-2.8-0.8-3.8-2.3c-0.9-1.4-1.5-3.2-1.5-5.1c0-4.1,2.3-7.4,5.2-7.4s5.2,3.3,5.2,7.4
		C2088.5,600.7,2086.1,604,2083.2,604L2083.2,604z M2083.2,590.6c-2.1,0-3.9,2.7-3.9,6c0,1.6,0.4,3.2,1.2,4.3
		c0.7,1.1,1.7,1.7,2.6,1.7c0,0,0,0,0,0c2.1,0,3.9-2.7,3.9-6C2087.1,593.4,2085.3,590.6,2083.2,590.6z"/>
</g>
<g>
	<path class="st12" d="M1997,509.8c-4.3-0.5-8-3.1-9.7-7.1l-5.3-12.3l-1.5-3.6l-9.1-21.1l1.6,21.8l0.9,13.1l0.3,3.7
		c0.2,3-1.9,5.7-4.9,6.3l-0.1,0c-1.6,2.6-3.8,8,2.8,10.1C1979.9,523.3,1992.5,517.1,1997,509.8C1997,509.8,1997,509.8,1997,509.8z"
		/>
</g>
<g>
	<path class="st12" d="M2045.3,644c0,0-11.8-10.8-21.1-9.9s-20.5,9.2-14.6,9.9c5.9,0.6,13.7-0.6,13.7-0.6s-16.5,3.5-14,7
		c2.5,3.5,16.8,0.3,16.8,0.3s-19.3,5.7-15.8,8.3c3.4,2.5,18-1.9,18-1.9s-17.7,6-13.7,8.9c4,2.9,14.6-5.1,17.1-1.6
		c2.5,3.5,7.1,17.2,17.7,11.4L2045.3,644z"/>
</g>
<g>
	<path class="st14" d="M1990,808l-18.1-55c-4.1-12.4-12.4-22.7-23.5-29l0.7-1.2c11.4,6.5,20,17.1,24.2,29.8l18.1,55L1990,808z"/>
</g>
<g>
	<path class="st12" d="M2036,556.1c0,0-1.7-5.2,6.2-11.1c7.9-5.8,18.2-7.2,18.2-7.2l2.1,10l-11.2,4.9L2036,556.1z"/>
</g>
<g>
	<path class="st3" d="M1996.1,462.2c0,0-0.8,3.6,1.2,10.9c3,10.7-9.3,15.2-12.4,12.2c-0.4-0.4,0.1-18.6,0.1-18.6l3.9-2.3
		L1996.1,462.2z"/>
</g>
<g>
	<path class="st10" d="M1982,490.1c0,0.1,0,0.2,0,0.4c-0.5,7-8,10.3-8,10.3l0,0l-0.9-13.1c2.3-0.8,5.6-1.7,7.5-0.8
		C1981.5,487.3,1982.1,488.3,1982,490.1z"/>
</g>
<g>
	<path class="st12" d="M1949.9,469.3c0-14,9.2-25.3,20.5-25.3c11.3,0,20.5,11.3,20.5,25.3c0,14-9.2,25.3-20.5,25.3
		C1959.1,494.6,1949.9,483.2,1949.9,469.3z"/>
</g>
<g>
	<path class="st3" d="M1962.3,449.9c0.6,0.8-2.7,13.8,21.4,16.9c24.1,3.1,9.6-26.1-8.2-26.8c-25.7-1-29.4,16.3-26.9,22.5
		C1951.1,468.7,1962.3,449.9,1962.3,449.9z"/>
</g>
<g>
	<path class="st3" d="M1999.5,433.9c0,0-10.8,7.2-2.5,14.1c8.3,6.8,31.2,9.8,25,21.3c-6.2,11.5-11.7,28.5-0.4,30.7
		c11.2,2.1,18.3,1.3,22.9,10.2c4.6,8.9,25,3.4,23.3-7.2c-1.7-10.7,15.8-20,8.3-29.8c-7.5-9.8-25.8-18.3-30.4-31.1
		C2041.1,429.2,2008.2,428.3,1999.5,433.9z"/>
</g>
<g>
	<path class="st3" d="M1981.1,462.6c0,0,9.8,10.4,6.4,21c0,0,5.7-6.2,5.8-8.6c0.1-2.3-1.4-10.7-1.4-10.7L1981.1,462.6z"/>
</g>
<g>
	<path class="st12" d="M1988.2,473.1c-2.3,2.2-5.6,2.4-7.3,0.5c-1.7-1.9-1.2-5.3,1.2-7.5c2.3-2.2,5.6-2.4,7.3-0.5
		C1991,467.5,1990.5,470.9,1988.2,473.1z"/>
</g>
<g>
	<path class="st15" d="M2062.7,513.6c-0.1,0-0.1,0-0.2,0c-2.9-1.1-4.6-2.5-5.3-4.3c-1-2.7,0.7-5.7,2.5-8.9c1.6-2.8,3.2-5.6,2.8-8.2
		c-0.5-3-4.4-3.7-8.7-4.5c-3.6-0.6-7.2-1.3-8.7-3.6c-0.7-1.1-0.8-2.5-0.4-4.1c0.5-1.8,1-3.4,1.6-5c2.4-6.7,4.2-11.9-6.2-24
		c-13.4-15.5-24.5-16.2-34.6-14.7c-1.2,0.2-4.1,1.7-4.1,3.1c0,0.7,1,2.5,9.7,3.5c0.2,0,12.3,2.9,18.2,16c3.1,7-1.3,14.5-4.9,20.5
		c-2.4,4-4.5,7.5-3.8,9.9c0.2,0.8,0.8,1.5,1.8,2.1c2.4,1.3,5.2,2.1,7.8,2.8c6.8,1.8,13.8,3.7,14.7,15.9c0,0.3-0.2,0.5-0.5,0.5
		c-0.2,0-0.5-0.2-0.5-0.5c-0.8-11.5-7.2-13.2-14-15.1c-2.7-0.7-5.5-1.5-8-2.9c-1.2-0.7-2-1.6-2.3-2.7c-0.8-2.7,1.4-6.4,3.9-10.6
		c3.6-6.1,7.7-13.1,4.8-19.6c-5.7-12.7-17.4-15.4-17.5-15.4c-7-0.9-10.4-2.3-10.5-4.5c0-2.2,3.7-3.8,5-4
		c10.3-1.5,21.7-0.8,35.4,15.1c10.8,12.5,8.9,18,6.4,25c-0.5,1.5-1.1,3.1-1.6,4.9c-0.4,1.4-0.3,2.5,0.3,3.3c1.2,1.9,4.7,2.5,8,3.1
		c4.4,0.8,8.9,1.6,9.5,5.3c0.4,2.9-1.3,5.9-2.9,8.8c-1.7,3-3.2,5.8-2.4,8.1c0.5,1.5,2.1,2.7,4.7,3.7c0.3,0.1,0.4,0.4,0.3,0.6
		C2063.1,513.5,2062.9,513.6,2062.7,513.6z"/>
</g>
<g>
	<path class="st15" d="M1983.9,459.1C1983.9,459.1,1983.9,459.1,1983.9,459.1c-9.3-0.2-13.9-7.5-14.1-7.8c-0.1-0.2-0.1-0.5,0.2-0.7
		s0.5-0.1,0.7,0.2c0,0.1,4.5,7.2,13.3,7.3c0.3,0,0.5,0.2,0.5,0.5C1984.4,458.9,1984.2,459.1,1983.9,459.1z"/>
</g>
<g>
	<path class="st16" d="M2023.3,643.7l-0.2-0.6c0.2-0.1,4.7-1.7,7.2,0l-0.4,0.6C2027.7,642.1,2023.4,643.7,2023.3,643.7z"/>
</g>
<g>
	<path class="st16" d="M2026.2,651l-0.3-0.6c0.2-0.1,4.6-1.8,8.5,0l-0.3,0.6C2030.4,649.3,2026.2,651,2026.2,651z"/>
</g>
<g>
	<path class="st16" d="M2028.3,657.4l-0.2-0.6c0.2-0.1,5.6-2.1,8.1,0.1l-0.4,0.5C2033.5,655.4,2028.4,657.3,2028.3,657.4z"/>
</g>
<g>
	<path class="st11" d="M1907.9,680.9c0,0,18.3-2.5,45.8-0.5c42.6,3.1,78.7,13,78.7,13l-13.5,2.3l-84.6,3.4l-17-14L1907.9,680.9z"/>
</g>
<g>
	<path class="st17" d="M1959.1,485.6c0,0,7,0.2,14-2.3c0,0,0.6,6.9-7,7.4C1961.7,491,1959.1,485.6,1959.1,485.6z"/>
</g>
<g>
	<path class="st15" d="M1959.1,485.6c0,0,1.7,1.4,5.6,1.4c4,0,8.4-3.7,8.4-3.7S1964.7,485.7,1959.1,485.6z"/>
</g>
<g>
	<g>
		<path class="st18" d="M1968.4,469.5c-0.1,0-0.3-0.1-0.3-0.3c-0.1-0.2,0-0.5,0.3-0.6c0.1-0.1,3.3-1.7,6,1.3c0.2,0.2,0.2,0.5,0,0.7
			c-0.2,0.2-0.4,0.1-0.7,0c-2.1-1.4-4.9-1.2-5-1.1C1968.6,469.5,1968.5,469.5,1968.4,469.5z"/>
	</g>
</g>
<g>
	<path class="st18" d="M1972.1,474.6c0,1.1-0.6,2-1.4,2.1c-0.8,0-1.5-0.9-1.5-2c0-1.1,0.6-2,1.4-2.1S1972.1,473.5,1972.1,474.6z"/>
</g>
<g>
	<g>
		<path class="st18" d="M1951.8,472c-0.1,0-0.3,0-0.4-0.1c-0.2-0.2-0.2-0.5,0-0.7c0.1-0.1,2.4-2.8,6.1-1.1c0.2,0.1,0.3,0.4,0.2,0.6
			c-0.1,0.2-0.4,0.3-0.6,0.2c-2.5-0.5-5,0.8-5.1,0.9C1952,471.9,1951.9,471.9,1951.8,472z"/>
	</g>
</g>
<g>
	<path class="st18" d="M1957.2,475.3c0.5,1,0.2,2.1-0.5,2.4c-0.7,0.3-1.7-0.2-2.2-1.2c-0.5-1-0.2-2.1,0.5-2.4
		C1955.7,473.7,1956.7,474.3,1957.2,475.3z"/>
</g>
<g>
	<g>
		<path class="st19" d="M1830.4,588.6l-5.1-4.5c6.7-7.6,15.5-27.6,14.4-43c-0.4-6.1-2.4-10.6-5.8-13.4c-11.2-9.4-35.9,3.1-44.4,8.8
			l-3.8-5.7c1.4-1,35.3-23,52.6-8.3c4.8,4.1,7.6,10.2,8.2,18.2C1847.8,558.5,1837.8,580.3,1830.4,588.6z"/>
	</g>
</g>
<g>
	<path class="st12" d="M1824.4,533.9c-1,0-2-0.4-2.8-1.1c-1.6-1.6-1.7-4.2-0.2-5.9l6.8-7.5c1.5-1.7,4.1-1.8,5.8-0.2
		c1.6,1.6,1.7,4.2,0.2,5.9l-6.8,7.5C1826.6,533.4,1825.5,533.9,1824.4,533.9z"/>
</g>
<g>
	<path class="st12" d="M1827,540.8c-1,0-2-0.4-2.8-1.1c-1.6-1.6-1.7-4.2-0.2-5.9l6.8-7.5c1.5-1.7,4.1-1.8,5.8-0.2
		c1.6,1.6,1.7,4.2,0.2,5.9l-6.8,7.5C1829.2,540.3,1828.1,540.8,1827,540.8z"/>
</g>
<g>
	<path class="st12" d="M1829.8,547.1c-1,0-2-0.4-2.8-1.1c-1.6-1.6-1.7-4.2-0.2-5.9l6.8-7.5c1.5-1.7,4.1-1.8,5.8-0.2
		c1.6,1.6,1.7,4.2,0.2,5.9l-6.8,7.5C1832,546.7,1830.9,547.1,1829.8,547.1z"/>
</g>
<g>
	<path class="st12" d="M1834.1,551.3c-0.6,0-1.2-0.2-1.8-0.7c-1.1-1-1.3-2.7-0.3-3.9l6.2-7.5c1-1.2,2.7-1.3,3.8-0.3
		c1.1,1,1.3,2.7,0.3,3.9l-6.2,7.5C1835.6,551,1834.9,551.3,1834.1,551.3z"/>
</g>
<g>
	<g>
		<path class="st19" d="M1680.9,530.6l37.9,122.6c3.9,12.5,18.2,19,32.6,14.8l81.5-23.4c13.4-3.9,20.7-17.8,14.8-28.4l-64-115.7
			L1680.9,530.6z"/>
	</g>
	<g>
		<path class="st19" d="M1516.3,605c7.5,2.3,199.6,9.1,199.6,9.1l-15.6-53.2l-155.2,18.8L1516.3,605z"/>
	</g>
	<g>
		<path class="st19" d="M1561.5,596.5c2,23.6-8.2,44.6-22.8,47.1c-14.6,2.4-28-14.7-30-38.3c-2-23.6,8.2-44.6,22.8-47.1
			C1546.1,555.8,1559.5,573,1561.5,596.5z"/>
	</g>
	<g>
		<path class="st19" d="M1778.8,496.8c4,8.9-13.8,25.6-39.7,37.3c-25.9,11.7-50.2,14-54.2,5.2c-4-8.9,13.8-25.6,39.7-37.3
			C1750.5,490.3,1774.7,488,1778.8,496.8z"/>
	</g>
	<g>
		<path class="st19" d="M1735.2,495.8c1.1,2.4-0.3,5.3-3,6.5c-2.7,1.2-5.8,0.3-6.9-2c-1.1-2.4,0.3-5.3,3-6.5
			C1731,492.5,1734.1,493.4,1735.2,495.8z"/>
	</g>
	<g>
		<path class="st19" d="M1784.2,501.9l-103.7,36.6c-2.3,0.8-4.7-0.2-5.4-2.2l0,0c-0.6-2,0.7-4.3,3-5.1l103.7-36.6
			c2.3-0.8,4.7,0.2,5.4,2.2l0,0C1787.9,498.8,1786.5,501.1,1784.2,501.9z"/>
	</g>
	<g>
		<path class="st20" d="M1531.5,570.3c0.1,1.2-0.4,2.2-1.1,2.3c-0.7,0.1-1.4-0.7-1.5-1.9c-0.1-1.2,0.4-2.2,1.1-2.3
			C1530.8,568.3,1531.4,569.2,1531.5,570.3z"/>
	</g>
	<g>
		<path class="st20" d="M1539.1,633.7c0.1,1.2-0.4,2.2-1.1,2.3c-0.7,0.1-1.4-0.7-1.5-1.9c-0.1-1.2,0.4-2.2,1.1-2.3
			C1538.4,631.7,1539,632.5,1539.1,633.7z"/>
	</g>
	<g>
		<path class="st20" d="M1553,597.8c0.1,1.2-0.4,2.2-1.1,2.3c-0.7,0.1-1.4-0.7-1.5-1.9c-0.1-1.2,0.4-2.2,1.1-2.3
			C1552.3,595.8,1552.9,596.6,1553,597.8z"/>
	</g>
	<g>
		<path class="st20" d="M1516.5,602.5c0.1,1.2-0.4,2.2-1.1,2.3c-0.7,0.1-1.4-0.7-1.5-1.9c-0.1-1.2,0.4-2.2,1.1-2.3
			C1515.8,600.5,1516.4,601.4,1516.5,602.5z"/>
	</g>
	<g>
		<path class="st20" d="M1525,590.8c0.1,1.2-0.4,2.2-1.1,2.3c-0.7,0.1-1.4-0.7-1.5-1.9c-0.1-1.2,0.4-2.2,1.1-2.3
			C1524.2,588.8,1524.9,589.6,1525,590.8z"/>
	</g>
	<g>
		<path class="st20" d="M1542.1,588.1c0.1,1.2-0.4,2.2-1.1,2.3c-0.7,0.1-1.4-0.7-1.5-1.9c-0.1-1.2,0.4-2.2,1.1-2.3
			C1541.4,586.1,1542,587,1542.1,588.1z"/>
	</g>
	<g>
		<path class="st20" d="M1545.6,616.3c0.1,1.2-0.4,2.2-1.1,2.3c-0.7,0.1-1.4-0.7-1.5-1.9c-0.1-1.2,0.4-2.2,1.1-2.3
			S1545.5,615.1,1545.6,616.3z"/>
	</g>
	<g>
		<path class="st20" d="M1524,622.6c0.1,1.2-0.4,2.2-1.1,2.3c-0.7,0.1-1.4-0.7-1.5-1.9c-0.1-1.2,0.4-2.2,1.1-2.3
			C1523.2,620.6,1523.9,621.4,1524,622.6z"/>
	</g>
	<g>
		<path class="st20" d="M1533.7,606.5c0.1,1.2-0.4,2.2-1.1,2.3c-0.7,0.1-1.4-0.7-1.5-1.9c-0.1-1.2,0.4-2.2,1.1-2.3
			C1532.9,604.5,1533.6,605.4,1533.7,606.5z"/>
	</g>
	<g>
		<path class="st20" d="M1561.6,605.5C1561.6,605.5,1561.6,605.5,1561.6,605.5c-0.2,0-0.4-0.2-0.4-0.4c0-0.1,1.6-13.9-2.7-22
			c-0.1-0.2,0-0.4,0.2-0.5c0.2-0.1,0.4,0,0.5,0.2c4.4,8.3,2.9,21.8,2.8,22.4C1562,605.4,1561.8,605.5,1561.6,605.5z"/>
	</g>
	<g>
		<path class="st20" d="M1713,614.9c-3.4,0-6.2-0.7-6.4-0.7c-0.2,0-0.3-0.2-0.3-0.4c0-0.2,0.2-0.3,0.4-0.3c0.1,0,9,2.1,14-1.1
			c1.7-1.1,2.8-2.7,3.2-4.7c2-9.5-27.2-41.6-27.5-41.9c-0.1-0.1-0.1-0.4,0-0.5c0.1-0.1,0.4-0.1,0.5,0c1.2,1.3,29.7,32.6,27.7,42.5
			c-0.5,2.2-1.6,4-3.5,5.2C1718.8,614.5,1715.7,614.9,1713,614.9z"/>
	</g>
	<g>
		<path class="st20" d="M1680.5,538.9c-0.2,0-0.3-0.1-0.4-0.3c0-0.2,0.1-0.4,0.3-0.4c0.4-0.1,38.3-5.3,85.6-25.8
			c0.2-0.1,0.4,0,0.5,0.2c0.1,0.2,0,0.4-0.2,0.5C1718.9,533.6,1680.9,538.8,1680.5,538.9C1680.5,538.9,1680.5,538.9,1680.5,538.9z"
			/>
	</g>
</g>
<g>
	
		<rect x="1920.9" y="546.8" transform="matrix(0.4723 -0.8814 0.8814 0.4723 536.4773 1990.7344)" class="st10" width="19.9" height="1"/>
</g>
<g>
	<path class="st10" d="M693,1476c0,0,0.3,11.8,8.2,15.1c8,3.3,31,6.3,22.4,13.9c-4.9,4.3-28.2,1.5-34.8,1.5
		c-6.6,0-12.8,2.9-17.6-1.5c-5.4-4.8,0-28.9,0-28.9s5.7,3,10.8,2.8C689.3,1478.7,693,1476,693,1476z"/>
</g>
<g>
	<path class="st10" d="M601.6,1476c0,0,0.3,11.8,8.2,15.1c8,3.3,31,6.3,22.4,13.9c-4.9,4.3-28.2,1.5-34.8,1.5
		c-6.6,0-12.8,2.9-17.6-1.5c-5.4-4.8,0-28.9,0-28.9s5.7,3,10.8,2.8C598,1478.7,601.6,1476,601.6,1476z"/>
</g>
<g>
	<path class="st11" d="M752.1,1153.8c0,0,1.5,49.2-14.2,143.6c-11.3,68.2-24.7,136.8-31.3,169.7c-2.3,11.8-12.3,20.4-24,20.9
		l-6.3,0.3c-12.7,0.5-23-10.4-22.1-23.4l15.9-222.7l3.9-73.3L752.1,1153.8z"/>
</g>
<g>
	<path class="st10" d="M608.4,1197.1c0.7,6,34.6,5.3,76.1,0c41.5-5.2,73.7-14.2,73-20.2c-0.7-6-34.2-6.7-75.6-1.5
		C640.4,1180.6,607.7,1191.1,608.4,1197.1z"/>
</g>
<g>
	<path class="st11" d="M704.5,1188.9L616,1473.3c-3.7,11.9-14.4,20.1-26.6,20.3l-5.3,0.1c-12.6,0.2-22.2-11.4-19.9-24l48.4-267.2
		c0.7-3.2,3-5.7,6.1-6.6C635.3,1191,706.1,1177.2,704.5,1188.9z"/>
</g>
<g>
	<path class="st9" d="M622.3,1033.3c0,0,11.8-33.1,53.7-31.6c42,1.5,73.6,56.6,81.5,175.2c0,0-68.7-15.1-149.2,20.1
		C608.3,1196.9,603.9,1081.6,622.3,1033.3z"/>
</g>
<g>
	<path class="st9" d="M592.8,1031.4l29.7,19c0,0,76.4,7.6,96.7,4c20.3-3.7,23.4-18.6,23.4-18.6s-19.3-26.5-56-33
		c-3.5-0.6-6.9-0.7-10.6-1c-6.2-0.4-12.5-0.3-18.6,0.4C621.2,1006,592.8,1031.4,592.8,1031.4z"/>
</g>
<g>
	<path class="st14" d="M664.9,1316l-1.4-0.5l19-57.9c4.4-13.4,13.4-24.5,25.5-31.4l0.7,1.3c-11.7,6.7-20.5,17.6-24.8,30.6
		L664.9,1316z"/>
</g>
<g>
	<g>
		<path class="st21" d="M704.8,994.3l-0.1-0.5c0.1,0,5.4-1.3,6.9-5c0.8-1.9,0.4-4.1-1.1-6.6c-0.7-1.2-1.4-2.2-2-3.2
			c-4.2-6.6-5.7-9.1-4.6-14.6l0.5,0.1c-1.1,5.2,0.3,7.5,4.5,14.2c0.6,1,1.3,2,2,3.2c1.6,2.6,2,5,1.1,7
			C710.4,993,705,994.3,704.8,994.3z"/>
	</g>
	<g>
		<path class="st21" d="M704.2,964.6c0,0-1.9,8.4,3.7,17.2c5.6,8.8-0.5,15.2-8,11.9c-7.6-3.4-10.4,6.2-20.1,0.9
			C670.1,989.3,704.2,964.6,704.2,964.6z"/>
	</g>
	<g>
		<path class="st12" d="M659.5,1001.8c4.2-0.4,7.8-3.1,9.5-6.9l5.2-12.1l1.5-3.5l8.9-20.6l-1.5,21.4l-0.9,12.8l-0.3,3.7
			c-0.2,3,1.9,5.6,4.8,6.1l0.1,0c1.6,2.6,3.8,7.8-2.8,9.9C676.3,1015,663.9,1009,659.5,1001.8
			C659.5,1001.8,659.5,1001.8,659.5,1001.8z"/>
	</g>
	<g>
		<path class="st10" d="M674.2,982.5c0,0.1,0,0.2,0,0.4c0.5,6.9,7.9,10.1,7.9,10.1l0,0l0.9-12.8c-2.3-0.8-5.5-1.7-7.3-0.7
			C674.7,979.8,674.1,980.8,674.2,982.5z"/>
	</g>
	<g>
		<path class="st12" d="M705.6,962.1c0-13.7-9-24.8-20.1-24.8c-11.1,0-20.1,11.1-20.1,24.8c0,13.7,9,24.8,20.1,24.8
			C696.6,986.9,705.6,975.8,705.6,962.1z"/>
	</g>
	<g>
		<path class="st12" d="M668.2,965.9c2.3,2.2,5.5,2.4,7.1,0.5c1.6-1.9,1.1-5.2-1.1-7.4c-2.3-2.2-5.5-2.4-7.1-0.5
			C665.4,960.4,665.9,963.7,668.2,965.9z"/>
	</g>
	<g>
		<path class="st17" d="M696.4,978.2c0,0-6.9,0.2-13.7-2.2c0,0-0.6,6.8,6.9,7.2C693.8,983.4,696.4,978.2,696.4,978.2z"/>
	</g>
	<g>
		<path class="st15" d="M696.4,978.2c0,0-1.7,1.4-5.5,1.4s-8.2-3.6-8.2-3.6S690.9,978.2,696.4,978.2z"/>
	</g>
	<g>
		<g>
			<path class="st18" d="M687.5,962.4c0.1,0,0.2-0.1,0.3-0.3c0.1-0.2,0-0.5-0.3-0.6c-0.1-0.1-3.2-1.6-5.9,1.3
				c-0.2,0.2-0.2,0.5,0,0.6c0.2,0.2,0.4,0.1,0.6,0c2.1-1.4,4.8-1.1,4.9-1.1C687.3,962.4,687.4,962.4,687.5,962.4z"/>
		</g>
	</g>
	<g>
		<path class="st18" d="M683.9,967.4c0,1.1,0.6,2,1.4,2c0.8,0,1.5-0.8,1.5-1.9c0-1.1-0.6-2-1.4-2
			C684.6,965.5,683.9,966.3,683.9,967.4z"/>
	</g>
	<g>
		<g>
			<path class="st18" d="M703.8,964.8c0.1,0,0.3,0,0.4-0.1c0.2-0.2,0.2-0.5,0-0.6c-0.1-0.1-2.3-2.7-6-1c-0.2,0.1-0.3,0.4-0.2,0.6
				c0.1,0.2,0.4,0.3,0.6,0.2c2.5-0.5,4.9,0.8,5,0.9C703.6,964.7,703.7,964.8,703.8,964.8z"/>
		</g>
	</g>
	<g>
		<path class="st18" d="M698.5,968c-0.4,1-0.2,2.1,0.5,2.4c0.7,0.3,1.7-0.2,2.1-1.2c0.4-1,0.2-2.1-0.5-2.4
			C699.9,966.5,699,967,698.5,968z"/>
	</g>
	<g>
		<path class="st21" d="M694.1,941.9c0,0-0.4,8.6-11.2,10.1c-10.7,1.5-18.1,6-16.7,13.7c1.4,7.7,18.7,23.8,6,30
			c-12.7,6.2-10-5.4-23.8-2.7c-13.8,2.7-16.3-15.7-6.8-26.4c9.5-10.7,5.6-38.9,41.2-37.7c35.6,1.3,22.5,29.6,22.5,29.6
			S694,951.4,694.1,941.9z"/>
	</g>
	<g>
		<path class="st15" d="M668.6,997.2l-0.1-0.3c2.6-1.1,4.2-2.6,4.7-4.6c1.5-5.6-5.1-14.3-11-21.9c-1.6-2-3-3.9-4.3-5.8
			c-3.6-5.1-4-11.1-0.8-15.8c3.5-5.2,10.1-7.4,17.2-5.7c13.2,3.1,18.7-4.9,18.8-5l0.2,0.2c-0.1,0.1-5.7,8.2-19.1,5.1
			c-7-1.6-13.5,0.5-16.9,5.6c-3.1,4.6-2.8,10.4,0.8,15.5c1.3,1.8,2.8,3.7,4.3,5.8c5.9,7.7,12.6,16.4,11.1,22.1
			C672.9,994.5,671.3,996.1,668.6,997.2z"/>
	</g>
	<g>
		<g>
			<path class="st19" d="M702.4,981c-1.1,0-2.1-0.3-3.1-0.9c-4.3-2.7-5.9-10.8-3.6-18.1l0,0c1.4-4.5,4.1-7.8,7.1-8.9
				c1.8-0.7,3.6-0.5,5.2,0.5c4.3,2.7,5.9,10.8,3.6,18c-1.4,4.5-4.1,7.8-7.1,8.9C703.8,980.9,703.1,981,702.4,981z M696.5,962.3
				c-2.2,6.9-0.7,14.5,3.3,17c1.3,0.8,2.9,1,4.4,0.4c2.8-1,5.2-4.1,6.5-8.3c2.2-6.9,0.7-14.5-3.2-17c-1.4-0.8-2.9-1-4.4-0.4
				C700.3,955,697.9,958.1,696.5,962.3L696.5,962.3z"/>
		</g>
	</g>
	<g class="st22">
		<path class="st15" d="M672.5,957.3c-1.6,7.1,1,14.7,5.7,17c4.8,2.3,10-1.6,11.6-8.6c1.6-7.1-1-14.7-5.7-17
			C679.3,946.4,674.1,950.2,672.5,957.3z"/>
	</g>
	<g class="st22">
		<path class="st15" d="M695.5,962.6c-1.6,7.1,0.5,14.8,4.8,17.2c4.3,2.4,9-1.4,10.6-8.5c1.6-7.1-0.5-14.8-4.8-17.2
			C701.9,951.7,697.1,955.5,695.5,962.6z"/>
	</g>
	<g>
		<g>
			<path class="st19" d="M681.6,975.1c-1.1,0-2.2-0.2-3.2-0.7c-5.3-2.5-8.1-10.6-6.4-18.2l0,0c1-4.4,3.4-7.8,6.4-9.3
				c2.1-1,4.4-1,6.5-0.1c5.3,2.5,8.1,10.6,6.4,18.2c-1,4.4-3.4,7.8-6.5,9.3C683.8,974.9,682.7,975.1,681.6,975.1z M681.8,947
				c-1,0-2,0.2-2.9,0.7c-2.8,1.4-5,4.6-6,8.7l0,0c-1.7,7.2,1,14.9,5.9,17.2c1.9,0.9,3.9,0.8,5.7,0c2.8-1.4,5-4.6,6-8.7
				c1.7-7.2-1-14.9-5.9-17.2C683.7,947.3,682.7,947,681.8,947z"/>
		</g>
	</g>
	<g>
		<g>
			<path class="st19" d="M696.4,965.3c-0.2,0-0.4-0.1-0.5-0.2l0,0c-0.1-0.1-2.3-1.8-6-1.1c-0.4,0.1-0.9-0.2-1-0.7
				c-0.1-0.5,0.2-0.9,0.7-1c4.5-0.9,7.2,1.3,7.4,1.4c0.3,0.3,0.4,0.8,0.1,1.2C696.9,965.2,696.7,965.3,696.4,965.3z"/>
		</g>
	</g>
</g>
<g>
	<g>
		<path class="st21" d="M662.7,1091.4c0.5-33.8,27.5-60.8,60.4-60.4c32.9,0.5,59.1,28.3,58.6,62.1c-0.5,33.8-27.5,60.8-60.4,60.4
			C688.5,1152.9,662.2,1125.2,662.7,1091.4z"/>
	</g>
	<g>
		<g>
			<path class="st15" d="M718.4,1139.1l0.2-11.9c-11.4-2.1-17.4-10.7-17.3-19.7c0.1-10.2,6-16.1,17.5-20.7c9.7-4,13.9-6.9,14-12.8
				c0.1-4.6-3.1-9.9-11.7-10c-7.1-0.1-11.7,2.4-14.1,3.7l-2.7-7.6c3.3-1.9,7.8-3.7,14.5-3.8l0.2-11.1l6.9,0.1l-0.2,11.6
				c10.2,1.9,16.7,9.2,16.5,18.7c-0.1,10-7.2,15.1-18.6,19.5c-8.3,3.3-12.7,7.1-12.8,13.4c-0.1,6.5,5.2,11.3,13.1,11.4
				c6.2,0.1,12-2,16.1-4.7l2.6,7.7c-3.9,2.8-10.6,4.8-17.1,4.8l-0.2,11.6L718.4,1139.1z"/>
		</g>
	</g>
</g>
<g>
	<g>
		<path class="st12" d="M777.5,1056.4c0.6-0.9,0.9-1.9,0.7-3.1c-0.4-2.4-2.6-4-4.9-3.7l-10.6,1.3c-2.4,0.3-4,2.5-3.7,4.8
			c0.4,2.4,2.6,4,4.9,3.7l10.6-1.3C775.8,1058,776.8,1057.3,777.5,1056.4z"/>
	</g>
	<g>
		<path class="st12" d="M776.4,1066.7c0.6-0.9,0.9-1.9,0.7-3.1c-0.4-2.4-2.6-4-4.9-3.7l-10.6,1.3c-2.4,0.3-4,2.5-3.7,4.8
			c0.4,2.4,2.6,4,4.9,3.7l10.6-1.3C774.7,1068.3,775.8,1067.6,776.4,1066.7z"/>
	</g>
	<g>
		<path class="st12" d="M780.2,1072.9c0.6-0.9,0.9-1.9,0.7-3.1c-0.4-2.4-2.6-4-4.9-3.7l-10.6,1.3c-2.4,0.3-4,2.5-3.7,4.8
			c0.4,2.4,2.6,4,4.9,3.7l10.6-1.3C778.5,1074.5,779.6,1073.8,780.2,1072.9z"/>
	</g>
	<g>
		<path class="st12" d="M781.2,1079.1c0.4-0.5,0.6-1.2,0.5-1.9c-0.2-1.6-1.6-2.8-3.2-2.6l-10.3,0.8c-1.6,0.1-2.8,1.5-2.6,3.1
			c0.2,1.6,1.6,2.8,3.2,2.6l10.3-0.8C780,1080.2,780.7,1079.8,781.2,1079.1z"/>
	</g>
</g>
<g>
	<g>
		<g>
			<path class="st12" d="M654.9,1106.8c0,0,5.3-16,14.3-19.9s23.6-2.1,18.5,1.5c-5.1,3.6-12.9,6.4-12.9,6.4s16.9-5.3,16.4-0.8
				c-0.5,4.5-15.3,8.9-15.3,8.9s20.6-4.7,18.8-0.6c-1.8,4.1-17.5,7.5-17.5,7.5s19.4-3.6,17.1,1.1c-2.2,4.7-16,2.8-16.5,7.3
				c-0.5,4.5-3.9,22.2-16.6,22.3L654.9,1106.8z"/>
		</g>
	</g>
	<g>
		<path class="st16" d="M668.8,1098.6l-0.7-0.3c1.4-2.9,6.4-3.7,6.6-3.8l0.1,0.7C674.9,1095.2,670.1,1096,668.8,1098.6z"/>
	</g>
	<g>
		<path class="st16" d="M668.8,1107.5l-0.6-0.4c2.7-3.7,7.6-4.4,7.8-4.4l0.1,0.7C676.1,1103.4,671.3,1104.1,668.8,1107.5z"/>
	</g>
	<g>
		<path class="st16" d="M670.5,1114.1l-0.7-0.3c1.2-3.2,7.2-4.2,7.4-4.2l0.1,0.7C677.3,1110.3,671.6,1111.2,670.5,1114.1z"/>
	</g>
</g>
<g>
	<path class="st10" d="M592.4,1032c-1,3,6.7,8.6,17.4,12.5c10.6,3.9,20.1,4.7,21.1,1.7c1-3-6.7-8.6-17.4-12.5
		C602.9,1029.8,593.4,1029,592.4,1032z"/>
</g>
<g>
	<g>
		<path class="st12" d="M665.3,1135.5l0.4-21.7c0-3-2.2-5.5-5.2-5.7c-15.1-1.1-25.6-5.7-31.4-13.9c-8-11.3-7.2-29-4.9-41.2
			c1.1-6.2-0.9-10.4-8.5-14.4c0,0-6.5-3.6-14.5-4.9c-3.2-0.5-6.4,0.7-7.2,3.9c-1.3,4.9-3,12.6-3.8,21.6
			c-1.9,21.4,2.2,40.1,11.9,53.9c11.9,17,31.1,26.4,57.2,28C662.5,1141.2,665.3,1138.8,665.3,1135.5z"/>
	</g>
</g>
<g class="st23">
	<path class="st13" d="M609.9,1107.4c-0.6,0-1.2-0.1-1.8-0.3c-1.7-0.5-3.3-1.7-4.6-3.2c-2.7-3.3-2.9-7.6-0.6-9.5
		c1.2-1,2.8-1.2,4.6-0.6c1.7,0.5,3.3,1.7,4.6,3.2c2.7,3.3,2.9,7.6,0.6,9.5C611.9,1107.1,611,1107.4,609.9,1107.4z M605.8,1094.9
		c-0.7,0-1.4,0.2-1.9,0.6c-1.7,1.4-1.3,4.8,0.8,7.5c1.1,1.3,2.5,2.3,3.9,2.8c1.3,0.4,2.5,0.3,3.3-0.4c1.7-1.4,1.3-4.8-0.8-7.5
		c-1.1-1.3-2.5-2.3-3.9-2.8C606.7,1095,606.2,1094.9,605.8,1094.9z"/>
</g>
<g>
	<path class="st11" d="M641.8,1190.6c0,0,82.8-15.8,109.6-8.4l-12.9,19.1l-47.8,2.7L641.8,1190.6z"/>
</g>
<g>
	<g>
		<g>
			<path class="st24" d="M1436,698.4L1436,698.4c-0.7,0-1.3-0.6-1.3-1.3c0-0.1,0-2.5,0.8-6.7c0.1-0.7,0.8-1.2,1.5-1.1
				s1.2,0.8,1.1,1.5c-0.7,3.9-0.7,6.2-0.7,6.3C1437.3,697.8,1436.7,698.4,1436,698.4z M1438.2,685.5c-0.1,0-0.2,0-0.3,0
				c-0.7-0.2-1.1-0.9-0.9-1.6c0.6-2.1,1.2-4.2,2-6.3c0.2-0.7,1-1,1.7-0.8c0.7,0.2,1,1,0.8,1.7c-0.7,2-1.4,4.1-1.9,6.1
				C1439.3,685.1,1438.8,685.5,1438.2,685.5z M1442.5,673.2c-0.2,0-0.3,0-0.5-0.1c-0.7-0.3-1-1-0.7-1.7c0.8-1.9,1.7-3.9,2.8-6
				c0.3-0.7,1.1-0.9,1.8-0.6c0.6,0.3,0.9,1.1,0.6,1.8c-1,2-1.9,4-2.7,5.9C1443.5,672.9,1443,673.2,1442.5,673.2z M1448.3,661.5
				c-0.2,0-0.4-0.1-0.7-0.2c-0.6-0.4-0.8-1.2-0.5-1.8c1.1-1.8,2.2-3.7,3.4-5.6c0.4-0.6,1.2-0.8,1.8-0.4c0.6,0.4,0.8,1.2,0.4,1.8
				c-1.2,1.9-2.3,3.7-3.4,5.5C1449.2,661.3,1448.8,661.5,1448.3,661.5z M1455.4,650.6c-0.3,0-0.5-0.1-0.8-0.2
				c-0.6-0.4-0.7-1.2-0.3-1.8c1.2-1.7,2.6-3.5,4-5.3c0.4-0.6,1.3-0.7,1.8-0.2c0.6,0.4,0.7,1.3,0.2,1.8c-1.4,1.8-2.7,3.5-3.9,5.1
				C1456.2,650.4,1455.8,650.6,1455.4,650.6z M1463.6,640.3c-0.3,0-0.6-0.1-0.9-0.3c-0.5-0.5-0.6-1.3-0.1-1.8
				c1.4-1.6,2.9-3.3,4.4-4.9c0.5-0.5,1.3-0.5,1.9,0c0.5,0.5,0.5,1.3,0,1.8c-1.5,1.6-3,3.2-4.4,4.8
				C1464.3,640.2,1463.9,640.3,1463.6,640.3z M1472.5,630.9c-0.3,0-0.7-0.1-0.9-0.4c-0.5-0.5-0.5-1.3,0-1.8c1.5-1.5,3.1-3,4.8-4.5
				c0.5-0.5,1.4-0.4,1.8,0.1c0.5,0.5,0.5,1.4-0.1,1.8c-1.6,1.5-3.2,3-4.7,4.4C1473.2,630.7,1472.9,630.9,1472.5,630.9z
				 M1482.2,622.1c-0.4,0-0.7-0.2-1-0.5c-0.5-0.6-0.4-1.4,0.2-1.8c1.6-1.4,3.3-2.8,5.1-4.2c0.6-0.4,1.4-0.3,1.8,0.2
				c0.4,0.6,0.3,1.4-0.2,1.8c-1.7,1.4-3.4,2.7-5,4.1C1482.8,622,1482.5,622.1,1482.2,622.1z M1492.5,614c-0.4,0-0.8-0.2-1.1-0.5
				c-0.4-0.6-0.3-1.4,0.3-1.8c1.7-1.3,3.5-2.5,5.3-3.8c0.6-0.4,1.4-0.3,1.8,0.3c0.4,0.6,0.3,1.4-0.3,1.8c-1.8,1.3-3.6,2.5-5.3,3.8
				C1493,614,1492.7,614,1492.5,614z M1503.2,606.6c-0.4,0-0.8-0.2-1.1-0.6c-0.4-0.6-0.2-1.4,0.4-1.8c1.8-1.2,3.6-2.3,5.5-3.5
				c0.6-0.4,1.4-0.2,1.8,0.4c0.4,0.6,0.2,1.4-0.4,1.8c-1.9,1.2-3.7,2.3-5.5,3.5C1503.7,606.5,1503.4,606.6,1503.2,606.6z
				 M1514.3,599.7c-0.4,0-0.9-0.2-1.1-0.6c-0.4-0.6-0.2-1.4,0.5-1.8c1.9-1.1,3.8-2.2,5.7-3.3c0.6-0.3,1.4-0.1,1.8,0.5
				c0.3,0.6,0.1,1.4-0.5,1.8c-1.9,1.1-3.8,2.1-5.7,3.2C1514.7,599.7,1514.5,599.7,1514.3,599.7z"/>
		</g>
	</g>
	<g>
		<g>
			<path class="st24" d="M1457.3,835.9c-0.7,0-1.3-0.6-1.3-1.3c-0.1-2.2-0.1-4.4-0.1-6.5c0-0.7,0.6-1.3,1.3-1.3c0,0,0,0,0,0
				c0.7,0,1.3,0.6,1.3,1.3c0,2.2,0.1,4.3,0.1,6.5C1458.6,835.3,1458.1,835.9,1457.3,835.9C1457.3,835.9,1457.3,835.9,1457.3,835.9z
				 M1457.1,822.9c-0.7,0-1.3-0.6-1.3-1.3l0-2.2c0-1.5,0-2.9,0-4.4c0-0.7,0.6-1.3,1.3-1.3c0,0,0,0,0,0c0.7,0,1.3,0.6,1.3,1.3
				c0,1.4,0,2.9,0,4.3l0,2.2C1458.5,822.3,1457.9,822.9,1457.1,822.9C1457.1,822.9,1457.1,822.9,1457.1,822.9z M1457.2,809.8
				C1457.2,809.8,1457.2,809.8,1457.2,809.8c-0.7,0-1.3-0.6-1.3-1.3c0-2.2,0.1-4.4,0.2-6.5c0-0.7,0.6-1.3,1.3-1.3c0,0,0,0,0,0
				c0.7,0,1.3,0.6,1.3,1.3c-0.1,2.2-0.1,4.3-0.2,6.5C1458.5,809.3,1457.9,809.8,1457.2,809.8z M1457.6,796.8
				C1457.6,796.8,1457.6,796.8,1457.6,796.8c-0.8,0-1.3-0.6-1.3-1.4c0.1-2.2,0.2-4.4,0.3-6.5c0-0.7,0.6-1.3,1.4-1.2
				c0.7,0,1.3,0.6,1.2,1.4c-0.1,2.2-0.2,4.3-0.3,6.5C1458.9,796.2,1458.3,796.8,1457.6,796.8z M1458.3,783.8
				C1458.2,783.8,1458.2,783.8,1458.3,783.8c-0.8-0.1-1.3-0.7-1.3-1.4c0.1-2.2,0.3-4.4,0.5-6.5c0.1-0.7,0.7-1.2,1.4-1.2
				c0.7,0.1,1.3,0.7,1.2,1.4c-0.2,2.1-0.3,4.3-0.5,6.5C1459.5,783.2,1459,783.8,1458.3,783.8z M1459.3,770.7c0,0-0.1,0-0.1,0
				c-0.7-0.1-1.3-0.7-1.2-1.4c0.2-2.2,0.4-4.4,0.6-6.5c0.1-0.7,0.7-1.2,1.4-1.2c0.7,0.1,1.2,0.7,1.2,1.4c-0.2,2.1-0.4,4.3-0.6,6.5
				C1460.5,770.2,1459.9,770.7,1459.3,770.7z M1460.6,757.7c0,0-0.1,0-0.1,0c-0.7-0.1-1.2-0.7-1.1-1.5c0.3-2.2,0.5-4.4,0.8-6.5
				c0.1-0.7,0.7-1.3,1.5-1.1c0.7,0.1,1.2,0.7,1.1,1.5c-0.3,2.1-0.5,4.3-0.8,6.5C1461.8,757.3,1461.3,757.7,1460.6,757.7z
				 M1462.3,744.8c-0.1,0-0.1,0-0.2,0c-0.7-0.1-1.2-0.8-1.1-1.5c0.3-2.2,0.7-4.3,1-6.5c0.1-0.7,0.7-1.2,1.5-1.1
				c0.7,0.1,1.2,0.8,1.1,1.5c-0.3,2.1-0.7,4.3-1,6.4C1463.5,744.3,1462.9,744.8,1462.3,744.8z M1464.4,731.9c-0.1,0-0.2,0-0.2,0
				c-0.7-0.1-1.2-0.8-1.1-1.5c0.4-2.2,0.8-4.3,1.2-6.4c0.1-0.7,0.8-1.2,1.5-1c0.7,0.1,1.2,0.8,1,1.5c-0.4,2.1-0.8,4.2-1.2,6.4
				C1465.6,731.5,1465,731.9,1464.4,731.9z M1466.9,719.1c-0.1,0-0.2,0-0.3,0c-0.7-0.2-1.2-0.9-1-1.5c0.5-2.2,0.9-4.3,1.4-6.4
				c0.2-0.7,0.9-1.1,1.6-1c0.7,0.2,1.1,0.9,1,1.6c-0.5,2.1-1,4.2-1.4,6.3C1468.1,718.7,1467.5,719.1,1466.9,719.1z M1469.9,706.4
				c-0.1,0-0.2,0-0.3,0c-0.7-0.2-1.1-0.9-0.9-1.6c0.5-2.2,1.1-4.3,1.7-6.3c0.2-0.7,0.9-1.1,1.6-0.9c0.7,0.2,1.1,0.9,0.9,1.6
				c-0.6,2.1-1.1,4.2-1.7,6.3C1471,706,1470.5,706.4,1469.9,706.4z M1473.4,693.8c-0.1,0-0.3,0-0.4-0.1c-0.7-0.2-1.1-0.9-0.9-1.6
				c0.6-2.1,1.3-4.2,1.9-6.3c0.2-0.7,0.9-1.1,1.6-0.8c0.7,0.2,1.1,1,0.8,1.6c-0.7,2-1.3,4.1-1.9,6.2
				C1474.4,693.5,1473.9,693.8,1473.4,693.8z M1477.4,681.4c-0.1,0-0.3,0-0.4-0.1c-0.7-0.2-1-1-0.8-1.7c0.7-2.1,1.5-4.2,2.2-6.2
				c0.3-0.7,1-1,1.7-0.8c0.7,0.3,1,1,0.8,1.7c-0.7,2-1.5,4-2.2,6.1C1478.4,681,1477.9,681.4,1477.4,681.4z M1481.9,669.2
				c-0.2,0-0.3,0-0.5-0.1c-0.7-0.3-1-1-0.7-1.7c0.8-2.1,1.7-4.1,2.5-6c0.3-0.7,1-1,1.7-0.7c0.7,0.3,1,1.1,0.7,1.7
				c-0.8,1.9-1.7,3.9-2.5,6C1483,668.9,1482.5,669.2,1481.9,669.2z M1487.2,657.2c-0.2,0-0.4,0-0.6-0.1c-0.7-0.3-0.9-1.1-0.6-1.7
				c1-2,1.9-4,2.9-5.9c0.3-0.6,1.1-0.9,1.8-0.6c0.6,0.3,0.9,1.1,0.6,1.8c-1,1.9-1.9,3.8-2.8,5.8
				C1488.1,656.9,1487.7,657.2,1487.2,657.2z M1493.1,645.6c-0.2,0-0.4-0.1-0.6-0.2c-0.6-0.3-0.9-1.1-0.5-1.8c1.1-2,2.2-3.9,3.3-5.7
				c0.4-0.6,1.2-0.8,1.8-0.5c0.6,0.4,0.8,1.2,0.5,1.8c-1.1,1.8-2.1,3.7-3.2,5.6C1494,645.3,1493.5,645.6,1493.1,645.6z
				 M1499.7,634.3c-0.2,0-0.5-0.1-0.7-0.2c-0.6-0.4-0.8-1.2-0.4-1.8c1.3-1.9,2.5-3.8,3.7-5.4c0.4-0.6,1.2-0.7,1.8-0.3
				c0.6,0.4,0.7,1.2,0.3,1.8c-1.2,1.7-2.4,3.5-3.6,5.4C1500.6,634.1,1500.2,634.3,1499.7,634.3z M1507.3,623.7
				c-0.3,0-0.6-0.1-0.8-0.3c-0.6-0.5-0.7-1.3-0.2-1.8c1.5-1.9,2.9-3.6,4.2-5.1c0.5-0.5,1.3-0.6,1.8-0.1c0.5,0.5,0.6,1.3,0.1,1.8
				c-1.3,1.5-2.7,3.1-4.1,5C1508.1,623.5,1507.7,623.7,1507.3,623.7z M1515.9,613.9c-0.3,0-0.7-0.1-0.9-0.4c-0.5-0.5-0.5-1.3,0-1.8
				c3.1-3.1,4.9-4.5,5-4.5c0.6-0.4,1.4-0.3,1.8,0.3c0.4,0.6,0.3,1.4-0.3,1.8c0,0-1.8,1.3-4.7,4.2
				C1516.5,613.7,1516.2,613.9,1515.9,613.9z"/>
		</g>
	</g>
	<g>
		<g>
			<path class="st24" d="M1429.4,634.8c-0.2,0-0.4,0-0.6-0.1c-0.6-0.3-0.9-1.1-0.6-1.8c0.1-0.1,0.2-0.3,0.3-0.4
				c0.5-0.5,1.3-0.5,1.8,0c0.5,0.5,0.5,1.3,0.1,1.8C1430.2,634.7,1429.8,634.8,1429.4,634.8z M1433.7,629.9c-0.3,0-0.6-0.1-0.9-0.3
				c-0.5-0.5-0.6-1.3-0.1-1.8c1.5-1.6,3.1-3.2,4.6-4.7c0.5-0.5,1.3-0.5,1.8,0c0.5,0.5,0.5,1.3,0,1.8c-1.5,1.5-3,3-4.5,4.6
				C1434.4,629.8,1434.1,629.9,1433.7,629.9z M1443.1,620.8c-0.4,0-0.7-0.2-1-0.5c-0.5-0.5-0.4-1.4,0.2-1.8c1.7-1.4,3.4-2.8,5.1-4.2
				c0.6-0.4,1.4-0.3,1.8,0.2c0.4,0.6,0.3,1.4-0.2,1.8c-1.7,1.3-3.3,2.7-5,4.1C1443.7,620.7,1443.4,620.8,1443.1,620.8z
				 M1453.5,612.9c-0.4,0-0.8-0.2-1.1-0.6c-0.4-0.6-0.3-1.4,0.3-1.8c1.8-1.3,3.7-2.5,5.5-3.6c0.6-0.3,1.4-0.2,1.8,0.4
				c0.4,0.6,0.2,1.4-0.4,1.8c-1.8,1.1-3.6,2.3-5.4,3.5C1454,612.8,1453.7,612.9,1453.5,612.9z M1464.6,606c-0.5,0-0.9-0.2-1.1-0.7
				c-0.3-0.6-0.1-1.4,0.5-1.8c2-1.1,3.9-2.1,5.8-3c0.6-0.3,1.4,0,1.7,0.6c0.3,0.7,0.1,1.4-0.6,1.8c-1.9,0.9-3.8,1.9-5.7,3
				C1465,605.9,1464.8,606,1464.6,606z M1476.3,600.2c-0.5,0-1-0.3-1.2-0.8c-0.3-0.7,0-1.4,0.7-1.7c2.1-0.9,4.1-1.7,6.1-2.5
				c0.7-0.3,1.4,0.1,1.7,0.7c0.3,0.7-0.1,1.4-0.7,1.7c-2,0.8-4,1.6-6,2.5C1476.6,600.2,1476.4,600.2,1476.3,600.2z M1488.5,595.6
				c-0.5,0-1.1-0.3-1.2-0.9c-0.2-0.7,0.1-1.4,0.8-1.7c2.2-0.7,4.3-1.4,6.3-1.9c0.7-0.3,1.4,0.2,1.6,0.9c0.2,0.7-0.2,1.4-0.9,1.6
				c-2,0.6-4.1,1.2-6.2,1.9C1488.7,595.5,1488.6,595.6,1488.5,595.6z M1501,592c-0.6,0-1.1-0.4-1.3-1c-0.2-0.7,0.3-1.4,1-1.6
				c2.3-0.6,4.5-1,6.5-1.4c0.8-0.2,1.4,0.3,1.5,1c0.1,0.7-0.3,1.4-1,1.5c-1.9,0.4-4.1,0.8-6.3,1.4C1501.2,592,1501.1,592,1501,592z
				 M1513.9,589.5c-0.6,0-1.2-0.5-1.3-1.1c-0.1-0.7,0.4-1.4,1.1-1.5c4.1-0.6,6.5-0.7,6.6-0.7c0.6,0,1.3,0.5,1.4,1.3
				c0,0.7-0.5,1.3-1.2,1.4c0,0-2.4,0.1-6.4,0.7C1514,589.5,1513.9,589.5,1513.9,589.5z"/>
		</g>
	</g>
	<g>
		<g>
			<path class="st24" d="M1488,823.9c-0.7,0-1.3-0.6-1.3-1.3c-0.1-2.2-0.1-4.4-0.1-6.5c0-0.7,0.6-1.3,1.3-1.3c0,0,0,0,0,0
				c0.7,0,1.3,0.6,1.3,1.3c0,2.2,0.1,4.3,0.1,6.5C1489.4,823.3,1488.8,823.9,1488,823.9C1488.1,823.9,1488,823.9,1488,823.9z
				 M1487.8,810.9c-0.7,0-1.3-0.6-1.3-1.3l0-2.9l0-3.6c0-0.7,0.6-1.3,1.3-1.3h0c0.7,0,1.3,0.6,1.3,1.3l0,3.6l0,2.9
				C1489.1,810.3,1488.5,810.9,1487.8,810.9L1487.8,810.9z M1487.9,797.8C1487.9,797.8,1487.9,797.8,1487.9,797.8
				c-0.7,0-1.3-0.6-1.3-1.3c0-2.2,0.1-4.4,0.2-6.5c0-0.7,0.6-1.3,1.3-1.3c0,0,0,0,0,0c0.7,0,1.3,0.6,1.3,1.3
				c-0.1,2.2-0.1,4.3-0.2,6.5C1489.2,797.3,1488.6,797.8,1487.9,797.8z M1488.3,784.8C1488.3,784.8,1488.3,784.8,1488.3,784.8
				c-0.8,0-1.3-0.6-1.3-1.4c0.1-2.2,0.2-4.4,0.3-6.5c0-0.7,0.6-1.2,1.3-1.2c0,0,0,0,0.1,0c0.7,0,1.3,0.7,1.2,1.4
				c-0.1,2.2-0.2,4.3-0.3,6.5C1489.6,784.2,1489,784.8,1488.3,784.8z M1489,771.8C1489,771.8,1488.9,771.8,1489,771.8
				c-0.8-0.1-1.3-0.7-1.3-1.4c0.1-2.2,0.3-4.4,0.5-6.5c0.1-0.7,0.7-1.1,1.4-1.2c0.7,0.1,1.3,0.7,1.2,1.4c-0.2,2.1-0.3,4.3-0.5,6.5
				C1490.3,771.2,1489.7,771.8,1489,771.8z M1490,758.7c0,0-0.1,0-0.1,0c-0.7-0.1-1.2-0.7-1.2-1.4c0.2-2.2,0.4-4.4,0.7-6.5
				c0.1-0.7,0.7-1.1,1.4-1.2c0.7,0.1,1.2,0.7,1.2,1.4c-0.2,2.1-0.4,4.3-0.7,6.5C1491.3,758.2,1490.7,758.7,1490,758.7z
				 M1491.4,745.8c-0.1,0-0.1,0-0.2,0c-0.7-0.1-1.2-0.7-1.1-1.4c0.3-2.2,0.5-4.4,0.8-6.5c0.1-0.7,0.8-1.3,1.5-1.1
				c0.7,0.1,1.2,0.7,1.1,1.5c-0.3,2.1-0.6,4.3-0.8,6.5C1492.6,745.3,1492.1,745.8,1491.4,745.8z M1493.2,732.8c-0.1,0-0.1,0-0.2,0
				c-0.7-0.1-1.2-0.8-1.1-1.5c0.3-2.2,0.7-4.4,1-6.5c0.1-0.7,0.8-1.2,1.5-1.1c0.7,0.1,1.2,0.8,1.1,1.5c-0.3,2.1-0.7,4.3-1,6.4
				C1494.4,732.3,1493.8,732.8,1493.2,732.8z M1495.3,719.9c-0.1,0-0.2,0-0.2,0c-0.7-0.1-1.2-0.8-1-1.5c0.4-2.2,0.8-4.3,1.2-6.4
				c0.1-0.7,0.8-1.2,1.5-1c0.7,0.1,1.2,0.8,1,1.5c-0.4,2.1-0.8,4.2-1.2,6.4C1496.5,719.5,1495.9,719.9,1495.3,719.9z M1497.8,707.1
				c-0.1,0-0.2,0-0.3,0c-0.7-0.2-1.2-0.8-1-1.5c0.5-2.2,0.9-4.3,1.4-6.4c0.2-0.7,0.8-1,1.6-1c0.7,0.2,1.1,0.9,1,1.6
				c-0.5,2.1-1,4.2-1.4,6.3C1499,706.7,1498.5,707.1,1497.8,707.1z M1500.8,694.4c-0.1,0-0.2,0-0.3,0c-0.7-0.2-1.1-0.9-0.9-1.6
				c0.5-2.2,1.1-4.3,1.6-6.3c0.2-0.7,0.9-1.1,1.6-0.9c0.7,0.2,1.1,0.9,0.9,1.6c-0.5,2.1-1.1,4.1-1.6,6.3
				C1501.9,694,1501.4,694.4,1500.8,694.4z M1504.2,681.8c-0.1,0-0.2,0-0.4-0.1c-0.7-0.2-1.1-0.9-0.9-1.6c0.6-2.2,1.3-4.2,1.9-6.3
				c0.2-0.7,0.9-1.1,1.6-0.9c0.7,0.2,1.1,0.9,0.9,1.6c-0.6,2-1.2,4.1-1.9,6.2C1505.3,681.4,1504.8,681.8,1504.2,681.8z
				 M1508.1,669.3c-0.1,0-0.3,0-0.4-0.1c-0.7-0.2-1.1-1-0.8-1.7c0.7-2.2,1.4-4.2,2.1-6.2c0.2-0.7,1-1,1.7-0.8c0.7,0.2,1,1,0.8,1.7
				c-0.7,2-1.4,4-2.1,6.1C1509.1,669,1508.6,669.3,1508.1,669.3z M1512.5,657c-0.2,0-0.3,0-0.5-0.1c-0.7-0.3-1-1-0.7-1.7
				c0.8-2.1,1.6-4.2,2.4-6.1c0.3-0.7,1-1,1.7-0.7c0.7,0.3,1,1,0.7,1.7c-0.8,1.9-1.6,3.9-2.4,6C1513.5,656.7,1513,657,1512.5,657z
				 M1517.5,645c-0.2,0-0.4,0-0.5-0.1c-0.7-0.3-0.9-1.1-0.7-1.7c1-2.2,1.9-4.2,2.8-6c0.3-0.7,1.1-0.9,1.7-0.6
				c0.7,0.3,0.9,1.1,0.6,1.7c-0.9,1.8-1.8,3.7-2.7,5.9C1518.4,644.7,1518,645,1517.5,645z M1523.2,633.2c-0.2,0-0.4-0.1-0.6-0.2
				c-0.6-0.3-0.9-1.1-0.5-1.8c2-3.8,3.3-5.7,3.3-5.8c0.4-0.6,1.2-0.7,1.8-0.4c0.6,0.4,0.8,1.2,0.4,1.8c0,0-1.2,1.9-3.2,5.6
				C1524.1,633,1523.7,633.2,1523.2,633.2z"/>
		</g>
	</g>
</g>
<g>
	<path class="st8" d="M1147.8,1211.6c17.5,5.2,59.1,3.2,90.1-26.4c2.4-2.3,12.5-2.7,15.8-3.2c19.1-2.7,83.6,1.9,125.8,19.6
		c5,2.1,6.9,8.3,4,12.9l-19.5,30.9l0,0c-8.4,0-12.5,10.2-6.5,16c21.8,21.2,58.4,61,77.4,105.7c0,0-56.7,101.6-253,99.9
		c0,0-13.7-95.7-17.2-152.4c-0.9-14.8-20.5-19.8-28-7.1c-0.2,0.3-0.3,0.6-0.5,0.9l-39.3-29.6c-5.1-3.8-6.4-10.9-3-16.3
		c7.8-12.3,22.7-33.7,41.1-48.4C1138.6,1211.2,1143.4,1210.3,1147.8,1211.6z"/>
</g>
<g>
	<path class="st19" d="M1432.2,1290.8c-12.8,3.8-48,11.5-70.5-10c-1.7-1.6-4-2.7-6.3-3c-13.9-1.9-60.8-7.1-91.5,5.8
		c-3.6,1.5-5,6-2.9,9.3l14.2,22.4l0,0c6.1,0,9.1,7.4,4.7,11.7c-15.8,15.4-42.4,44.3-56.3,76.8c0,0,41.2,73.8,183.9,72.6
		c0,0,10-69.5,12.5-110.7c0.7-10.7,14.9-14.4,20.4-5.1c0.1,0.2,0.2,0.4,0.4,0.6l28.6-21.5c3.7-2.8,4.6-7.9,2.2-11.9
		c-5.6-8.9-16.5-24.5-29.9-35.2C1438.9,1290.5,1435.4,1289.9,1432.2,1290.8z"/>
</g>
<g>
	<g>
		<path class="st12" d="M1451.2,1041.6c-5.7-5.6,11.2-26.4,11.2-26.4c2.2-1.5,38.2,32.6,79.4,19.5c14.7-4.7,35-30.4,36.5-34.2
			c0.2-0.5,32.5,11.2,32.5,11.2c-2.7,6.9-5.7,28.8-21.5,43.4C1556.5,1085.2,1481.4,1082.2,1451.2,1041.6z"/>
	</g>
</g>
<g>
	<path class="st10" d="M1643.2,1456.8c0,0-0.3,11.2-7.8,14.3c-7.6,3.2-29.4,6-21.3,13.2c4.7,4.1,26.8,1.5,33.1,1.5
		c6.2,0,12.1,2.7,16.8-1.5c5.1-4.6,0-27.5,0-27.5s-5.4,2.8-10.2,2.7C1646.7,1459.3,1643.2,1456.8,1643.2,1456.8z"/>
</g>
<g>
	<path class="st11" d="M1578,1119.8c0,0-1.5,50.4,14.6,147.1c11.6,69.8,25.3,140.1,32,173.8c2.4,12.1,12.5,20.9,24.6,21.4l6.5,0.3
		c13,0.5,23.5-10.6,22.6-23.9l-16.3-228.1l-4-75.1L1578,1119.8z"/>
</g>
<g>
	<path class="st10" d="M1714.8,1456.8c0,0-0.3,11.2-7.8,14.3c-7.6,3.2-29.4,6-21.3,13.2c4.7,4.1,26.8,1.5,33.1,1.5
		c6.2,0,12.1,2.7,16.7-1.5c5.1-4.6,0-27.5,0-27.5s-5.4,2.8-10.2,2.7C1718.2,1459.3,1714.8,1456.8,1714.8,1456.8z"/>
</g>
<g>
	<path class="st11" d="M1649.6,1119.8c0,0-1.5,50.4,14.6,147.1c11.6,69.8,25.3,140.1,32,173.8c2.4,12.1,12.5,20.9,24.6,21.4l6.5,0.3
		c13,0.5,23.5-10.6,22.6-23.9l-16.3-228.1l-4-75.1L1649.6,1119.8z"/>
</g>
<g>
	<path class="st10" d="M1737.4,1175.1c-0.2,6.1-36.9,8.5-82.4,7.1c-45.5-1.4-81.8-7.7-81.6-13.8s36.7-9.6,82.2-8.2
		C1701,1161.5,1737.5,1169,1737.4,1175.1z"/>
</g>
<g>
	<path class="st9" d="M1726.2,1003c0,0-8-31.9-67.4-32.2c-85.5-0.5-77.6,78.1-85.5,197.6c0,0,84.3-11.9,164.1,5.2
		C1737.4,1173.6,1744.8,1051.6,1726.2,1003z"/>
</g>
<g>
	<path class="st9" d="M1748.1,998.4l-38.7,21.4c0,0-84.8,7.7-107.4,4c-22.5-3.7-28.7-20.2-28.7-20.2s24-24.8,64.8-31.4
		c3.8-0.6,7.8-1.1,11.9-1.4c6.9-0.4,13.8-0.4,20.6,0.4C1722.3,977,1748.1,998.4,1748.1,998.4z"/>
</g>
<g>
	<path class="st12" d="M1667,963.5l-4.5-14.5l-1.3-4.2l-7.7-24.7l-1,24.6l-0.6,14.8l-0.2,4.7c-0.1,3.2-2.1,3.8-4.4,6.6
		c-1,1.1-7.1,7.9-0.1,11c8.6,3.8,24.8-2,30.9-9.5C1678.1,972.1,1668.5,968.1,1667,963.5z"/>
</g>
<g>
	<path class="st11" d="M1580.5,1173.3c0,0,49.3-14.5,151.3,5.4l0.8,14.7l-149.6,5.3L1580.5,1173.3z"/>
</g>
<g>
	<path class="st10" d="M1749,999.3c3.3,4.6-1.6,13.8-10.8,20.5c-9.3,6.7-19.4,8.3-22.7,3.7c-3.3-4.6,1.6-13.8,10.8-20.5
		C1735.5,996.3,1745.7,994.6,1749,999.3z"/>
</g>
<g>
	<g>
		<path class="st12" d="M1783.1,1197.3L1783.1,1197.3c1.9,0.4,3.2,2.2,2.8,4.1l-5.5,29.7c-0.4,1.9-2.2,3.2-4.1,2.8l0,0
			c-1.9-0.4-3.2-2.2-2.8-4.1l5.5-29.7C1779.3,1198.3,1781.2,1197,1783.1,1197.3z"/>
	</g>
	<g>
		<path class="st12" d="M1774.2,1195.7L1774.2,1195.7c1.9,0.4,3.2,2.2,2.8,4.1l-6.1,33.2c-0.4,1.9-2.2,3.2-4.1,2.8l0,0
			c-1.9-0.4-3.2-2.2-2.8-4.1l6.1-33.2C1770.4,1196.6,1772.3,1195.3,1774.2,1195.7z"/>
	</g>
	<g>
		<path class="st12" d="M1775,1178l0.8,0.9c1.5,1.8,1.4,4.5-0.4,6l-17.3,15c-1.8,1.5-4.5,1.4-6-0.4l-0.8-0.9c-1.5-1.8-1.4-4.5,0.4-6
			l17.3-15C1770.7,1176,1773.4,1176.2,1775,1178z"/>
	</g>
	<g>
		<path class="st12" d="M1765.3,1194.1L1765.3,1194.1c1.9,0.4,3.2,2.2,2.8,4.1l-4.9,26.6c-0.4,1.9-2.2,3.2-4.1,2.8l0,0
			c-1.9-0.4-3.2-2.2-2.8-4.1l4.9-26.6C1761.5,1195,1763.4,1193.7,1765.3,1194.1z"/>
	</g>
	<g>
		<path class="st12" d="M1792.2,1181.6c0,0,6.9,19-0.7,31.2c-2.6,4.2-28.7-1.3-30.2-6.7c-1.5-5.4,3.6-23,3.6-23L1792.2,1181.6z"/>
	</g>
	<g>
		<path class="st12" d="M1791.9,1198.9L1791.9,1198.9c1.9,0.4,3.2,2.2,2.8,4.1l-4.9,26.6c-0.4,1.9-2.2,3.2-4.1,2.8l0,0
			c-1.9-0.4-3.2-2.2-2.8-4.1l4.9-26.6C1788.2,1199.9,1790,1198.6,1791.9,1198.9z"/>
	</g>
</g>
<g>
	<g>
		<path class="st12" d="M1759.6,1185.6c-3.6-39.3-11.7-95.4-30.5-139.9c-4.3-10.3-6.1-14.2-9.5-19.8c-2.7-4.5,2.2-14.5,9.8-19.2
			c7.2-4.5,18.5-3.7,20.2-1.5c3,3.7,6.3,10.9,11.3,22.3c17.5,39.6,27.9,90.8,32.1,156.8L1759.6,1185.6z"/>
	</g>
</g>
<g>
	<g>
		<path class="st25" d="M1633.9,910.8c0,0-1.6,6,0,13.5c1.6,7.5,9.2-10.9,9.2-10.9L1633.9,910.8z"/>
	</g>
	<g>
		<path class="st12" d="M1633,926.4c1.9-14.5,13.2-25,25.2-23.4c12,1.6,20.3,14.6,18.3,29.1c-1.9,14.5-13.2,25-25.2,23.4
			C1639.3,954,1631.1,941,1633,926.4z"/>
	</g>
	<g>
		<path class="st10" d="M1677.1,924.6l-10.6-1.1c-2.3-0.2-4.5-1.5-5.7-3.5c-2.2-3.4-4.8-5.2-14.7-4.8c-12.6,0.5-20.9-7-22.2-13.6
			c-1.4-6.7,5-11.3,11.4-8.1c6.3,3.2,3.6-4.6,9.7-5.5c11.3-1.6,13.5,7.2,22.8,6.9c12.2-0.4,34,8.9,23.6,30.3L1677.1,924.6z"/>
	</g>
	<g>
		<g>
			<path class="st18" d="M1653.6,928.2c-0.1-0.1-0.2-0.2-0.2-0.3c0-0.2,0.2-0.5,0.4-0.5c0.1,0,3.5-0.6,5.1,2.9
				c0.1,0.2,0,0.5-0.2,0.6c-0.2,0.1-0.4,0-0.6-0.2c-1.6-1.9-4.1-2.4-4.3-2.4C1653.8,928.3,1653.7,928.2,1653.6,928.2z"/>
		</g>
	</g>
	<g>
		<path class="st18" d="M1655.5,933.9c-0.3,1-1.1,1.7-1.9,1.5c-0.7-0.2-1.1-1.2-0.8-2.2c0.3-1,1.1-1.7,1.9-1.5
			C1655.4,931.9,1655.8,932.9,1655.5,933.9z"/>
	</g>
	<g>
		<g>
			<path class="st18" d="M1637.1,926.9c-0.1,0-0.2-0.1-0.2-0.2c-0.1-0.2,0-0.5,0.2-0.6c0.1-0.1,2.4-2,4.5,0.5c0.1,0.2,0.1,0.4,0,0.6
				c-0.1,0.2-0.3,0.2-0.5,0.1c-1.6-1.1-3.7-0.5-3.8-0.4C1637.3,926.9,1637.2,926.9,1637.1,926.9z"/>
		</g>
	</g>
	<g>
		<path class="st18" d="M1641.2,931.4c0.1,1.1-0.4,2-1.1,2.1s-1.5-0.7-1.6-1.7c-0.1-1.1,0.4-2,1.1-2.1
			C1640.3,929.6,1641.1,930.4,1641.2,931.4z"/>
	</g>
	<g>
		<path class="st25" d="M1691.2,925.3c0,0-7.3,15.9-17.8,17c0,0,8.4-12.1-9.3-19.5C1664.1,922.9,1680.4,920.3,1691.2,925.3z"/>
	</g>
	<g>
		<path class="st12" d="M1676.5,934c-2.2,1.4-5.1,1-6.3-1c-1.3-2-0.5-4.8,1.7-6.2c2.2-1.4,5.1-1,6.3,1
			C1679.5,929.9,1678.7,932.6,1676.5,934z"/>
	</g>
	<g>
		<path class="st25" d="M1664.1,922.9c0,0,1.4,13.3-1.3,15.8c-2.7,2.5-20.6,3.6-28.9,0.4l0,0c-0.1,8.5,5.9,16.1,14.3,17.5
			c2.8,0.5,5.7,0.5,8.5,0l0,0c5.8-1,11.5-3.4,13.9-8.9c0.7-1.6-1.4-11.8-1.4-11.8s-0.8-6,2.7-9.1
			C1671.9,926.8,1667.9,923.2,1664.1,922.9z"/>
	</g>
	<g>
		<path class="st15" d="M1638.3,943.9c0,0,6.9,1.9,14.3,1.1c0,0-1.1,6.9-8.7,5.6C1639.5,949.7,1638.3,943.9,1638.3,943.9z"/>
	</g>
	<g>
		<path class="st10" d="M1636.5,892.5c-0.1,0-0.1,0-0.2,0l0-0.6c2.9,0.1,3.2-2.2,3.2-2.3l0.6,0.1
			C1640.1,889.7,1639.8,892.5,1636.5,892.5z"/>
	</g>
	<g>
		<path class="st15" d="M1642.4,911.7c0,0-3.5-1-6.9-2.9c-4.6-2.5-7.1-5.3-7.4-8.3c-0.2-2,0.2-3.4,1.1-4.2c1.4-1.2,3.9-0.7,6.1-0.1
			c0.3,0.1,0.6,0.2,1,0.2l-0.1,0.3c-0.3-0.1-0.6-0.1-1-0.2c-2.1-0.5-4.5-1.1-5.9,0.1c-0.8,0.7-1.2,2-1,4
			c0.6,6.9,13.9,10.8,14.1,10.9L1642.4,911.7z"/>
	</g>
	<g>
		<path class="st15" d="M1668.8,897.7c-4.9,0-8.5-1.3-10.8-2.5c-3.2-1.6-4.8-3.5-4.8-3.6l0.2-0.2c0.1,0.1,6.4,7.4,19.4,5.6l0,0.3
			C1671.4,897.6,1670,897.7,1668.8,897.7z"/>
	</g>
</g>
<g>
	<path class="st13" d="M1768.8,1097.1c-1.3,0-2.6-0.6-3.7-1.8c-1.2-1.3-2.1-3.1-2.4-5.1c-0.7-4.3,1.2-8.1,4.2-8.6
		c3-0.5,6.1,2.6,6.8,6.8c0.3,2,0.1,4-0.6,5.6c-0.8,1.7-2.1,2.8-3.6,3C1769.3,1097.1,1769.1,1097.1,1768.8,1097.1z M1767.6,1083.1
		c-0.1,0-0.3,0-0.4,0c-2.2,0.4-3.6,3.5-3,6.9c0.3,1.7,1,3.3,2,4.3c0.9,1,2,1.4,3.1,1.3c1-0.2,1.9-0.9,2.5-2.2c0.6-1.3,0.8-3,0.5-4.7
		C1771.7,1085.5,1769.7,1083.1,1767.6,1083.1z"/>
</g>
<g>
	<path class="st9" d="M1440.5,1001.7c0,0,10.8,19.7,38.8,17.8c0,0,29.5,1,41.9,42.9l-24.5,17.3c-6.7-4.5-13.9-2.1-13.2,2.8
		c1.9,12.4,5.4,35.5,9.9,65.9c1,6.4-3.7,12.2-10.1,12.7c-26.9,2.2-91.8,2.6-108.8-41.3c0,0,8.3-43.5,26.3-71.1
		c4.3-6.6-1.6-15-9.2-13.1c-0.1,0-0.2,0.1-0.4,0.1l4.9-24.3C1396.1,1011.3,1422.3,996.2,1440.5,1001.7z"/>
</g>
<g>
	<g>
		<path class="st12" d="M1471.4,1010.7c-0.3-1-1-1.9-2-2.4c-2.1-1.1-4.8-0.4-6,1.7l-5.3,9.3c-1.2,2.1-0.4,4.7,1.7,5.8
			c2.1,1.1,4.8,0.4,6-1.7l5.3-9.3C1471.6,1013,1471.7,1011.8,1471.4,1010.7z"/>
	</g>
	<g>
		<path class="st12" d="M1479,1017.7c-0.3-1-1-1.9-2-2.4c-2.1-1.1-4.8-0.4-6,1.7l-5.3,9.3c-1.2,2.1-0.4,4.7,1.7,5.8
			c2.1,1.1,4.8,0.4,6-1.7l5.3-9.3C1479.2,1020.1,1479.3,1018.8,1479,1017.7z"/>
	</g>
	<g>
		<path class="st12" d="M1486.2,1018.4c-0.3-1-1-1.9-2-2.4c-2.1-1.1-4.8-0.4-6,1.7l-5.3,9.3c-1.2,2.1-0.4,4.7,1.7,5.8
			c2.1,1.1,4.8,0.4,6-1.7l5.3-9.3C1486.5,1020.8,1486.6,1019.5,1486.2,1018.4z"/>
	</g>
	<g>
		<path class="st12" d="M1491.8,1021.4c-0.2-0.6-0.6-1.2-1.2-1.5c-1.4-0.8-3.2-0.4-4,0.9l-5.5,8.7c-0.9,1.3-0.5,3.1,0.9,3.9
			c1.4,0.8,3.2,0.4,4-0.9l5.5-8.7C1492,1023,1492.1,1022.2,1491.8,1021.4z"/>
	</g>
</g>
<g>
	<path class="st10" d="M1588.6,1020.9l-0.9-0.3c2.5-9,10.9-20.3,11-20.4l0.8,0.6C1599.3,1000.9,1591.1,1012.1,1588.6,1020.9z"/>
</g>
<g>
	<path class="st10" d="M1666.9,1286.6c-0.1-0.4-6.7-41.4-11.2-56.1c-4.5-14.5-23.8-26.7-24-26.8l0.5-0.8
		c0.2,0.1,19.8,12.5,24.4,27.3c4.6,14.7,11.2,55.8,11.2,56.2L1666.9,1286.6z"/>
</g>
<g>
	<g>
		<path class="st9" d="M903,588.5c-7.6,0.9-15.3,16-15.3,16s20.9-64.6,0-63.5c-20.9,1.1-10.8,63.5-10.8,63.5s-19.5-52.8-31-36
			c-7.6,11,4.3,27.5,13.3,37.5c5,5.6,12.1,8.7,19.6,8.7h10.9c3.5,0,6.9-1.6,9.1-4.3C908.8,598.5,909.8,587.6,903,588.5z"/>
	</g>
	<g>
		<path class="st26" d="M870.4,615.5c-0.1-0.1-9.7-8.6-17.5-19.3c-10.6-14.5-13.2-26.5-7.6-34.7c2.2-3.1,4.7-4.5,7.6-4.2
			c5.7,0.7,12.4,8.6,20,23.5c2.4,4.8,4.6,9.5,6.2,13.4c-0.6-5.1-1.2-11.9-1.5-19.2c-0.7-20.2,1.7-33.8,7.1-40.5
			c2.4-3,5.4-4.6,8.9-4.8c3.4-0.2,6.1,1,8.1,3.6c8.4,11,0.1,45.5-4.4,61.6c3.5-4.9,8.5-10.6,13.6-11.2c2.6-0.3,4.5,0.6,5.5,2.7
			c2.4,5-1.6,16.9-13.8,29l-1.6-1.6c12-11.9,15-22.8,13.3-26.4c-0.6-1.1-1.6-1.6-3.2-1.4c-6.6,0.8-14.1,12.9-16.5,17.5l-2.1-0.9
			c0-0.1,4.5-13.9,7.5-29.1c4-19.9,3.9-33.3-0.2-38.7c-1.5-2-3.5-2.8-6.2-2.7c-2.9,0.1-5.3,1.4-7.3,3.9c-12.1,15-4,66.3-3.9,66.8
			l-2.2,0.6c-4.3-11.8-17.8-42.6-27.7-43.8c-2-0.3-3.8,0.8-5.5,3.2c-12.4,18,24.4,50.6,24.8,50.9L870.4,615.5z"/>
	</g>
</g>
<g>
	<g>
		<path class="st9" d="M1822.9,898.2c-6.2,0.8-12.6,13.2-12.6,13.2s17.3-53.3,0-52.4c-17.3,0.9-8.9,52.4-8.9,52.4
			s-16.1-43.6-25.6-29.7c-6.2,9.1,3.5,22.7,11,31c4.1,4.6,10,7.2,16.2,7.2h9c2.9,0,5.7-1.3,7.5-3.5
			C1827.6,906.4,1828.5,897.5,1822.9,898.2z"/>
	</g>
	<g>
		<path class="st26" d="M1796,920.5c-0.1-0.1-8-7.1-14.5-15.9c-8.8-11.9-10.9-21.8-6.3-28.6c1.8-2.6,3.9-3.7,6.3-3.4
			c4.7,0.6,10.3,7.1,16.5,19.4c2,3.9,3.8,7.9,5.1,11c-0.5-4.2-1-9.9-1.2-15.8c-0.6-16.6,1.4-27.9,5.8-33.4c2-2.5,4.5-3.8,7.4-3.9
			c2.8-0.1,5.1,0.8,6.7,3c7,9.1,0.1,37.5-3.7,50.8c2.9-4.1,7-8.8,11.3-9.3c2.1-0.3,3.7,0.5,4.5,2.2c2,4.1-1.3,13.9-11.3,23.9
			l-1.3-1.3c9.9-9.8,12.4-18.8,11-21.8c-0.5-0.9-1.3-1.3-2.6-1.2c-6.5,0.8-13.5,14.3-13.6,14.5l-1.7-0.7c0-0.1,3.7-11.5,6.2-24
			c3.3-16.4,3.2-27.5-0.2-32c-1.2-1.6-2.9-2.3-5.1-2.2c-2.4,0.1-4.4,1.2-6,3.2c-10,12.4-3.3,54.7-3.2,55.1l-1.8,0.5
			c-3.6-9.7-14.7-35.1-22.9-36.2c-1.7-0.2-3.1,0.7-4.5,2.6c-10.2,14.8,20.1,41.8,20.4,42L1796,920.5z"/>
	</g>
</g>
<g>
	<g>
		<path class="st9" d="M1630,467c-6.2,0.8-12.6,13.2-12.6,13.2s17.3-53.3,0-52.4c-17.3,0.9-8.9,52.4-8.9,52.4s-16.1-43.6-25.6-29.7
			c-6.3,9.1,3.5,22.7,11,31c4.1,4.6,10,7.2,16.2,7.2h9c2.9,0,5.7-1.3,7.5-3.5C1634.7,475.3,1635.6,466.3,1630,467z"/>
	</g>
	<g>
		<path class="st26" d="M1603.1,489.3c-0.1-0.1-8-7.1-14.5-15.9c-8.8-11.9-10.9-21.8-6.3-28.6c1.8-2.6,3.9-3.7,6.3-3.4
			c4.7,0.6,10.3,7.1,16.5,19.4c2,3.9,3.8,7.9,5.1,11c-0.5-4.2-1-9.9-1.2-15.8c-0.6-16.6,1.4-27.9,5.8-33.4c2-2.5,4.5-3.8,7.4-3.9
			c2.8-0.1,5.1,0.8,6.7,3c7,9.1,0.1,37.5-3.7,50.8c2.9-4.1,7-8.8,11.3-9.3c2.1-0.3,3.7,0.5,4.5,2.2c2,4.1-1.3,13.9-11.3,23.9
			l-1.3-1.3c9.9-9.8,12.4-18.8,11-21.8c-0.5-0.9-1.3-1.3-2.6-1.2c-6.5,0.8-13.5,14.3-13.6,14.5l-1.7-0.7c0-0.1,3.7-11.5,6.2-24
			c3.3-16.4,3.2-27.5-0.2-32c-1.2-1.6-2.9-2.3-5.1-2.2c-2.4,0.1-4.4,1.2-6,3.2c-10,12.4-3.3,54.7-3.2,55.1l-1.8,0.5
			c-3.6-9.7-14.7-35.1-22.9-36.2c-1.7-0.2-3.1,0.7-4.5,2.6c-10.2,14.8,20.1,41.8,20.4,42L1603.1,489.3z"/>
	</g>
</g>
<g>
	<g>
		<path class="st9" d="M1185.2,907.1c-6.2,0.8-12.6,13.2-12.6,13.2s17.3-53.3,0-52.4c-17.3,0.9-8.9,52.4-8.9,52.4
			s-16.1-43.6-25.6-29.7c-6.2,9.1,3.5,22.7,11,31c4.1,4.6,10,7.2,16.2,7.2h9c2.9,0,5.7-1.3,7.5-3.5
			C1190,915.4,1190.8,906.4,1185.2,907.1z"/>
	</g>
	<g>
		<path class="st26" d="M1158.3,929.4c-0.1-0.1-8-7.1-14.5-15.9c-8.8-11.9-10.9-21.8-6.3-28.6c1.8-2.6,3.9-3.7,6.3-3.4
			c4.7,0.6,10.3,7.1,16.5,19.4c2,3.9,3.8,7.9,5.1,11c-0.5-4.2-1-9.9-1.2-15.8c-0.6-16.6,1.4-27.9,5.8-33.4c2-2.5,4.5-3.8,7.4-3.9
			c2.8-0.1,5.1,0.9,6.7,3c7,9.1,0.1,37.5-3.7,50.8c2.9-4.1,7-8.8,11.3-9.3c2.1-0.3,3.7,0.5,4.5,2.2c2,4.1-1.3,13.9-11.3,23.9
			l-1.3-1.3c9.9-9.8,12.4-18.8,11-21.8c-0.5-0.9-1.3-1.3-2.6-1.2c-6.5,0.8-13.5,14.3-13.6,14.5l-1.7-0.7c0-0.1,3.7-11.5,6.2-24
			c3.3-16.4,3.2-27.5-0.2-32c-1.2-1.6-2.9-2.3-5.1-2.2c-2.4,0.1-4.4,1.2-6,3.2c-10,12.4-3.3,54.7-3.2,55.1l-1.8,0.5
			c-3.6-9.7-14.7-35.1-22.9-36.2c-1.7-0.2-3.1,0.7-4.5,2.6c-10.2,14.8,20.1,41.8,20.4,42L1158.3,929.4z"/>
	</g>
</g>
<g>
	<g>
		<polygon class="st21" points="1531.3,1510.9 1326.6,1523.8 1326.6,1332.4 1531.3,1315.4 		"/>
	</g>
	<g>
		<polygon class="st27" points="1326.6,1523.8 995.5,1484.5 995.5,1315.4 1326.6,1332.4 		"/>
	</g>
	<g>
		<path class="st21" d="M995.5,1315.4c0,0-27.9,25.8-29.9,26.5c-2,0.7,313,39.7,313,39.7l47.9-49.2L995.5,1315.4z"/>
	</g>
	<g>
		<polygon class="st21" points="1531.3,1315.4 1555.3,1348.5 1363.9,1381.6 1326.6,1332.4 		"/>
	</g>
	<g>
		<g>
			<path class="st10" d="M1363.9,1383c-0.4,0-0.9-0.2-1.2-0.6l-36.3-47.9l-46.7,48c-0.3,0.3-0.8,0.4-1.2,0.4l-283.2-35.6
				c-0.8-0.1-1.4-0.8-1.3-1.6c0.1-0.8,0.7-1.3,1.6-1.3l282.5,35.5l47.4-48.7c0.3-0.3,0.7-0.6,1.1-0.4c0.4,0,0.8,0.2,1.1,0.6
				l36.8,48.5l166.5-28.8c0.8-0.1,1.5,0.4,1.7,1.2c0.1,0.8-0.4,1.5-1.2,1.7l-167.3,28.9C1364.1,1383,1364,1383,1363.9,1383z"/>
		</g>
	</g>
</g>
<g>
	<path class="st26" d="M873.9,1507.8l-0.4-0.7c0,0,4.6-3.1,5.2-6.6c0.2-1.2-0.1-2.4-0.9-3.5c-0.6-0.8-1.3-1.1-2.1-1.1
		c-4,0.1-9.7,8.2-9.8,8.3l-1,1.5l0.3-1.8c0-0.1,1.3-7.3-1.3-9.5c-0.8-0.7-1.9-0.8-3.3-0.3c-1.5,0.5-2.5,1.4-3.1,2.8
		c-1.7,4,1.4,10.3,1.4,10.3l-0.7,0.4c-0.1-0.3-3.2-6.7-1.4-11c0.6-1.6,1.8-2.6,3.6-3.2c1.7-0.6,3.1-0.4,4.1,0.4
		c2.1,1.8,2,6.3,1.7,8.7c1.9-2.4,6.1-7.4,9.5-7.4c1.1,0,2,0.5,2.7,1.4c0.9,1.3,1.3,2.6,1,4.1
		C878.8,1504.5,874.1,1507.6,873.9,1507.8z"/>
</g>
<g>
	<path class="st26" d="M2150.2,1485.3l-0.4-0.7c0,0,4.6-3.1,5.2-6.6c0.2-1.2-0.1-2.4-0.9-3.5c-0.6-0.7-1.2-1.1-2-1.1c0,0,0,0,0,0
		c-4,0.1-9.7,8.2-9.8,8.3l-1,1.5l0.3-1.8c0-0.1,1.3-7.3-1.3-9.5c-0.8-0.7-1.9-0.8-3.3-0.3c-1.5,0.5-2.5,1.4-3.1,2.8
		c-1.7,4,1.4,10.3,1.4,10.3l-0.7,0.4c-0.1-0.3-3.2-6.7-1.4-11c0.6-1.6,1.8-2.6,3.6-3.2c1.7-0.6,3.1-0.4,4.1,0.4
		c2.1,1.8,2,6.3,1.7,8.7c1.9-2.4,6.1-7.4,9.5-7.4c1.1,0,2,0.5,2.7,1.4c0.9,1.3,1.3,2.6,1,4.1
		C2155.1,1482.1,2150.4,1485.2,2150.2,1485.3z"/>
</g>
<g>
	<path class="st26" d="M1092.7,1545.9c-0.2-0.1-5.2-3.5-5.9-7.6c-0.3-1.5,0.1-3,1.1-4.3c0.8-1,1.7-1.5,2.9-1.5
		c3.6,0.1,8.2,5.4,10.1,7.9c-0.3-2.5-0.4-7.3,1.8-9.2c1.1-0.9,2.5-1.1,4.3-0.5c1.8,0.6,3.1,1.8,3.8,3.4c1.9,4.6-1.4,11.3-1.5,11.6
		l-0.7-0.4c0-0.1,3.2-6.7,1.5-11c-0.6-1.4-1.7-2.4-3.3-3c-1.5-0.5-2.7-0.4-3.6,0.3c-2.7,2.3-1.4,10-1.4,10.1l0.3,1.8l-1-1.5
		c-0.1-0.1-6.2-8.8-10.4-8.8c-0.9,0-1.6,0.4-2.2,1.2c-0.8,1.1-1.2,2.4-0.9,3.7c0.7,3.8,5.5,7,5.6,7.1L1092.7,1545.9z"/>
</g>
<g>
	<path class="st26" d="M1820.6,1550.8c-0.2-2.3-1.1-4-2.5-4.9c-3.3-2.1-8.5-0.2-8.6-0.2l-1.8,0.7l1.3-1.4c0,0,3.8-4.2,3-7.3
		c-0.3-1.2-1.2-2-2.8-2.6c-6.7-2.3-12.1,11.2-12.4,11.9c0,0,0,0,0,0l-0.9-0.4c0,0,0,0,0,0c0.1-0.2,1.1-3-0.1-4.9
		c-0.7-1.2-2.2-1.8-4.3-1.9c-2-0.1-3.4,0.4-4.1,1.4c-1.4,2-0.1,5.4,0,5.4l-0.9,0.4c-0.1-0.2-1.5-3.9,0.2-6.3
		c0.9-1.3,2.6-1.9,4.9-1.8c2.5,0.1,4.2,0.9,5.1,2.3c0.5,0.7,0.7,1.5,0.7,2.3c2.2-4.3,6.7-11.3,12.2-9.4c1.9,0.7,3.1,1.8,3.4,3.2
		c0.6,2.5-1.1,5.3-2.3,6.9c2-0.5,5.4-0.9,8,0.7c1.8,1.1,2.8,3,3,5.7L1820.6,1550.8z"/>
</g>
<g>
	<path class="st26" d="M1540.9,1542.8c-0.5-0.5-12.7-13-8.3-20.5c0.7-1.2,1.5-1.7,2.5-1.6c3.2,0.4,6.8,8.8,8.6,13.8
		c-0.6-6.3-1.3-18.6,2.1-22.8c0.7-0.9,1.7-1.4,2.7-1.5c1-0.1,1.9,0.3,2.5,1.1c3.1,3.8,0.3,17.3-1.2,23.6c1.1-1.9,2.8-3.9,4.4-4.2
		c0.8-0.1,1.4,0.2,1.8,0.8c1,1.8-0.4,6.5-4.4,11.2l-0.6-0.5c4-4.6,5.1-8.9,4.3-10.3c-0.2-0.3-0.5-0.5-0.9-0.4
		c-2.1,0.3-4.6,4.9-5.4,6.7l-0.8-0.3c0.1-0.2,6-21.6,2.2-26.2c-0.5-0.6-1.1-0.8-1.8-0.8c-0.8,0-1.5,0.4-2.1,1.2
		c-4.3,5.3-1.6,25.6-1.5,25.8l-0.8,0.2c-1.4-4.5-5.9-16.3-9.1-16.7c-0.6-0.1-1.2,0.3-1.7,1.2c-4.1,6.9,8,19.4,8.1,19.5
		L1540.9,1542.8z"/>
</g>
<g>
	<g>
		<path class="st0" d="M1865.1,1493.6c0,0-16.3-16.6-10.7-26s15.1,20.3,15.1,20.3s-4.9-35.2,5.3-35.8c10.2-0.6,0,35.8,0,35.8
			s3.8-8.5,7.4-9c3.7-0.5,2.6,7.2-3.9,14.8H1865.1z"/>
	</g>
	<g>
		<path class="st26" d="M1866.2,1494.1c0,0-4.7-4.8-8.5-10.9c-5.2-8.2-6.4-14.8-3.7-19.4c1-1.7,2.3-2.5,3.7-2.4
			c4.8,0.5,10,13,12.7,20.4c-0.9-9.2-1.9-27.5,3.1-33.7c1.1-1.3,2.4-2.1,4-2.2c1.5-0.1,2.7,0.4,3.7,1.6c4.6,5.6,0.4,25.6-1.8,34.9
			c1.7-2.7,4.1-5.8,6.5-6.1c1.2-0.2,2.1,0.3,2.6,1.2c1.5,2.7-0.6,9.6-6.5,16.5l-0.9-0.8c5.9-6.8,7.5-13.1,6.4-15.1
			c-0.3-0.5-0.7-0.7-1.4-0.6c-3.2,0.5-6.8,7.3-8,9.9l-1.1-0.4c0.1-0.3,8.8-31.9,3.3-38.7c-0.7-0.9-1.6-1.2-2.7-1.2
			c-1.2,0.1-2.2,0.6-3.1,1.7c-6.4,7.8-2.3,37.9-2.3,38.2l-1.2,0.3c-2.1-6.7-8.7-24.2-13.5-24.7c-0.9-0.1-1.7,0.5-2.5,1.8
			c-6,10.2,11.8,28.6,12,28.8L1866.2,1494.1z"/>
	</g>
</g>
<g>
	<g>
		<path class="st0" d="M484.7,1412.4c0,0-21.3-21.7-14-34.1c7.3-12.4,19.7,26.6,19.7,26.6s-6.4-46,6.9-46.8c13.3-0.8,0,46.8,0,46.8
			s4.9-11.1,9.7-11.8c4.8-0.7,3.4,9.4-5.2,19.3H484.7z"/>
	</g>
	<g>
		<path class="st26" d="M486.2,1412.9c-0.1-0.1-6.2-6.3-11.1-14.2c-6.8-10.8-8.4-19.3-4.8-25.4c1.3-2.3,3-3.3,4.8-3.1
			c3.7,0.4,8,6.2,12.8,17.2c1.5,3.4,2.8,6.7,3.8,9.5c-1.2-12-2.5-36,4.1-44.1c1.4-1.8,3.2-2.7,5.2-2.8c2-0.1,3.6,0.6,4.8,2.1
			c6,7.4,0.6,33.5-2.4,45.7c2.2-3.6,5.3-7.6,8.5-8c1.5-0.2,2.7,0.3,3.4,1.6c1.9,3.5-0.7,12.6-8.5,21.6l-1.2-1
			c7.7-8.8,9.8-17.2,8.4-19.8c-0.4-0.7-0.9-0.9-1.8-0.8c-4.1,0.6-8.9,9.5-10.4,12.9l-1.5-0.5c0-0.1,2.9-10.6,4.9-22.1
			c2.6-15,2.4-24.9-0.6-28.5c-0.9-1.1-2-1.6-3.5-1.5c-1.6,0.1-2.9,0.8-4.1,2.3c-8.4,10.2-3,49.6-3,50l-1.5,0.3
			c-2.8-8.7-11.4-31.6-17.6-32.3c-1.2-0.1-2.3,0.6-3.3,2.4c-7.9,13.4,15.5,37.5,15.7,37.7L486.2,1412.9z"/>
	</g>
</g>
<g>
	<g>
		<path class="st0" d="M1253.4,1525.1c0,0-16.3-16.6-10.7-26c5.6-9.5,15.1,20.3,15.1,20.3s-4.9-35.2,5.3-35.8
			c10.2-0.6,0,35.8,0,35.8s3.8-8.5,7.4-9c3.7-0.5,2.6,7.2-3.9,14.8H1253.4z"/>
	</g>
	<g>
		<path class="st26" d="M1254.6,1525.6c0,0-4.7-4.8-8.5-10.9c-5.2-8.2-6.4-14.8-3.7-19.4c1-1.7,2.3-2.5,3.7-2.4
			c4.8,0.5,10,13,12.7,20.4c-0.9-9.2-1.9-27.5,3.1-33.7c1.1-1.3,2.4-2.1,4-2.2c1.5-0.1,2.7,0.4,3.7,1.6c4.6,5.6,0.4,25.6-1.8,34.9
			c1.7-2.7,4.1-5.8,6.5-6.1c1.2-0.2,2.1,0.3,2.6,1.2c1.5,2.7-0.6,9.6-6.5,16.5l-0.9-0.8c5.9-6.8,7.5-13.1,6.4-15.2
			c-0.3-0.5-0.7-0.7-1.4-0.6c-3.2,0.5-6.8,7.3-8,9.9l-1.1-0.4c0.1-0.3,8.8-31.9,3.3-38.7c-0.7-0.9-1.6-1.2-2.7-1.2
			c-1.2,0.1-2.2,0.6-3.1,1.7c-6.4,7.8-2.3,37.9-2.3,38.2l-1.2,0.3c-2.1-6.7-8.7-24.2-13.5-24.7c-0.9-0.1-1.7,0.5-2.5,1.8
			c-6,10.2,11.8,28.6,12,28.8L1254.6,1525.6z"/>
	</g>
</g>
<g>
	<g>
		<path class="st8" d="M1191.2,745.8L1191.2,745.8c-7.5,2.2-15.3-2-17.6-9.5l-23.9-79.4c-2.2-7.5,2-15.3,9.5-17.6l0,0
			c7.5-2.2,15.3,2,17.6,9.5l23.9,79.4C1202.9,735.7,1198.6,743.6,1191.2,745.8z"/>
	</g>
	<g>
		<path class="st8" d="M1224.2,638l-115.8,34.8c-9.3,2.8-19.2-2.5-22-11.8l-8.4-27.9l149.7-44.9l8.4,27.9
			C1238.8,625.3,1233.5,635.2,1224.2,638z"/>
	</g>
	<g>
		
			<rect x="1071.2" y="587.6" transform="matrix(0.9578 -0.2876 0.2876 0.9578 -123.7779 355.8339)" class="st28" width="156.3" height="23.4"/>
	</g>
	<g>
		<path class="st9" d="M1220.9,565.6c0,0-3-23.3-11.4-45.4c-7.4-19.4-28.5-29.8-48.3-23.8l-107.3,32.2c-12.6,3.8-17.4,19-9.2,29.3
			c11.4,14.3,24.2,34,26.5,52.6L1220.9,565.6z"/>
	</g>
</g>
<g>
	<g>
		<path class="st12" d="M843.9,926.4L843.9,926.4c-1.9-0.2-3.7,1.3-3.8,3.2l-2.5,30.1c-0.2,1.9,1.3,3.7,3.2,3.8l0,0
			c1.9,0.2,3.7-1.3,3.8-3.2l2.5-30.1C847.3,928.3,845.9,926.6,843.9,926.4z"/>
	</g>
	<g>
		<path class="st12" d="M853,927.2L853,927.2c-1.9-0.2-3.7,1.3-3.8,3.2l-2.7,33.6c-0.2,1.9,1.3,3.7,3.2,3.8l0,0
			c1.9,0.2,3.7-1.3,3.8-3.2l2.7-33.6C856.4,929,854.9,927.3,853,927.2z"/>
	</g>
	<g>
		<path class="st12" d="M856.8,909.9l-1,0.7c-2,1.3-2.5,4-1.2,5.9l12.8,19c1.3,2,4,2.5,5.9,1.2l1-0.7c2-1.3,2.5-4,1.2-5.9l-12.8-19
			C861.4,909.1,858.8,908.6,856.8,909.9z"/>
	</g>
	<g>
		<path class="st12" d="M862,927.9L862,927.9c-1.9-0.2-3.7,1.3-3.8,3.2l-2.2,27c-0.2,1.9,1.3,3.7,3.2,3.8l0,0
			c1.9,0.2,3.7-1.3,3.8-3.2l2.2-27C865.4,929.8,863.9,928.1,862,927.9z"/>
	</g>
	<g>
		<path class="st12" d="M839.2,908.8c0,0-11.6,16.5-7.5,30.3c1.4,4.8,28,6.2,30.9,1.4c2.8-4.8,2.5-23.1,2.5-23.1L839.2,908.8z"/>
	</g>
	<g>
		<path class="st12" d="M835,925.7L835,925.7c-1.9-0.2-3.6,1.3-3.8,3.2l-2.2,26.9c-0.2,1.9,1.3,3.6,3.2,3.8l0,0
			c1.9,0.2,3.6-1.3,3.8-3.2l2.2-26.9C838.4,927.6,836.9,925.8,835,925.7z"/>
	</g>
</g>
<g>
	<g>
		<path class="st12" d="M1185.4,717.7l0.8,0.6c1.4,1,3.3,0.6,4.2-0.7l10.7-15.1c1-1.4,0.6-3.3-0.7-4.2l-0.8-0.6
			c-1.4-1-3.3-0.6-4.2,0.7l-10.7,15.1C1183.7,714.9,1184,716.8,1185.4,717.7z"/>
	</g>
	<g>
		<path class="st12" d="M1178,712.5l0.7,0.5c1.4,1,3.3,0.7,4.3-0.7l14-19.7c1-1.4,0.7-3.3-0.7-4.3l-0.7-0.5c-1.4-1-3.3-0.7-4.3,0.7
			l-14,19.7C1176.3,709.6,1176.6,711.6,1178,712.5z"/>
	</g>
	<g>
		<path class="st12" d="M1166.2,725.7l1.3-0.1c2.3-0.1,4.2-2.2,4-4.5l-1.3-22.9c-0.1-2.3-2.2-4.2-4.5-4l-1.3,0.1
			c-2.3,0.1-4.2,2.2-4,4.5l1.3,22.9C1161.9,724,1163.9,725.8,1166.2,725.7z"/>
	</g>
	<g>
		<path class="st12" d="M1171,707.6L1171,707.6c1.6,1.1,3.8,0.7,4.9-0.8l15.6-22.1c1.1-1.6,0.7-3.8-0.8-4.9l0,0
			c-1.6-1.1-3.8-0.7-4.9,0.8l-15.6,22.1C1169,704.2,1169.4,706.4,1171,707.6z"/>
	</g>
	<g>
		<path class="st12" d="M1180.8,735.6c0,0,18.4-8.3,21.9-22.2c1.2-4.8-16.9-24.9-21.8-22.2c-4.9,2.7-18,23.8-18,23.8L1180.8,735.6z"
			/>
	</g>
	<g>
		<path class="st12" d="M1192.6,722.9l1,0.7c1.3,0.9,3.1,0.6,4-0.7l8.6-12.2c0.9-1.3,0.6-3.1-0.7-4l-1-0.7c-1.3-0.9-3.1-0.6-4,0.7
			l-8.6,12.2C1191,720.1,1191.3,722,1192.6,722.9z"/>
	</g>
</g>
<g>
	<g>
		<path class="st12" d="M869.7,921.2c13.7-37,36.2-89,65.9-127.1c6.9-8.8,9.6-12.1,14.4-16.6c3.8-3.7,1.7-14.5-4.5-21.1
			c-5.8-6.2-16.9-8.4-19.1-6.7c-3.9,2.8-8.9,8.9-16.7,18.6c-27.2,33.7-50.6,80.4-71.9,143L869.7,921.2z"/>
	</g>
</g>
<g class="st23">
	<path class="st13" d="M884.9,833.6c-0.6,0-1.2-0.1-1.7-0.4c-2.8-1.3-3.6-5.5-1.8-9.4c1.8-3.9,5.5-6.1,8.3-4.8
		c2.8,1.3,3.6,5.5,1.8,9.4c-0.8,1.9-2.1,3.4-3.6,4.3C886.9,833.3,885.9,833.6,884.9,833.6z M887.9,820c-1.9,0-4.1,1.7-5.2,4.3
		c-1.4,3.1-0.9,6.6,1.1,7.5c0.9,0.4,2.1,0.3,3.3-0.4c1.3-0.8,2.4-2.1,3.1-3.7c1.4-3.1,0.9-6.6-1.1-7.5
		C888.7,820.1,888.3,820,887.9,820z"/>
</g>
<g>
	<path class="st12" d="M1011.7,733.7l4.1-17.8l1.2-5.2l7-30.4l3.4,29.5l2,17.7l0.6,5.6c0.4,3.8,2.8,4.4,5.9,7.5
		c1.2,1.3,9.2,8.9,1.1,13.2c-10,5.4-29.9-0.1-38-8.7C999.1,745.1,1010.3,739.5,1011.7,733.7z"/>
</g>
<g>
	<path class="st12" d="M1049.3,686.2c-3.6-17.3-18.1-28.9-32.5-25.9c-14.3,3-23,19.4-19.4,36.7c3.6,17.3,18.1,28.9,32.4,25.9
		C1044.2,719.9,1052.9,703.4,1049.3,686.2z"/>
</g>
<g>
	<path class="st10" d="M1037.4,679.3c15.2-0.6,21.8-9.8,21.4-17.9c-0.5-10.4-7.7-19.1-15.1-14.6c-7.3,4.4-4.7-5.3-12.1-5.7
		c-13.8-0.9-15.6,9-26.7,10.3c-14.7,1.7-29.6,27.5-16,44.5C988.9,695.9,1025.5,679.8,1037.4,679.3z"/>
</g>
<g>
	<path class="st10" d="M1050.1,667.9c0,0-15,16.7-12.2,25.3c2.8,8.6,2.5,12.1-6.6,17.4c-9.1,5.4-0.2,12.3-12.7,13.8
		c-12.5,1.5-29-12.2-30.8-36.6c-1-13.6,6.1-23.1,6.1-23.1L1050.1,667.9z"/>
</g>
<g>
	<path class="st12" d="M1046,692.2c-2-2.5-5.4-3-7.6-1.2c-2.2,1.8-2.3,5.3-0.3,7.7c2,2.5,5.4,3,7.6,1.2
		C1047.9,698.2,1048,694.7,1046,692.2z"/>
</g>
<g>
	<path class="st10" d="M992.1,692.4c0,0-0.1,0-0.1,0c-0.2-0.1-0.3-0.3-0.2-0.5c1.3-3.5,4.9-5,5-5.1c0.2-0.1,0.4,0,0.5,0.2
		c0.1,0.2,0,0.4-0.2,0.5c0,0-3.4,1.5-4.6,4.6C992.4,692.3,992.3,692.4,992.1,692.4z"/>
</g>
<g>
	<path class="st10" d="M997.2,685.7C997.2,685.7,997.2,685.7,997.2,685.7c-0.1,0-4.7-1-4.9-4.8c0-0.2,0.2-0.4,0.4-0.4
		c0.2,0,0.4,0.2,0.4,0.4c0.1,3.2,4.1,4.1,4.2,4.1c0.2,0,0.3,0.2,0.3,0.5C997.6,685.6,997.4,685.7,997.2,685.7z"/>
</g>
<g>
	<path class="st10" d="M1041.3,646.3c-0.4,0-0.8-0.1-1.2-0.3c-2.1-1.2-2.9-5.4-2.9-5.6c0-0.2,0.1-0.4,0.3-0.5c0.2,0,0.4,0.1,0.5,0.3
		c0,0,0.7,4,2.5,5c0.5,0.3,1,0.3,1.6,0.1c1.1-0.4,2-1.1,2.8-1.8c1.6-1.3,3.3-2.6,6.9-1.8c0.2,0.1,0.3,0.3,0.3,0.5
		c0,0.2-0.3,0.3-0.5,0.3c-3.2-0.8-4.6,0.3-6.2,1.6c-0.9,0.7-1.7,1.4-3,1.9C1041.9,646.3,1041.6,646.3,1041.3,646.3z"/>
</g>
<g>
	<path class="st10" d="M1005.2,650.1c-0.3,0-0.6,0-0.9,0c-0.2,0-0.4-0.2-0.4-0.4c0-0.2,0.2-0.4,0.4-0.4c5.9,0.5,10.4-4.5,10.5-4.5
		c0.1-0.2,0.4-0.2,0.6,0c0.2,0.1,0.2,0.4,0,0.6C1015.2,645.4,1010.9,650.1,1005.2,650.1z"/>
</g>
<g>
	<path class="st10" d="M1042.3,701.3c-1.3,0-3.3-0.6-5.1-3.5c-0.1-0.1,0-0.2,0.1-0.3c0.1-0.1,0.2,0,0.3,0.1c2.7,4.4,5.9,3.2,6,3.1
		c0.1,0,0.2,0,0.2,0.1c0,0.1,0,0.2-0.1,0.2C1043.6,701.1,1043.1,701.3,1042.3,701.3z"/>
</g>
<g>
	<g>
		<path class="st12" d="M1183.8,733.5c3-7.3-20.6-19.9-20.6-19.9c-2.6-0.6-22.5,44.9-65.5,48.9c-15.3,1.4-44.1-14.3-46.9-17.3
			c-0.4-0.4-25.6,23-25.6,23c5.1,5.3,16.5,24.3,36.7,31.5C1103.7,814.7,1171.8,782.8,1183.8,733.5z"/>
	</g>
</g>
<g>
	<path class="st10" d="M997.1,1226c0,0,0.3,11.2,7.8,14.3c7.6,3.1,29.4,6,21.3,13.2c-4.7,4.1-26.8,1.5-33.1,1.5
		c-6.2,0-12.1,2.7-16.8-1.5c-5.1-4.6,0-27.5,0-27.5s5.4,2.8,10.2,2.7C993.6,1228.5,997.1,1226,997.1,1226z"/>
</g>
<g>
	<path class="st11" d="M1062.3,889.1c0,0,1.5,50.4-14.6,147.1c-11.6,69.8-25.3,140.1-32,173.8c-2.4,12.1-12.5,20.9-24.6,21.4
		l-6.5,0.3c-13,0.5-23.5-10.6-22.6-23.9l16.3-228.1l4-75.1L1062.3,889.1z"/>
</g>
<g>
	<path class="st10" d="M925.5,1226c0,0,0.3,11.2,7.8,14.3c7.6,3.1,29.4,6,21.3,13.2c-4.7,4.1-26.8,1.5-33.1,1.5
		c-6.2,0-12.1,2.7-16.7-1.5c-5.1-4.6,0-27.5,0-27.5s5.4,2.8,10.2,2.7C922,1228.5,925.5,1226,925.5,1226z"/>
</g>
<g>
	<path class="st11" d="M990.7,889.1c0,0,1.5,50.4-14.6,147.1c-11.6,69.8-25.3,140.1-32,173.8c-2.4,12.1-12.5,20.9-24.6,21.4
		l-6.5,0.3c-13,0.5-23.5-10.6-22.6-23.9l16.3-228.1l4-75.1L990.7,889.1z"/>
</g>
<g>
	<path class="st9" d="M940.7,757.3c0,0,12.4-30.4,71.2-22.5c84.8,11.4,66,88.2,57.2,207.6c0,0-81.8-23.5-163.2-17.7
		C905.9,924.7,915.5,802.9,940.7,757.3z"/>
</g>
<g>
	<path class="st9" d="M907.9,756c0,0,10.1,33.2,36.6,43c25.2,9.3,113.7,25.3,132.3,12c41-29.2,18.2-69.2,18.2-69.2
		s-23.3,9.5-62.7-2.7c-3.7-1.2-7.6-2.2-11.6-3c-6.8-1.4-13.7-2.1-20.5-2.5C937.5,730.3,907.9,756,907.9,756z"/>
</g>
<g>
	<path class="st9" d="M905.7,926.2c-0.7,6,35.4,13.6,80.6,18.5c45.2,4.9,82.1,3.8,82.8-2.3s-35-14.7-80.3-19.6
		C943.6,917.8,906.4,920.1,905.7,926.2z"/>
</g>
<g>
	<path class="st10" d="M972.8,1057.7C972.7,1057.7,972.7,1057.7,972.8,1057.7c-0.4-0.1-0.5-0.3-0.5-0.6c9.3-51.1-16-84-16.3-84.3
		c-0.2-0.2-0.1-0.5,0.1-0.7c0.2-0.2,0.5-0.1,0.7,0.1c0.3,0.3,25.8,33.5,16.5,85.1C973.2,1057.6,973,1057.7,972.8,1057.7z"/>
</g>
</svg>
