<svg xmlns="http://www.w3.org/2000/svg" xmlns:xlink="http://www.w3.org/1999/xlink" width="500" zoomAndPan="magnify" viewBox="0 0 375 374.999991" height="500" preserveAspectRatio="xMidYMid meet" version="1.0"><path fill="#e30917" d="M 476.464844 317.308594 C 476.464844 349.167969 450.621094 375 418.746094 375 L 14.71875 375 C -17.15625 375 -43 349.167969 -43 317.308594 L -43 57.691406 C -43 25.832031 -17.15625 0 14.71875 0 L 418.746094 0 C 450.621094 0 476.464844 25.832031 476.464844 57.691406 Z M 476.464844 317.308594 " fill-opacity="1" fill-rule="nonzero"/><path fill="#eeeeee" d="M 187.875 274.039062 C 140.054688 274.039062 101.296875 235.3125 101.296875 187.5 C 101.296875 139.703125 140.054688 100.960938 187.875 100.960938 C 206.777344 100.960938 224.234375 107.089844 238.476562 117.375 C 219.027344 95.394531 190.6875 81.445312 159.015625 81.445312 C 100.414062 81.445312 52.914062 128.929688 52.914062 187.5 C 52.914062 246.085938 100.414062 293.566406 159.015625 293.566406 C 190.6875 293.566406 219.042969 279.621094 238.476562 257.625 C 224.25 267.910156 206.804688 274.039062 187.875 274.039062 Z M 244.335938 190.816406 L 279.542969 198.921875 L 282.71875 234.878906 L 301.304688 203.929688 L 336.511719 212.019531 L 312.789062 184.789062 L 331.359375 153.820312 L 298.128906 167.957031 L 274.40625 140.710938 L 277.582031 176.683594 Z M 244.335938 190.816406 " fill-opacity="1" fill-rule="nonzero"/></svg>