<?xml version="1.0" encoding="UTF-8"?><svg id="Layer_1" xmlns="http://www.w3.org/2000/svg" viewBox="0 0 401.79 307.28"><defs><style>.cls-1{fill:#f95e63;}.cls-2{fill:#ddd;}.cls-3{fill:#ff5249;}.cls-4{fill:#fff;}.cls-5{fill:#ff8a8b;}.cls-6{fill:#ff9e88;}.cls-7{opacity:.29;}.cls-7,.cls-8{fill:#e9ecf1;}.cls-9,.cls-10{fill:#ff7267;}.cls-11{fill:#010131;}.cls-12{fill:#0e0e68;}.cls-13{fill:#2db6ba;}.cls-10{opacity:.57;}.cls-14{fill:#060423;}.cls-15{fill:#001427;}.cls-16{fill:#55ccd5;}.cls-17{fill:#ff8883;}.cls-18{fill:#9ad297;}.cls-19{fill:#18142d;}.cls-20{fill:#ed6c58;}.cls-21{fill:#54d5a7;}.cls-22{fill:#1a3141;}.cls-23{fill:#36bd84;}.cls-24{fill:#ed3f48;}.cls-25{fill:#424eee;}.cls-26{fill:#fd7c48;}.cls-27{fill:#88b2fc;}</style></defs><g><path class="cls-21" d="M313.55,278.28s-.07,0-.1-.01c-.27-.06-.44-.33-.38-.6,16.72-70.07,32.8-119.8,45.3-140.03,.28-.45,.48-.77,.55-.94,.11-.25,.42-.36,.67-.25,.26,.11,.37,.41,.26,.66-.1,.22-.29,.53-.61,1.05-12.44,20.14-28.48,69.77-45.18,139.74-.06,.23-.27,.39-.51,.38Z"/><path class="cls-21" d="M367.7,133.52c-1.49,2.28-9.41,6.77-10.07,6.35-.66-.42,.21-9.37,1.7-11.65,1.49-2.28,4.57-2.93,6.88-1.47,2.31,1.46,2.98,4.49,1.49,6.77Z"/><path class="cls-21" d="M352.34,141.1c.97,2.6-.18,11.73-.93,12-.75,.27-7.65-5.94-8.63-8.54-.97-2.6,.38-5.48,3.02-6.44,2.64-.96,5.57,.37,6.54,2.97Z"/><path class="cls-21" d="M363.07,156.3c-2.79,.35-11.58-2.81-11.68-3.59-.1-.78,7.6-6,10.4-6.35,2.79-.35,5.34,1.6,5.69,4.34,.35,2.75-1.62,5.25-4.41,5.6Z"/><path class="cls-21" d="M331.18,188.15c2.1,4.16,1.86,19.61,.66,20.2-1.21,.59-13.86-8.55-15.97-12.71-2.1-4.16-.38-9.21,3.85-11.28,4.23-2.07,9.36-.37,11.46,3.79Z"/><path class="cls-21" d="M351.89,211.61c-4.59,1.08-19.83-2.63-20.15-3.92-.31-1.29,11.59-11.37,16.18-12.45,4.59-1.08,9.2,1.71,10.3,6.23,1.1,4.52-1.74,9.06-6.33,10.13Z"/><path class="cls-21" d="M320.01,206.1c3.65,4.41,7.59,22.91,6.31,23.94-1.28,1.02-18.89-6.53-22.54-10.94-3.65-4.41-2.97-10.89,1.51-14.48,4.48-3.59,11.07-2.92,14.72,1.49Z"/><path class="cls-21" d="M349.43,236.66c-5.73,.74-23.81-5.66-24.02-7.27-.22-1.61,15.56-12.4,21.29-13.14,5.73-.74,10.98,3.22,11.74,8.86,.75,5.64-3.28,10.81-9,11.55Z"/><path class="cls-21" d="M313.83,228.99c3.65,4.41,7.59,22.91,6.31,23.94-1.28,1.02-18.89-6.53-22.54-10.94-3.65-4.41-2.97-10.89,1.51-14.48,4.48-3.59,11.07-2.92,14.72,1.49Z"/><path class="cls-21" d="M343.25,259.55c-5.73,.74-23.81-5.66-24.02-7.27-.22-1.61,15.56-12.4,21.29-13.14,5.73-.74,10.98,3.22,11.74,8.86,.76,5.64-3.28,10.81-9,11.55Z"/><path class="cls-21" d="M298.97,258.19c5.08,2.71,15.89,18.34,15.1,19.77-.79,1.43-19.99,1.04-25.07-1.67-5.08-2.71-6.96-8.96-4.21-13.96,2.75-5,9.1-6.85,14.18-4.14Z"/><path class="cls-21" d="M337.93,282.15c-5.59,1.44-24.34-2.69-24.76-4.26-.42-1.57,13.86-14.22,19.45-15.66,5.59-1.44,11.31,1.85,12.77,7.35,1.47,5.5-1.88,11.13-7.47,12.57Z"/><path class="cls-21" d="M345.82,155.74c.99,2.64-.18,11.92-.94,12.2-.77,.28-7.78-6.03-8.77-8.67-.99-2.64,.38-5.57,3.06-6.54,2.68-.97,5.66,.38,6.65,3.02Z"/><path class="cls-21" d="M356.37,171.38c-2.84,.35-11.76-2.86-11.86-3.65-.1-.8,7.73-6.1,10.56-6.45,2.84-.35,5.42,1.62,5.78,4.41,.36,2.79-1.65,5.34-4.48,5.69Z"/><path class="cls-21" d="M338.2,169.44c1.71,3.62,1.16,16.9,.11,17.38-1.05,.48-11.73-7.65-13.44-11.28-1.71-3.62-.12-7.92,3.57-9.61,3.68-1.69,8.05-.11,9.77,3.51Z"/><path class="cls-21" d="M355.01,191.56c-4.03,.5-16.71-4.06-16.85-5.19-.15-1.13,10.98-8.66,15.01-9.16,4.03-.5,7.71,2.3,8.22,6.27,.51,3.96-2.34,7.58-6.37,8.09Z"/></g><g><path class="cls-13" d="M328.06,284.12s-26.77-41.81,53.12-74.66c0,0,1.31,87.75-53.12,74.66Z"/><path class="cls-16" d="M381.28,209.31l-55.62,69.04c-4.13-12.49-6.54-43.48,55.62-69.04Z"/></g><g><path class="cls-21" d="M118.61,274.75s.07-.02,.11-.03c.29-.12,.43-.45,.31-.74-31.9-75.41-59.26-128.16-77.05-148.54-.4-.45-.68-.78-.79-.95-.18-.26-.53-.33-.8-.16-.27,.17-.34,.52-.16,.78,.15,.23,.43,.54,.88,1.06,17.72,20.28,45.01,72.93,76.87,148.23,.11,.25,.38,.39,.64,.34Z"/><path class="cls-21" d="M30.74,122.53c2.09,2.28,11.81,5.86,12.47,5.27,.66-.59-2-10.46-4.09-12.73-2.09-2.28-5.67-2.45-7.98-.39s-2.49,5.58-.4,7.85Z"/><path class="cls-21" d="M49.37,128.21c-.6,3.08,2.4,13.1,3.3,13.27,.89,.17,7.45-8.04,8.05-11.13,.6-3.08-1.45-6.07-4.59-6.66-3.14-.59-6.16,1.43-6.76,4.51Z"/><path class="cls-21" d="M40.22,147.19c3.19-.12,12.43-5.26,12.4-6.15-.03-.9-9.64-5.33-12.83-5.22-3.19,.12-5.68,2.76-5.56,5.9,.12,3.14,2.8,5.59,5.99,5.47Z"/><path class="cls-21" d="M81.91,177.04c-1.57,5.04,1.6,22.29,3.07,22.73,1.46,.44,13.92-12.1,15.49-17.14,1.57-5.04-1.31-10.38-6.43-11.93-5.12-1.55-10.55,1.29-12.12,6.33Z"/><path class="cls-21" d="M63.14,207.08c5.34,.37,21.71-6.56,21.82-8.06,.11-1.5-15.11-10.62-20.46-10.99-5.34-.37-9.98,3.59-10.36,8.85-.38,5.26,3.65,9.82,9,10.19Z"/><path class="cls-21" d="M97.79,195.1c-3.25,5.6-4.19,27.04-2.56,27.95,1.62,.91,19.92-10.75,23.18-16.35,3.25-5.6,1.28-12.74-4.41-15.94-5.69-3.2-12.94-1.26-16.2,4.34Z"/><path class="cls-21" d="M70.6,234.68c6.55-.21,25.59-10.67,25.53-12.51-.06-1.84-19.75-11.05-26.31-10.84-6.55,.21-11.69,5.61-11.48,12.06,.21,6.45,5.7,11.5,12.25,11.29Z"/><path class="cls-21" d="M109.02,219.61c-3.25,5.6-4.19,27.04-2.56,27.95,1.62,.91,19.92-10.75,23.18-16.35,3.25-5.6,1.28-12.74-4.41-15.94-5.69-3.2-12.94-1.26-16.2,4.34Z"/><path class="cls-21" d="M81.83,259.18c6.55-.21,25.59-10.67,25.53-12.51-.06-1.84-19.75-11.05-26.31-10.84-6.55,.21-11.69,5.61-11.48,12.06,.21,6.45,5.7,11.5,12.25,11.29Z"/><path class="cls-21" d="M131.15,249.59c-5.18,3.96-14.34,23.43-13.19,24.88,1.15,1.45,22.58-2.47,27.76-6.43,5.18-3.96,6.11-11.3,2.09-16.39-4.02-5.09-11.48-6.01-16.66-2.06Z"/><path class="cls-21" d="M92.03,283.52c6.53,.6,26.75-7.44,26.92-9.27,.17-1.83-18.19-13.4-24.72-13.99-6.53-.6-12.31,4.13-12.92,10.55-.61,6.42,4.19,12.12,10.72,12.71Z"/><path class="cls-21" d="M59.42,143.42c-.61,3.13,2.44,13.31,3.35,13.48,.91,.17,7.57-8.17,8.18-11.31,.61-3.13-1.48-6.16-4.66-6.76-3.19-.6-6.26,1.45-6.87,4.59Z"/><path class="cls-21" d="M50.56,162.85c3.24-.12,12.63-5.34,12.6-6.25-.03-.91-9.8-5.42-13.04-5.3-3.24,.12-5.77,2.8-5.65,5.99,.12,3.19,2.85,5.68,6.09,5.56Z"/><path class="cls-21" d="M70.54,157.37c-1.24,4.37,1.88,19.13,3.15,19.48,1.27,.35,11.69-10.7,12.93-15.07,1.24-4.37-1.36-8.89-5.8-10.11-4.44-1.22-9.04,1.34-10.28,5.71Z"/><path class="cls-21" d="M55.87,185.2c4.6-.17,17.95-7.59,17.9-8.88-.05-1.29-13.92-7.7-18.52-7.53-4.6,.17-8.2,3.98-8.02,8.51,.17,4.53,4.05,8.07,8.65,7.89Z"/></g><g><path class="cls-16" d="M348.82,288.08s-7.98-29.6,45.44-34.5c0,0-15.7,52.14-45.44,34.5Z"/><path class="cls-13" d="M394.26,253.58l-45.44,34.5s25.7,21.09,45.44-34.5Z"/><path class="cls-16" d="M371.63,270.3c-.07,0-.14-.04-.15-.11-.02-.08,.03-.15,.11-.17l12.97-2.64c.08-.01,.15,.03,.17,.11,.02,.08-.03,.15-.11,.17l-12.97,2.64h-.01Z"/><path class="cls-25" d="M371.13,282.75h0l-17.43,1.78c-.08,0-.15-.05-.16-.13,0-.08,.05-.15,.13-.15h0l17.43-1.78c.08,0,.15,.05,.16,.13,0,.08-.05,.15-.13,.15Z"/></g><g><path class="cls-13" d="M76.65,279.34s39.55-30.48-24.43-87.96c0,0-31.33,82.2,24.43,87.96Z"/><path class="cls-16" d="M52.18,191.22l28.71,83.49c8.18-10.39,21.07-38.77-28.71-83.49Z"/><path class="cls-11" d="M79.63,271.32s-.07-.05-.09-.09l-27.49-79.96c-.03-.07,.01-.16,.09-.18,.08-.03,.16,.01,.18,.09l27.49,79.96c.03,.07-.01,.16-.09,.18-.03,.01-.07,0-.1,0Z"/><path class="cls-11" d="M66.49,233.1h-.02l-20.8-11.45c-.07-.04-.09-.13-.06-.19,.04-.07,.13-.09,.2-.05l20.8,11.44c.07,.04,.09,.13,.06,.19-.04,.06-.11,.09-.18,.06Z"/><path class="cls-11" d="M72.38,250.23c-.07-.02-.11-.09-.09-.16l4.09-22.67c.01-.08,.09-.13,.17-.12,.08,.01,.13,.09,.12,.17l-4.09,22.67c-.01,.08-.09,.13-.17,.12h-.02Z"/></g><g><path class="cls-16" d="M72.39,277.9s-1.92-41.1-72.39-26.14c0,0,41.53,60.56,72.39,26.14Z"/><path class="cls-13" d="M0,251.76l72.39,26.14S48.12,315.14,0,251.76Z"/></g><ellipse class="cls-8" cx="204.48" cy="289.33" rx="197.3" ry="17.95"/><g><path class="cls-21" d="M281.3,128.25s-.04-.02-.05-.03c-.14-.1-.17-.29-.07-.42,26.05-35.32,46.91-59.42,58.72-67.85,.26-.19,.45-.32,.53-.4,.12-.11,.32-.11,.43,.01,.12,.12,.11,.31-.01,.43-.11,.1-.29,.23-.59,.44-11.76,8.39-32.56,32.44-58.58,67.71-.09,.12-.25,.16-.38,.1Z"/><path class="cls-21" d="M346.1,59.8c-1.37,.93-6.88,1.61-7.14,1.23-.27-.39,2.35-5.19,3.73-6.12,1.37-.93,3.25-.59,4.2,.77,.94,1.35,.6,3.2-.78,4.13Z"/><path class="cls-21" d="M335.7,60.49c-.07,1.68-2.9,6.52-3.38,6.5-.49-.02-2.86-5.09-2.79-6.77,.07-1.68,1.52-2.98,3.22-2.9,1.7,.07,3.02,1.49,2.95,3.17Z"/><path class="cls-21" d="M338.08,71.47c-1.64-.45-5.8-4.24-5.67-4.71,.13-.46,5.68-1.6,7.33-1.15,1.64,.45,2.61,2.12,2.15,3.74-.46,1.62-2.16,2.56-3.8,2.11Z"/><path class="cls-21" d="M312.65,81.92c.18,2.81-3.63,11.39-4.45,11.45-.82,.05-5.71-7.98-5.9-10.79-.18-2.81,1.98-5.24,4.84-5.42,2.86-.18,5.32,1.95,5.51,4.76Z"/><path class="cls-21" d="M318.64,99.81c-2.83-.46-10.46-6.05-10.33-6.84,.13-.79,9.19-3.68,12.01-3.22,2.83,.46,4.74,3.08,4.27,5.86-.46,2.78-3.13,4.66-5.96,4.21Z"/><path class="cls-21" d="M302.13,89.37c.99,3.31-1.22,14.56-2.18,14.84-.96,.28-9.01-8.01-10-11.32-.99-3.31,.94-6.78,4.3-7.75,3.36-.97,6.89,.92,7.88,4.23Z"/><path class="cls-21" d="M311.29,113.25c-3.38-.91-11.96-8.66-11.7-9.61,.26-.95,11.66-3.34,15.04-2.44,3.38,.91,5.37,4.34,4.45,7.66-.92,3.33-4.41,5.29-7.79,4.38Z"/><path class="cls-21" d="M293.21,100.75c.99,3.31-1.22,14.56-2.18,14.84-.96,.28-9.01-8.01-10-11.32-.99-3.31,.94-6.78,4.3-7.75,3.36-.97,6.89,.92,7.88,4.23Z"/><path class="cls-21" d="M302.38,124.63c-3.38-.91-11.96-8.66-11.7-9.61,.26-.95,11.66-3.34,15.04-2.44,3.38,.91,5.37,4.34,4.45,7.66-.92,3.33-4.41,5.29-7.79,4.38Z"/><path class="cls-21" d="M277.94,113.64c2.19,2.69,4.51,13.92,3.73,14.54-.78,.62-11.43-4.03-13.62-6.72-2.19-2.69-1.76-6.62,.97-8.78,2.73-2.16,6.72-1.73,8.92,.96Z"/><path class="cls-21" d="M294.02,136.04c-3.47-.48-12.97-7.12-12.83-8.09,.14-.97,11.14-4.75,14.61-4.27,3.47,.48,5.88,3.64,5.39,7.06-.49,3.41-3.7,5.79-7.17,5.3Z"/><path class="cls-21" d="M328.57,67.17c-.08,1.7-2.94,6.62-3.44,6.6-.49-.02-2.91-5.17-2.83-6.87,.08-1.7,1.54-3.02,3.27-2.95,1.73,.07,3.07,1.52,3,3.22Z"/><path class="cls-21" d="M330.73,78.35c-1.67-.46-5.9-4.31-5.76-4.78,.13-.47,5.77-1.63,7.44-1.17,1.67,.46,2.65,2.16,2.18,3.8-.46,1.64-2.19,2.6-3.86,2.15Z"/><path class="cls-21" d="M321.04,73.07c.09,2.42-3.38,9.72-4.08,9.74-.7,.03-4.73-6.99-4.83-9.41-.09-2.42,1.82-4.46,4.28-4.55,2.46-.09,4.53,1.8,4.62,4.22Z"/><path class="cls-21" d="M325.16,89.32c-2.37-.65-8.38-6.13-8.19-6.79,.19-.67,8.2-2.31,10.58-1.66,2.37,.65,3.76,3.07,3.1,5.4-.66,2.33-3.12,3.7-5.49,3.05Z"/></g><path class="cls-2" d="M265.54,90.26h-1.84c-8.86,0-9.59-6.39-9.59-14.27v-6.22l-92.87,.37v6.22c0,7.88-1.21,13.91-10.07,13.91h-1.84c-15.42,0-27.93,11.13-27.93,24.85v145.34c0,13.73,12.5,24.85,27.93,24.85h116.2c15.43,0,27.93-11.13,27.93-24.85V115.11c0-13.73-12.5-24.85-27.93-24.85Z"/><ellipse class="cls-7" cx="207.36" cy="273.04" rx="72.19" ry="8.14"/><path class="cls-9" d="M211.16,228.78c-7.67-5.91-12.98,5-12.98,5,0,0-9.94-7.11-13.83,1.68-3.89,8.79,18.93,18.15,18.93,18.15,0,0,15.55-18.92,7.88-24.82Z"/><rect class="cls-16" x="156.55" y="61.54" width="101.79" height="15.87" rx="3.54" ry="3.54"/><path class="cls-9" d="M183.92,102.76c-6.88-6.92-13.78,3.24-13.78,3.24,0,0-9-8.42-14.17-.18-5.17,8.24,16.48,20.63,16.48,20.63,0,0,18.35-16.77,11.47-23.69Z"/><g><path class="cls-6" d="M195.61,40.35s-.98-1.22-1.96-1.5c-.97-.28-3.6-.16-4.05-.34-.45-.18-2.56-1.63-3.04-1.63-.48,0,1.8,2.23,1.8,2.23,0,0-2.22-1.64-2.63-1.34-.41,.3,1.81,2.26,1.81,2.26,0,0-2.19-1.73-2.47-1.35-.27,.38,1.83,2.09,1.83,2.09,0,0-1.72-1.32-1.94-1.01-.21,.3,2.32,2.75,3.75,3.01,1.43,.25,5.94,.68,5.94,.68l.94-3.09h0Z"/><path class="cls-6" d="M195.61,40.35s-1.53-2.22-2.34-2.7c-.42-.25-2.8-.49-2.95-.13-.26,.59,2.31,.89,2.24,1.18-.07,.3,.87,1.42,.87,1.42l2.18,.23h0Z"/><path class="cls-6" d="M216.19,105.32s1.3,5.35-.42,8.23c-1.71,2.89-5.41,7.13-4.27,8.06,1.15,.94,12.27-5.93,11.88-7.2-.38-1.27-2.71-6.39-2.61-9.52l-4.59,.42h0Z"/><path class="cls-15" d="M222.44,111.87c.43,1.16,.82,2.11,.95,2.56,.38,1.27-10.74,8.13-11.88,7.2-.85-.69,.97-3.21,2.66-5.64,1.13,.57,3.92,1.02,8.27-4.12h0Z"/><path class="cls-6" d="M205.92,97.09s1.3,5.35-.42,8.23c-1.71,2.89-5.41,7.13-4.26,8.06,1.15,.94,12.27-5.93,11.88-7.2-.38-1.27-2.72-6.39-2.61-9.52l-4.59,.42h0Z"/><path class="cls-15" d="M212.16,103.64c.43,1.16,.82,2.11,.95,2.56,.38,1.27-10.74,8.13-11.88,7.2-.85-.69,.97-3.21,2.66-5.64,1.13,.57,3.92,1.03,8.27-4.12h0Z"/><path class="cls-15" d="M235.22,.13s7.1,1.76,7.47,6.86c.38,5.1,1.77,7.9,3.54,9.35,1.78,1.45,9.41,5.29,8.58,10.61-.83,5.32-6.93,10.17-6.93,10.17,0,0-19.39,1.81-24.4-7.82-5-9.62-1.02-31.2,11.73-29.16h0Z"/><path class="cls-15" d="M239.41,53.74s-.2,6.59-3.04,11.28c-2.84,4.69-14.26,13.93-14.69,15.18-.43,1.25-.09,26.62-.09,26.62l-7.04,.64s-4.1-26.23-2.93-31.18c1.17-4.94,7.16-10.93,7.16-10.93,0,0-9.78,6.33-10.06,7.7-.28,1.37,3.23,25.64,3.23,25.64l-6.94,1.71s-7.29-25.27-7.64-31.83c-.34-6.55,22.64-16.84,22.64-16.84l19.4,2.01h0Z"/><path class="cls-21" d="M253.2,56.92l-4.96,.46s-4.78-14.36-8.1-19.17c0,0,.26,8.58-.88,16.75,0,0-1.46,1.04-4.19,1.57-3.59,.71-9.37,.55-16.94-3.95l.49-3.53,.03-.79,.12-3.15s-6.37,4.46-11.92,4.3c-4.08-.12-12.61-5.87-12.61-5.87l.75-4.07s13.74,4.88,17.5-.84c3.5-5.33,2.9-13.49,13.73-16.87,1.03-.32,2.16-.6,3.41-.82,0,0,3.44-.01,7.01,.69,2.62,.52,5.31,1.42,6.76,3,3.42,3.72,10.66,14.83,9.8,32.31Z"/><path class="cls-9" d="M237.19,26.31s-1.46,21.89-2.12,30.22c-3.59,.71-9.34,.57-16.9-3.93l.45-3.55,.03-.79,2.01-10,5.56-16.51c1.03-.32,2.16-.6,3.41-.82,0,0,3.44-.01,7.01,.69l.54,4.69Z"/><polygon class="cls-21" points="231.57 54.05 230.88 78.92 244.44 78.92 244.08 26.16 234.96 21.37 231.57 54.05"/><path class="cls-6" d="M248.85,57.32s1.4,4.48,2.37,4.74c.98,.26,3.95,.65,4.4,.82,.46,.17,2.59,1.58,3.07,1.58,.48,0-1.84-2.2-1.84-2.2,0,0,2.25,1.6,2.65,1.29,.41-.31-1.85-2.23-1.85-2.23,0,0,2.23,1.69,2.49,1.31,.27-.38-1.87-2.06-1.87-2.06,0,0,1.75,1.29,1.95,.98,.21-.31-2.35-2.89-3.8-2.94-3.43-.13-4.55-1.57-4.55-1.57l-3.03,.28h0Z"/><polygon class="cls-21" points="220.12 49.84 218.17 52.6 212.53 55.46 218.26 32.98 224.93 22.26 227.75 21.32 220.12 49.84"/><path class="cls-6" d="M249.85,60.03s1.27,2.8,2.05,3.32c.78,.51,2.25,1.75,2.46,1.41,.21-.34-1.72-2.19-1.66-2.49,.06-.3-.94-.94-.94-.94l-1.77-1.4-.15,.11Z"/><path class="cls-23" d="M235.73,32.9l2.18,1.32-6.34,19.83,3.16-32.75s.83,.08,1.11,.13c1.09,.19,3.41,.85,3.41,.85l-3.51,10.63Z"/><path class="cls-23" d="M223.14,31.55l-3.14,1.58,.11,16.76,8.47-28.75s-.92,.17-1.98,.45c-1.01,.27-3.43,1.25-3.43,1.25l-.02,8.71Z"/><path class="cls-6" d="M233.69,.78c3.34,.44,5.86,3.32,5.81,6.63-.02,1.09-.3,2.11-.78,3-1.08,2.23-1.97,4.03-3.01,5.31-1.06,1.3-1.61,2.92-1.48,4.58l.05,.66c.05,.63-.36,1.2-.98,1.38-1.9,.54-3.13,.2-3.83-.18-.45-.24-.71-.72-.67-1.22l.22-3.17c-4.18-.78-3.09-8.39-2.93-10.65h0c0-.08,0-.17,.01-.25,.26-3.78,3.71-6.6,7.6-6.09h0Z"/><path class="cls-15" d="M233.71,7.52c.76,.88,1.41,1.84,2.06,2.8,.68,1.02,1.39,2.1,1.48,3.31,1.14-.74,1.92-1.9,2.59-3.08,.31-.54,.61-1.11,.74-1.72,.19-.86,.03-1.76-.13-2.63-.2-1.12-.43-2.29-1.13-3.2-.47-.6-1.11-1.04-1.79-1.4-1.57-.85-3.37-1.34-5.15-1.21-1.79,.12-3.55,.9-4.7,2.25-1.49,1.74-1.8,4.13-2.06,6.39,.3-.92,.98-1.67,1.65-2.38,.43-.46,.88-.94,1.44-1.23,.96-.51,1.21-.37,2.9-1.34,.33,1.42,1.15,2.34,2.1,3.44h0Z"/><path class="cls-6" d="M236.55,12.12c.12-.21,.32-.36,.55-.43,.47-.15,1.3-.3,1.82,.29,.77,.86-1.03,2.9-2.6,1.72,0,0-.44-.49,.22-1.58h0Z"/><g><path class="cls-14" d="M227.22,10.26c0-.32,.25-.58,.57-.59,.32,0,.59,.24,.6,.56,0,.32-.24,.58-.57,.59-.32,0-.59-.24-.6-.56h0Z"/><path class="cls-14" d="M232.69,11.24c0-.32,.24-.58,.57-.59,.32,0,.59,.24,.6,.56,0,.32-.24,.58-.57,.59-.32,0-.59-.24-.6-.56h0Z"/><path class="cls-24" d="M228.21,14.5s.54-.3,.82-.18c.29,.12,.41,.49,.41,.49,0,0,.22-.33,.58-.29,.36,.04,1.34,.43,1.34,.43,0,0-1.13,1.4-2.17,1-1.05-.4-.97-1.4-.97-1.4v-.05h0Z"/><path class="cls-14" d="M229.14,15.24c1.21,.41,2.52-.34,2.54-.35,.04-.02,.05-.07,.03-.11-.02-.04-.07-.05-.11-.03-.09,.05-2.14,1.22-3.36-.37-.03-.04-.08-.04-.12-.02-.04,.03-.04,.08-.02,.11,.31,.4,.67,.64,1.04,.76h0Z"/><path class="cls-15" d="M234.67,10.54c.07,0,.14-.03,.19-.08,.09-.1,.08-.25-.03-.34-.03-.03-.77-.63-1.86-.6-.13,0-.24,.11-.24,.25,0,.13,.13,.24,.25,.23,.91-.03,1.52,.48,1.52,.48,.05,.04,.1,.06,.16,.06h0Z"/><path class="cls-15" d="M228.8,9.15c.07-.01,.13-.05,.17-.12,.07-.11,.03-.26-.09-.33-.03-.02-.86-.49-1.93-.26-.13,.03-.22,.15-.19,.28,.03,.13,.16,.21,.29,.18,.89-.19,1.58,.2,1.59,.21,.05,.03,.11,.04,.16,.03h0Z"/><path class="cls-20" d="M229.7,13.06c.15,.07,.34,.11,.58,.12,.05,0,.09-.04,.09-.08,0-.05-.04-.09-.08-.09-.83-.01-.94-.55-.95-.69,.73-.79,.73-1.93,.73-1.97s-.04-.08-.08-.08-.09,.04-.09,.08c0,.01-.01,1.15-.72,1.89-.02,.02-.02,.04-.02,.06,0,0,0,.54,.54,.78h0Z"/></g></g><path class="cls-10" d="M234.24,141.06c-16.94-15-31.11,9.62-31.11,9.62,0,0-22.06-18.15-32.57,1.74-10.51,19.9,41.25,45.35,41.25,45.35,0,0,39.38-41.72,22.43-56.71Z"/><path class="cls-9" d="M201.09,26.74c-3.58-4.99-8.91,.66-8.91,.66,0,0-4.74-6.13-8.8-1.51-4.06,4.62,8.16,14.47,8.16,14.47,0,0,13.14-8.63,9.56-13.62Z"/><path class="cls-10" d="M275.56,138.23c-.61-9.21-11.97-5.97-11.97-5.97,0,0-1.19-11.58-10.1-8.7-8.91,2.89-1.1,25.02-1.1,25.02,0,0,23.78-1.14,23.17-10.35Z"/><g><path class="cls-4" d="M166.42,173.53c.93-.15,1.98-.59,2.18-1.49,.11-.47-.04-.97,.1-1.43,.31-1.04,1.58-1.22,2.49-1.44,1.12-.27,1.95-1.12,2.18-2.24,.22-1.09-.12-2.24-.71-3.19-1.04-1.68-2.39-2.54-4.06-3.52-1.41-.82-2.11-2.26-3.42-3.15-.91-.61-2.03-.93-3.13-.87-.25,.01-.51,.04-.75-.03-.65-.2-1.11-.61-1.82-.68-.73-.08-1.47,.04-2.17,.23-2.07,.56-4.18,1.85-4.92,3.93-.46,1.3-.67,2.58-1.98,3.32-1.66,.95-3.37,1.8-3.41,3.98-.02,1.29,.77,2.59,1.98,3.08,.79,.32,1.79,.35,2.3,1.03,.29,.38,.35,.87,.55,1.3,.42,.88,1.41,1.39,2.4,1.5,.98,.11,1.97-.11,2.94-.33,1.45-.33,3.08-1.06,4.5-.6,1.59,.52,3.07,.87,4.76,.6h0Z"/><path class="cls-5" d="M163.18,256.01s5.33,25.23,3.48,27.81c-1.86,2.58-4.78,5.18-4.85,6.55-.07,1.37,9.67-1.77,10.33-3.24,.67-1.47,.13-3.65-.04-9.96-.17-6.31-1.6-19.22-1.6-19.22l-7.32-1.94h0Z"/><path class="cls-15" d="M161.81,290.37c.05-.93,1.42-2.44,2.87-4.12,.86,2.76,6-1.08,7.75-2.49,.08,1.64,.06,2.59-.29,3.36-.67,1.47-10.4,4.62-10.33,3.24h0Z"/><path class="cls-5" d="M147.65,256.01s5.33,25.23,3.48,27.81c-1.86,2.58-4.78,5.18-4.85,6.55-.07,1.37,9.67-1.77,10.33-3.24,.67-1.47,.13-3.65-.04-9.96-.17-6.31-1.6-19.22-1.6-19.22l-7.32-1.94h0Z"/><path class="cls-15" d="M146.27,290.37c.05-.93,1.42-2.44,2.87-4.12,.86,2.76,6-1.08,7.75-2.49,.08,1.64,.06,2.59-.29,3.36-.67,1.47-10.4,4.62-10.33,3.24h0Z"/><path class="cls-5" d="M177.55,219.71s-1.93,2.8-2.34,3.9c-.41,1.1-1.64,1.86-1.11,2.29,.53,.43,2.11-1.19,2.11-1.19,0,0,.28,2.36,.26,3.1-.03,.74,.27,2.07,.82,2.13,.55,.06,.42-3.5,.42-3.5,0,0,.41,2.98,.9,3.15,.49,.16,.54-3.71,.54-3.71,0,0,.28,3.2,.52,3.44,.24,.23,.56-.07,.74-1.22,.18-1.16,.06-2.39,.06-2.39,0,0,.37,2.24,.51,2.49,.14,.25,.52,.5,.6-1.24,.08-1.74-.36-5.54-1.36-7.35l-2.66,.11h0Z"/><path class="cls-5" d="M123.45,195.45s-3.18-1.27-4.36-1.44c-1.17-.17-2.19-1.19-2.51-.59-.32,.6,1.62,1.78,1.62,1.78,0,0-2.29,.77-3.03,.89-.74,.13-2,.69-1.95,1.23,.05,.54,3.56-.33,3.56-.33,0,0-2.88,1.02-2.94,1.52-.06,.51,3.8-.26,3.8-.26,0,0-3.13,.94-3.31,1.22-.18,.28,.18,.52,1.37,.45,1.19-.07,2.39-.44,2.39-.44,0,0-2.15,.82-2.37,1.01-.22,.19-.39,.6,1.36,.32,1.75-.28,5.43-1.5,7.02-2.84l-.67-2.53h0Z"/><path class="cls-4" d="M165.41,177.53s-5.7-.27-11.06,.18l-4.03,8.84-2.62,20.83v6.06h14.64s-1.83-18.82-1.66-19.31c.17-.49,4.74-16.59,4.74-16.59h0Z"/><path class="cls-13" d="M175.2,250.9c.15,2.81,.3,5.64,.96,8.38,.24,1,.54,2.12,.03,3.02-.62,1.09-2.13,1.32-3.38,1.11-1.25-.21-2.46-.73-3.73-.66-2.4,.13-4.41,2.35-6.8,2.07-1.44-.17-2.63-1.22-4.05-1.49-.92-.18-1.88,0-2.8,.15-2.14,.36-4.32,.65-6.47,.36-2.15-.29-4.28-1.25-5.57-2.97-1.15-1.54-1.51-3.51-1.74-5.41-1.03-8.55-.12-17.2,.85-25.76,.7-6.21,1.45-12.45,3.27-18.44,2.2-.57,4.49-.7,6.76-.68,3.55,.04,7.1,.46,10.56,1.24,2.18,.49,8.03,1.34,9.31,3.3,.76,1.17,.47,3.93,.59,5.3,.17,1.95,.34,3.9,.51,5.85,.32,3.83,.61,7.67,.88,11.5,.31,4.37,.58,8.75,.82,13.13h0Z"/><path class="cls-15" d="M165.41,177.53s6.74,2.84,8.73,4.48c2,1.64,13.64,17.73,7.48,39.06l-7.22-.51s1.23-9.54,1.23-11.78-1.23-8.1-1.23-8.1l-.76,22.62h-15.8s.22-24.9,.69-29.41c.47-4.52,6.88-16.36,6.88-16.36h0Z"/><path class="cls-15" d="M154.35,177.71s-2.59,9.55-3.88,16.74c-1.28,7.2-1.46,27.18-1.46,27.18l-4.96-.56,1.73-18.36s-1.63-1.09-1.73-3.04c-.1-1.95,2.23-8.25,2.23-8.25,0,0-11.1,9.08-23.82,9l-.76-5.62s13.92-2.31,20.57-11.09c1.97-2.6,4.8-4.43,8.02-5.12l4.07-.87h0Z"/><path class="cls-1" d="M153.29,167.05s-.62-.74-1.01-.37c-.99,.93,.29,1.91,1.03,2.07l-.03-1.7h0Z"/><path class="cls-5" d="M162.15,157.25c.99,.38,1.85,1.06,2.45,1.93,1.42,2.06,1.62,4.23,1,6.07-.72,2.52-1.31,4.51-2.2,5.96-.7,1.15-.98,2.5-.65,3.8h0c.26,1.03,1.01,1.88,2.01,2.27l.64,.25s-10.9,18.88-11.06,.18l1.29-.31c1.19-.29,1.98-1.39,1.85-2.59l-.08-.79c-4.2-.07-4.44-7.65-4.67-9.88h0c-.01-.08-.02-.17-.03-.25-.49-4.67,4.15-8.69,9.43-6.64h0Z"/><path class="cls-4" d="M160.24,163.25c.89,.73,1.69,1.56,2.48,2.39,.84,.88,1.71,1.81,2,2.98,.98-.91,1.54-2.17,2-3.42,.21-.58,.4-1.18,.43-1.79,.03-.87-.27-1.72-.57-2.54-.39-1.06-.81-2.16-1.65-2.92-.56-.51-1.26-.83-1.98-1.07-1.67-.57-3.5-.75-5.22-.33-1.72,.42-3.3,1.46-4.2,2.96-1.15,1.93-1.05,4.32-.92,6.56,.13-.95,.67-1.78,1.2-2.59,.34-.52,.69-1.06,1.19-1.44,.85-.65,1.12-.56,2.59-1.78,.56,1.33,1.52,2.09,2.63,3h0Z"/><path class="cls-15" d="M154.39,167c-.06-.31,.14-.61,.45-.67,.31-.06,.62,.14,.68,.44,.06,.31-.14,.61-.45,.67-.31,.06-.62-.14-.68-.44h0Z"/><path class="cls-15" d="M159.88,167.05c-.06-.31,.14-.61,.45-.67,.31-.06,.62,.14,.68,.44,.06,.31-.14,.61-.45,.67-.31,.06-.62-.14-.68-.44h0Z"/><path class="cls-1" d="M156.07,170.96s.47-.38,.77-.31c.3,.07,.48,.41,.48,.41,0,0,.16-.36,.52-.38,.36-.02,1.38,.2,1.38,.2,0,0-.86,1.55-1.94,1.33-1.09-.21-1.19-1.2-1.19-1.2l-.02-.05h0Z"/><path class="cls-15" d="M157.11,171.53c1.24,.2,2.39-.75,2.41-.76,.03-.03,.04-.08,0-.11-.03-.03-.08-.04-.11,0-.08,.06-1.87,1.54-3.34,.2-.03-.03-.08-.03-.12,0-.03,.03-.03,.08,0,.11,.37,.34,.76,.51,1.14,.57h0Z"/><path class="cls-4" d="M161.39,164.85c.07-.02,.12-.06,.16-.13,.05-.12,0-.26-.12-.31-.04-.02-.9-.39-1.93-.06-.13,.04-.2,.17-.16,.3,.04,.12,.19,.19,.3,.15,.85-.27,1.57,.04,1.58,.04,.05,.02,.11,.03,.16,.01h0Z"/><path class="cls-4" d="M155.54,165c.07-.02,.12-.07,.15-.14,.05-.12-.02-.26-.14-.3-.04-.01-.92-.33-1.93,.06-.12,.05-.18,.19-.13,.31,.05,.12,.19,.18,.31,.13,.83-.33,1.57-.06,1.58-.06,.06,.02,.11,.02,.16,0h0Z"/><path class="cls-1" d="M157.52,169.46c-.69-.03-.97-.51-1.02-.8,0-.05,0-.1,.03-.14,.53-.79,.36-1.86,.36-1.87-.02-.11,.06-.21,.17-.23,.11-.02,.21,.05,.23,.16,0,.05,.2,1.16-.37,2.08,.06,.15,.26,.49,.9,.39,.11-.02,.21,.06,.23,.17,.02,.11-.06,.21-.17,.23-.13,.02-.25,.03-.36,.02h0Z"/><path class="cls-19" d="M158.81,166.88c.05,.93,.86,1.65,1.8,1.6,.94-.05,1.67-.84,1.62-1.77-.05-.93-.86-1.65-1.8-1.6-.95,.05-1.67,.84-1.63,1.77h0Zm-.23,.01c-.05-1.06,.77-1.96,1.85-2.01,1.07-.05,1.99,.76,2.05,1.82,.06,1.06-.77,1.96-1.85,2.01-1.07,.05-1.99-.76-2.05-1.82h0Z"/><path class="cls-19" d="M152.87,167.18c.05,.93,.86,1.65,1.8,1.6,.95-.05,1.67-.84,1.63-1.77-.05-.93-.86-1.65-1.8-1.6-.94,.05-1.67,.84-1.62,1.77h0Zm-.23,.01c-.06-1.06,.77-1.96,1.85-2.01,1.07-.05,1.99,.76,2.05,1.82,.06,1.06-.77,1.96-1.85,2.01-1.07,.05-1.99-.76-2.05-1.82h0Z"/><path class="cls-19" d="M158.64,167.12l.11-.2c-1.59-.83-2.42,.13-2.43,.14l.18,.15s.72-.83,2.13-.09h0Z"/><polygon class="cls-19" points="162.36 167.05 164.14 166.86 164.11 166.63 162.33 166.82 162.36 167.05 162.36 167.05"/><path class="cls-5" d="M163.79,167.27c.08-.22,.25-.4,.46-.51,.44-.23,1.22-.51,1.83-.02,.89,.71-.51,2.99-2.23,2.1,0,0-.51-.41-.06-1.58h0Z"/><path class="cls-1" d="M160.5,167.99c-.48,0-.82-.26-.83-.27-.04-.03-.04-.08-.01-.12,.03-.04,.08-.04,.12-.01,.03,.02,.68,.52,1.42,0,.04-.03,.09-.02,.12,.02,.03,.04,.02,.09-.02,.12-.29,.2-.56,.27-.8,.27h0Z"/><path class="cls-1" d="M154.69,167.99c-.48,0-.82-.26-.83-.27-.04-.03-.04-.08-.01-.12,.03-.04,.08-.04,.12-.01,.03,.02,.68,.52,1.42,0,.04-.03,.09-.02,.12,.02,.03,.04,.02,.09-.02,.12-.29,.2-.56,.27-.8,.27h0Z"/><path class="cls-1" d="M160.21,171.04s-.07-.03-.08-.06c-.11-.43-1.1-1.44-1.11-1.45-.03-.03-.03-.09,0-.12,.03-.03,.09-.03,.12,0,.04,.04,1.02,1.05,1.15,1.53,.01,.05-.02,.09-.06,.1,0,0-.02,0-.02,0h0Z"/><path class="cls-1" d="M155.44,171.17h-.02s-.08-.06-.07-.1c.11-.52,.62-1.44,.64-1.48,.02-.04,.07-.06,.12-.03,.04,.02,.06,.07,.03,.12,0,0-.52,.93-.62,1.43,0,.04-.04,.07-.08,.07h0Z"/></g><g><polygon class="cls-5" points="114.13 189.82 118.04 186.73 120.24 189.82 114.13 189.82"/><path class="cls-5" d="M113.87,284.34l-1.91-8.04h-4.41l1.47,8.8s3.77,.45,4.85-.76h0Z"/><path class="cls-15" d="M108.93,284.52s2.13,.56,4.95-.18c0,0,8.43,2.56,8.43,4.99,0,0,.44,.68-3.28,.91-3.73,.23-9.51,.66-9.67,.59-.16-.07-1.95-.79-.42-6.31h0Z"/><path class="cls-4" d="M109.17,290.87c.17,.07,6.02-.38,9.8-.62,3.78-.24,3.33-.92,3.33-.92,0-.16-.04-.32-.11-.48l-13.8,.55c.17,1.17,.68,1.43,.77,1.47h0Z"/><path class="cls-5" d="M89.75,284.87l-.26-8.25-4.32-.86-.33,8.91s3.6,1.17,4.91,.19h0Z"/><path class="cls-15" d="M84.86,284.08s1.98,.96,4.88,.79c0,0,7.75,4.15,7.26,6.52,0,0,.3,.75-3.4,.25-3.7-.5-9.45-1.2-9.6-1.3-.15-.1-1.75-1.15,.85-6.27h0Z"/><path class="cls-4" d="M83.82,290.36c.15,.1,5.98,.8,9.73,1.29,3.75,.5,3.45-.25,3.45-.25,.03-.16,.03-.32,0-.49l-13.64-2.15c-.07,1.18,.38,1.54,.46,1.6h0Z"/><path class="cls-9" d="M85.91,215.01l-3.04,67.71h8.72s7.98-40.38,9.79-52.89l4.06,52.59h10.75s-1.35-68.41-2.08-68.61c-.73-.2-28.2,1.2-28.2,1.2h0Z"/><path class="cls-13" d="M90.21,169.62s-12.17,4.65-12.98,8.63c-.81,3.98,2.58,15.32,2.58,15.32l3.8-1.99,.74,28.81s31.19-.98,31.19-1.48-1.4-29.09-1.4-29.09l4.88-3.84s-8.82-15.09-13.98-15.89c-5.16-.8-9.77-.93-9.77-.93l-5.07,.47h0Z"/><g><path class="cls-1" d="M99.2,157.3s.45-.9,.94-.62c1.23,.72,.25,1.97-.46,2.3l-.47-1.69h0Z"/><path class="cls-5" d="M99.06,154.21h0c0-.09-.02-.17-.03-.26-.5-3.88-4.23-6.58-8.2-5.83-3.31,.63-5.7,3.58-5.58,6.89,.04,1.23,.41,2.36,1,3.32,.84,1.5,1.57,2.78,2.31,3.83,1.22,1.74,1.8,3.83,1.72,5.94l-.07,1.66c4.5,1.68,6.16-.61,6.16-.61l-.31-2.99c-.04-.39,.23-.74,.62-.82h0c5.19-.99,2.67-8.82,2.37-11.14h0Z"/><path class="cls-14" d="M92.44,158.64c-.05-.35-.37-.59-.72-.55-.35,.04-.6,.36-.56,.71,.04,.35,.37,.59,.72,.55,.35-.04,.6-.36,.56-.71h0Z"/><path class="cls-14" d="M97.97,156.81c-.04-.35-.37-.59-.72-.55-.35,.04-.6,.36-.56,.71,.05,.35,.37,.59,.72,.55,.35-.04,.6-.36,.56-.71h0Z"/><path class="cls-14" d="M90.03,157.95c-.07,0-.13,0-.2-.03-.19-.08-.28-.3-.19-.49,.25-.57,1.13-1.5,2.65-.97,.2,.07,.3,.28,.23,.47-.07,.19-.29,.3-.48,.23-1.25-.43-1.7,.53-1.71,.57-.05,.12-.17,.2-.3,.22h0Z"/><path class="cls-14" d="M95.89,156.22c-.07,0-.13,0-.2-.03-.19-.08-.28-.3-.19-.49,.25-.57,1.13-1.5,2.65-.97,.2,.07,.3,.28,.23,.47-.07,.19-.28,.3-.48,.23-1.25-.43-1.7,.53-1.71,.57-.05,.12-.17,.2-.3,.22h0Z"/><polygon class="cls-15" points="84.74 156.21 87.19 160.54 88.41 160.14 88.4 154.16 84.74 156.21 84.74 156.21"/><path class="cls-5" d="M88.58,159.97c-.14-.2-.35-.35-.6-.41-.5-.13-1.36-.23-1.86,.41-.74,.93,1.24,2.92,2.78,1.62,0,0,.42-.53-.32-1.62h0Z"/><path class="cls-1" d="M96.02,160.51c-.58,.37-1.16,.11-1.17,.11-.06-.03-.08-.09-.05-.15,.02-.06,.09-.08,.15-.05,.03,.01,.68,.29,1.22-.33,.09-.1,.13-.18,.13-.23,0-.08-.11-.16-.25-.28-.33-.27-.88-.73-1.19-1.87-.02-.06,.02-.12,.08-.13,.06-.02,.12,.02,.14,.08,.29,1.08,.78,1.49,1.11,1.76,.18,.15,.32,.26,.33,.43,0,.12-.05,.24-.18,.39-.1,.12-.21,.21-.31,.28h0Z"/><path class="cls-15" d="M97.61,151.73s1.07,.56,1.84,4.63c0,0-.56-4.55-1.14-4.99-.58-.44-.7,.36-.7,.36h0Z"/><path class="cls-15" d="M83.78,154.45c-.09-.97,.17-1.95,.49-2.87-.45,.15-.95,.29-1.38,.09-.43-.2-.56-.92-.13-1.1,.25-.11,.54,.02,.82,0,.63-.04,.94-.77,1.01-1.38,.08-.61,.11-1.32,.61-1.69,.16-.12,.35-.18,.55-.2,.29,.67,.33,1.44,.14,2.14,.55-1.03,1.31-1.94,2.22-2.67,.71-.57,1.59-1.04,2.5-.93,.32,.65-.77,1.2-.77,1.92,1.45-.68,3.01-1.14,4.6-1.36,.41-.06,.83-.1,1.23,0,.4,.1,.78,.38,.9,.77,.16,.51-.25,1.11-.8,1.17,.85,.2,1.71,.41,2.48,.82,.77,.41,1.45,1.06,1.7,1.88-.57,.12-1.17,.09-1.73-.08,.41,.25,.81,.67,.72,1.13-.07,.34-.39,.6-.73,.69-.34,.09-.71,.05-1.06,.01-1.79-.2-3.57-.4-5.36-.6,.8,.57,1.45,1.34,1.87,2.21-1.56,.13-3.16-.21-4.52-.96,0,.74-.1,1.47-.3,2.18-.03,.11-.07,.23-.16,.3-.3,.25-.68-.19-1.03-.37-.43-.21-.96,.02-1.33,.33-.64,.53-1.02,1.19-1.74,.46-.48-.49-.74-1.22-.8-1.89Z"/></g><g><g><path class="cls-16" d="M119.65,172.3s1.95-5.87,2.51-9.03l-4.01,7.81,.33-8.65s-1.97,7.07-1.7,8.57c.27,1.5,.79,2.32,.79,2.32l2.08-1.02h0Z"/><path class="cls-13" d="M119,174.53s4.09-6.38,4.8-9.19c0,0-5.03,5.51-5.91,7.44,0,0-.6-6-1.5-8.88,0,0-.77,8.04-.63,8.89,.14,.85,.57,2.88,.57,2.88l2.01,.3,.66-1.44h0Z"/><path class="cls-16" d="M118.19,174.99s1.25-6.55,.8-8.79c0,0-2.18,6.5-1.92,9.12,0,0-.53-7.57-3.57-8.86,0,0,1.4,4.88,1.51,9.01,.1,4.13,2.61,.64,3.18-.48Z"/><path class="cls-13" d="M117.69,174.79l-.23-.03c-3.58-.54-6.93,1.88-7.47,5.41l-1.32,8.52c-.29,1.9,1.03,3.68,2.97,3.97l6.19,.93c1.93,.29,3.74-1.02,4.04-2.92l1.32-8.52c.55-3.52-1.91-6.82-5.5-7.35h0Z"/><path class="cls-16" d="M115.58,188.28l-2.67-2.45,3.27-1.63,2.66,2.54-3.25,1.53h0Zm-3.11-2.85l-2.73-2.5,3.45-1.58,2.56,2.45-3.28,1.63h0Zm4.47-5.81l2.57,2.3-3.24,1.61-2.55-2.44,3.22-1.48h0Zm2.85,7.27l2.87-1.36,.1-.65-3.4,1.6-2.67-2.55,3.25-1.62,2.82,2.53,.1-.65-2.39-2.14,2.75-1.37c-.02-.19-.04-.39-.07-.58l-3.12,1.55-2.55-2.29,4.46-2.05c-.11-.15-.23-.3-.36-.44l-4.55,2.08-3.82-3.42c-.17,.09-.33,.2-.49,.3l3.76,3.37-3.2,1.47-2.63-2.52c-.09,.17-.17,.35-.25,.53l2.34,2.24-3.11,1.43-.17,1.07,2.46,2.26-3.05,1.52-.1,.66,3.58-1.78,2.66,2.44-5.73,2.71c.11,.15,.24,.3,.37,.43l5.8-2.74,4.62,4.23c.17-.09,.32-.2,.47-.31l-4.55-4.17,3.24-1.53,2.75,2.63,.1-.66-2.32-2.22h0Z"/></g><g><path class="cls-21" d="M105.91,168.86c.39-.21,1.02-.24,1.02-.24,3.41,.16,7.86,4.63,8.98,11.56,1.11,6.93-2.41,7.26-2.41,7.26-.46-.46-.65-1.38-.65-1.38,0,0-.63-6.4-2.15-9.1-1.69-3.01-3.56-3.54-5.21-6.49-.29-.51-2.26-.16-2.26-.16-.55-.13-.78-.79-.78-.79,0,0,3.07-.44,3.46-.66Z"/><path class="cls-23" d="M106.93,168.61c3.41,.16,7.86,4.63,8.98,11.56,1.11,6.93-2.41,7.26-2.41,7.26,0,0,3.36-3.72-.23-11.19-3.59-7.47-7.36-7.39-7.36-7.39,.39-.21,1.02-.24,1.02-.24Z"/></g><g><g><g><path class="cls-3" d="M104.11,173.5v.03c-.04,.11-.08,.21-.11,.3-.55,1.47-1.53,1.93-2.44,1.99h-.05c-.95,.05-1.8-.31-1.97-.39h-.03l.02-.05c.35-.55,.75-.95,1.17-1.25l.05-.03c.06-.04,.12-.08,.18-.11l.05-.03c1.08-.63,2.2-.6,2.77-.53,.16,.02,.27,.04,.33,.06h.04Z"/><path class="cls-9" d="M105.03,175.7c.09-.05,.15-.16,.13-.27-.01-.08-.35-2-1.85-3.24-.11-.09-.28-.08-.37,.03-.09,.11-.08,.27,.03,.37,1.35,1.11,1.67,2.9,1.67,2.92,.02,.14,.16,.24,.3,.21,.03,0,.06-.02,.09-.03h0Z"/><path class="cls-9" d="M112.06,176.59c.23,.86,.24,1.77,0,2.63-.57,2.06-2.72,3.89-4.96,3.8-2.1-.08-4.32-1.48-5.3-3.31-.27-.51-.46-1.15-.43-1.76,.01-.39,.12-.77,.34-1.1,.17-.24,.38-.43,.62-.59,.66-.43,1.53-.59,2.22-.92,.02,0,.04-.02,.05-.03,.18-.09,.32-.22,.45-.36,.29-.32,.51-.71,.79-1.02,1.24-1.32,3.03-1.21,4.4-.15,.9,.7,1.53,1.7,1.81,2.79Z"/></g><path class="cls-9" d="M104.1,173.47v.02l.02,.02h-.02l-.23,.1-4.33,1.81h-.03l.02-.05,4.31-1.8,.22-.09h.03Z"/><path class="cls-9" d="M101.57,174.53l-.02,.05-.84-.44,.05-.03,.81,.43Z"/></g><path class="cls-9" d="M102.91,174.02l-.02,.03-1.33,1.78h-.05l1.31-1.76,.06-.08,.03,.02Z"/></g><g><g><path class="cls-23" d="M124.6,177.75l-.02,.07v-.07c-.07-.4-.34-2.36-.51-4.52-.24-2.99-.31-6.37,.61-6.52,1.74-.28,1.22,4.34,.61,7.71-.3,1.66-.62,3.02-.69,3.34Z"/><path class="cls-23" d="M126.87,174.32c-.83,1.19-1.54,2.19-1.95,2.79-.18,.26-.3,.45-.35,.54,.06-.16,.21-.57,.44-1.17h0c.33-.89,.81-2.18,1.34-3.58,1.28-3.4,2.81-7.45,3.1-8.01,.51-1,2.4-2.99,3.04-.86,.42,1.38-3.12,6.71-5.62,10.29Z"/><path class="cls-23" d="M126.66,176.19c-.73,.53-1.34,.95-1.67,1.19-.19,.13-.29,.2-.29,.2,0,0,.22-.3,.58-.78,.34-.45,.81-1.06,1.36-1.73,1.78-2.17,4.32-4.91,5.51-4.52,1.36,.45-2.84,3.72-5.48,5.64Z"/></g><path class="cls-18" d="M124.57,177.65l-.02,.07s0-.03,.02-.07Z"/><path class="cls-9" d="M124.56,182.44c-1.55,2.68-3.39,5.58-3.39,5.58l-2.74-1.36s.72-2.06,1.65-4.34c1.08-2.65,2.43-5.59,3.23-5.88,.37-.13,.73-.17,1.08-.14,.18,.02,.35,.05,.51,.11,.04,.01,.08,.03,.12,.04,.1,.04,.19,.08,.28,.12,.04,.02,.07,.04,.11,.05,.12,.07,.23,.14,.34,.22,.46,.34,.78,.79,.87,1.22,.1,.44-.9,2.35-2.07,4.37Z"/></g><rect class="cls-22" x="99.63" y="179.32" width="28.51" height="34.22"/><path class="cls-22" d="M104.17,179.45l-.88-.25c.02-.07,.55-1.84,2.12-3.64,.92-1.06,2.01-1.91,3.25-2.53,1.54-.77,3.29-1.18,5.22-1.22,1.94-.04,3.66,.32,5.13,1.08,1.18,.61,2.19,1.48,3,2.57,1.38,1.85,1.71,3.71,1.73,3.79l-.9,.15s-.32-1.75-1.59-3.43c-.73-.97-1.64-1.74-2.69-2.29-1.32-.68-2.89-1.01-4.66-.97-1.78,.04-3.39,.41-4.8,1.12-1.12,.56-2.12,1.33-2.97,2.3-1.45,1.65-1.95,3.31-1.96,3.33Z"/></g><g><path class="cls-5" d="M80.68,193.11l7.6-4.24s3.51,7.39,6.55,8.12c4.51,1.09,13.25-1.76,13.25-1.76l1.62,3.67s-15.03,6.98-20.19,3.9c-5.16-3.07-8.82-9.69-8.82-9.69h0Z"/><path class="cls-5" d="M106.99,195.96s2.57-1.95,3.66-2.45c1.09-.5,1.76-1.78,2.25-1.3,.49,.49-1.04,2.19-1.04,2.19,0,0,2.44,.08,3.2,0,.75-.09,2.15,.09,2.25,.63,.11,.54-3.55,.71-3.55,.71,0,0,3.09,.15,3.3,.63,.21,.48-3.76,.85-3.76,.85,0,0,3.31,0,3.57,.23,.26,.22-.02,.56-1.19,.84-1.17,.28-2.44,.26-2.44,.26,0,0,2.32,.18,2.59,.29,.27,.12,.56,.47-1.22,.7-1.78,.23-5.71,.11-7.65-.73l.02-2.84h0Z"/><path class="cls-5" d="M129.34,204.15s-3.53,.43-3.53,.92c0,.5,2.8,.78,2.76,.79-.04,.01-3.02,.19-3.25,.85-.23,.65,3.01,.84,3.01,.84,0,0-2.8-.03-2.94,.43-.14,.46,2.54,.77,2.53,.96-.02,.18-2.3-.26-2.49,.3-.19,.56,3,1.31,3.48,.84,.48-.47,.11-1.05,.11-1.05,0,0,.72-.87,.45-1.43,0,0,.49-1.46-.12-1.8,0,0,.92-1-.02-1.64h0Z"/></g><path class="cls-15" d="M96.42,162.67c-.41,.13-.9,.19-1.48,.15-.06,0-.11-.06-.1-.12,0-.06,.06-.11,.12-.1,2.17,.16,2.97-1.29,3.01-1.35,.03-.05,.09-.07,.15-.05,.05,.03,.07,.09,.05,.15,0,.01-.51,.93-1.75,1.31h0Z"/></g><g><g><path class="cls-17" d="M156.21,59.26c.04,1.66,.24,3.27,.63,4.76h2.38l13.92,.02s0-.01,0-.03c-.03-.27,.4-2.23,.87-4.89,0-.03,0-.05,.01-.08h0c.93-5.27,1.99-13.21,.03-16.15h0s-.05-.08-.08-.11c-1.24-1.72-3.89-2.4-7.6-1.28-.24,.07-.48,.15-.72,.24h-.01c-.21,.08-.42,.16-.63,.24-.6,.24-1.22,.51-1.86,.84-.06,.03-.11,.06-.17,.09-.38,.2-.74,.43-1.09,.7h-.01c-.2,.16-.4,.33-.59,.5-.02,.02-.04,.04-.06,.06-1.09,1.02-2.02,2.39-2.78,3.97-.26,.55-.5,1.12-.72,1.72-.05,.14-.1,.28-.15,.42-.95,2.78-1.43,5.96-1.36,9Zm14.23-4.21l.67,4.18c-.4,.05-.83,.1-1.26,.15-1.36-.75,.59-4.33,.59-4.33Z"/><path class="cls-17" d="M167.26,40.68c.46-.54,.53-1.3,.18-1.91v-.02c-.35-.6-.73-1.45-.76-2.31,0-.25,.01-.5,.07-.75,0-.03,.01-.06,.02-.09,.18-.64,.63-1.48,1.28-2.24,.21-.24,.44-.48,.69-.69h0c.8-.69,1.81-1.18,2.94-1.15,.03,0,.06,0,.09,0,.12,0,.23,0,.34,.02,1.19,.08,1.89,.34,2.38,.7,.9,.66,1.09,1.66,2.3,2.47,.14,.1,.3,.19,.47,.28,.23,.12,.35,.59,.32,1.22v.12s-.01,.08-.02,.12c-.02,.16-.04,.32-.08,.49,0,.04-.02,.09-.03,.13-.07,.29-.17,.59-.29,.88-.02,.04-.03,.07-.05,.11-.47,1.03-1.33,1.99-2.69,2.32-.03,1.26-.42,2.77-.71,3.45-.43,1-8.72-1.87-8.72-1.87,.82-.27,1.77-.71,2.26-1.28Z"/><path class="cls-17" d="M168.74,32.69c-.02-.16,1.16-4.09,2.52-4.13,1.36-.04,.96,5.35,0,5.27-.96-.08-2.4-.16-2.52-1.14Z"/><path class="cls-9" d="M171.12,33.42c-.02-.16,1.16-4.09,2.52-4.13,1.36-.04,.96,5.35,0,5.27-.96-.08-2.4-.16-2.52-1.14Z"/><g><path class="cls-9" d="M161.87,43.59s3.29,.08,3.44,1.6c.15,1.52,2.77,2.45,1.36,3.64-1.41,1.19-3.83,.75-4.84-.22-1.01-.97-2.73-1.75-2.73-1.75,0,0,1.25-2.41,2.77-3.27Z"/><path class="cls-9" d="M156.21,59.26c1.41-.54,2.99-2.5,4.48-1.5,2.08,1.39,5.17-.53,4.98-3.11-.19-2.58-4.78-1.32-5.26-2.45-.33-.76-1.88-1.53-2.84-1.94-.95,2.78-1.43,5.96-1.36,9Z"/><path class="cls-9" d="M167.24,43.87s1.38,.66,1.24,1.32c-.13,.66-1.31,.66-1.81,.17-.51-.5-.38-2.14,.57-1.49Z"/><path class="cls-9" d="M166.77,35.61c.53-.04,1.22-.28,1.51-.15,.44,.19,1.08,.63,1.41,0,.34-.63-.5-.82-.77-1.45-.14-.32-.53-.52-.87-.64-.65,.76-1.1,1.6-1.28,2.24Z"/><path class="cls-9" d="M166.67,36.45c.03,.85,.41,1.7,.75,2.31,.34-.2,.72-.56,1.2-.67,.04,0,.08-.02,.12-.02,.78-.1,1.25-.55,1.38-1.05,.03-.1,.04-.2,.04-.3,0-.61-1.24,0-1.98-.38-.43-.22-1.06-.06-1.51,.12Z"/></g><g><path class="cls-17" d="M160.42,60.76s15.59-2.62,18.68-1.62c3.09,.99,3.62,4.8,.85,4.84-2.77,.04-21,.04-21,.04l1.47-3.26Z"/><path class="cls-17" d="M160.41,60.69v.08l.02,.08c.08-.01,5.61-.84,9.76-1.35h.01c1.6-.2,3-.35,3.79-.38h.02v-.08h0v-.08c-.64,.03-1.67,.13-2.9,.27-.4,.05-.83,.1-1.26,.15-4.11,.51-9.37,1.3-9.44,1.31Z"/></g></g><path class="cls-12" d="M176.75,34.69s.57,.13,.77,.54c.2,.41,.07,.96,.07,.96,0,0-1.37-.58-.84-1.51Z"/></g><g><path class="cls-5" d="M320.73,253.26s.78,25.37-1.44,35.01c0,0-5.95,2.21-6.78,1.55-.83-.65,1.74-1.96,2.07-4,.33-2.04-1.58-29.4-1.58-29.4l7.72-3.16Z"/><path class="cls-5" d="M308.69,254.17s-3.46,25.15-7.25,34.3c0,0-6.24,1.22-6.95,.44-.71-.78,2.05-1.65,2.71-3.61,.67-1.96,3.34-29.26,3.34-29.26l8.14-1.87Z"/><polygon class="cls-15" points="322.09 245.1 321.01 282.78 313.94 283.26 310.36 257.97 303.93 283.62 296.61 283.26 300.27 242.4 322.09 245.1"/><g><path class="cls-5" d="M301.3,229.98s-3.97,5.7-4.88,12.62l-2.63,.08s.36-10.53,3.31-15.62c0,0,2.56,2.44,4.2,2.92Z"/><path class="cls-5" d="M296.17,242.02s1.12,2.04,1.36,2.87c.24,.83,1.09,1.45,.68,1.74-.41,.29-1.47-.99-1.47-.99,0,0-.35,1.71-.37,2.26-.03,.54-.32,1.5-.73,1.52-.41,.01-.1-2.59-.1-2.59,0,0-.48,2.16-.85,2.25-.37,.09-.18-2.75-.18-2.75,0,0-.39,2.33-.59,2.49-.19,.16-.4-.08-.47-.94-.06-.86,.1-1.75,.1-1.75,0,0-.4,1.62-.52,1.8-.12,.18-.41,.34-.37-.94,.04-1.28,.59-4.04,1.43-5.31l2.07,.35Z"/></g><path class="cls-5" d="M319.94,228.73s5.29,8.32,6.54,15.19l2.63-.04s-.95-11.87-4.14-16.81c0,0-3.41,1.11-5.02,1.66Z"/><path class="cls-9" d="M321.01,230.31l1.98,16.31s-11.52,3.52-23.74-.61l3.09-17.02-1.28,2.58c.06,.07-1.96-.43-3.34-2.34-.56-.78-1.84-2.48-1.84-2.48,0,0,3.83-6.05,6.09-7.24,2.27-1.2,9.74-4.01,16.02-1.47,6.29,2.53,9.03,12.22,9.03,12.22,0,0-2.1,2.98-4.93,3.81l-1.09-3.75Z"/><path class="cls-22" d="M305.75,204.76c.2-1.39,.41-2.81,1.06-4.06,2.48-4.79,10.74-4.6,13.98-.87,1.4,1.61,2.41,3.83,2.68,5.93,.31,2.52-.85,5.3-3.17,6.43-1.63,.79-3.58,.69-5.33,.19-1.75-.5-3.36-1.35-5.04-2.04-.8-.33-1.63-.63-2.33-1.13-.52-.38-1.54-.89-1.85-1.44-.45-.79-.12-2.16,0-3Z"/><path class="cls-1" d="M305.9,204.9s-.42-.86-.89-.59c-1.18,.68-.25,1.87,.43,2.19l.46-1.6Z"/><path class="cls-5" d="M305.83,205.46c.4-4.59,4.23-8.02,8.56-7.65,4.33,.37,7.51,4.39,7.11,8.98-.4,4.59-4.23,8.02-8.56,7.65-4.33-.37-7.51-4.39-7.11-8.98Z"/><path class="cls-5" d="M315.18,215.03c-.88,.7-.81,3.65-.81,3.65-.17,1.43-5.38,.66-5.23-.65,.46-1.02,1.18-3.02,.24-3.43-.78-.35-1.34-.7-2.1-1.25-4.51-3.28-1.15-9.55-1.15-9.55,0,0,16.55,2.29,13.94,7.07-.73,1.33-3.96,3.42-4.89,4.16Z"/><path class="cls-15" d="M314.63,208.16c.06-.44,.47-.75,.91-.69,.45,.06,.76,.46,.7,.9-.06,.44-.47,.75-.91,.69-.45-.06-.76-.46-.7-.9Z"/><path class="cls-15" d="M307.13,206.08c.06-.44,.47-.75,.91-.69,.45,.06,.76,.46,.7,.9-.06,.44-.47,.75-.91,.69-.45-.06-.76-.46-.7-.9Z"/><path class="cls-1" d="M310.67,209.41c.1,0,.19-.07,.2-.17,0-.1-.07-.19-.17-.2-.21-.02-.36-.15-.42-.27-.05-.09-.06-.18-.03-.25,.06-.09,.49-.31,.93-.46,.1-.03,.15-.14,.11-.23-.03-.09-.14-.14-.24-.11-.29,.1-1,.37-1.14,.63-.09,.17-.08,.39,.03,.59,.14,.25,.41,.43,.71,.45Z"/><path class="cls-15" d="M317.09,207.32c.08,0,.16-.02,.22-.08,.11-.11,.11-.28,0-.39-.73-.72-1.87-.88-1.92-.89-.15-.02-.29,.08-.31,.23-.02,.15,.08,.29,.23,.31h0s1.01,.15,1.61,.74c.05,.05,.11,.07,.17,.08Z"/><path class="cls-15" d="M307.18,204.82s.08,0,.13-.02c.79-.31,1.77-.06,1.78-.06,.15,.04,.3-.05,.34-.19,.04-.15-.05-.3-.2-.33-.05-.01-1.16-.29-2.12,.08-.14,.06-.21,.21-.15,.35,.04,.1,.13,.16,.23,.17Z"/><path class="cls-22" d="M319.8,210.18c-.22,.04-1.47-2.75-2.19-5.61-.73-2.86-3.42-4.49-3.42-4.49,0,0-5.75,.42-6.67,1.44-.92,1.02-1.79,3.19-1.79,3.19,0,0,.6-3.57,2.8-5.34,2.2-1.78,5.48-2.94,10.14-.38,4.66,2.56,3.99,10.71,1.14,11.21Z"/><path class="cls-5" d="M319.19,209.62c.17-.25,.44-.43,.75-.51,.62-.16,1.7-.28,2.32,.52,.91,1.17-1.57,3.64-3.47,2,0,0-.52-.66,.41-2.01Z"/><path class="cls-22" d="M325.41,206.95c-.16-.87-.5-1.71-.99-2.45,.4,.19,.79,.38,1.19,.58,.48-.42,.28-1.26-.22-1.66-.5-.4-1.18-.48-1.82-.55,.18-.78,.35-1.57,.3-2.37-.03-.51-.19-1.07-.62-1.34-.44-.27-1.18-.03-1.18,.48-.12-1.07-1.06-1.85-1.99-2.42-2.41-1.48-5.19-2.38-8.02-2.59-.63-.05-1.27-.06-1.86,.17-.58,.22-1.1,.73-1.15,1.34,.19,.08,.37,.16,.56,.24-1.53,.18-2.99,.83-4.15,1.82-.51,.44-.99,1.1-.73,1.71,.13,.31,.42,.52,.71,.69,1.1,.64,2.42,.89,3.68,.7,1.27-.19,2.53-.82,3.77-.51-.31,.37-.81,.5-1.24,.72-.43,.22-.83,.68-.68,1.13,.13,.38,.57,.54,.97,.62,1.35,.27,2.77,.13,4.05-.38-.22,.61,.11,1.32,.64,1.71,.53,.38,1.22,.5,1.88,.5,.53,0,1.07-.06,1.59,.07,1.45,.37,1.65,1.91,2.65,2.77,1.29,1.12,3.05,1.15,2.67-.99Z"/><path class="cls-15" d="M314.58,285.82s-5.54,4.72-4.69,5.19c.85,.48,10.3,0,10.3,0l-.45-5.19h-5.16Z"/><path class="cls-15" d="M296.9,285.82s-5.54,4.72-4.69,5.19c.85,.48,10.3,0,10.3,0l-.11-5.19h-5.5Z"/><path class="cls-4" d="M307.93,210.14l5.24,1.2s-1.93,1.8-3.56,1.35c-1.64-.45-1.68-2.55-1.68-2.55h0Z"/><g><path class="cls-9" d="M336.16,256.1c0-.92-3.4-1.67-7.59-1.67s-7.59,.75-7.59,1.67c0,.3,.9,15.43,.9,15.48,0,.56,2.99,1.02,6.69,1.02s6.69-.46,6.69-1.02c0-.05,.9-15.18,.9-15.48h0Z"/><path class="cls-9" d="M321.04,257.66c-.04-.2-.93-4.91,1.57-7.9,1.3-1.55,3.26-2.33,5.85-2.33s4.69,.79,5.98,2.35c2.33,2.82,1.48,7.08,1.44,7.26l-.57-.11s.84-4.19-1.32-6.79c-1.18-1.42-3.04-2.14-5.53-2.14s-4.22,.72-5.4,2.13c-2.33,2.78-1.46,7.38-1.45,7.43l-.57,.11h0Z"/><path class="cls-4" d="M334.78,256.22c0,.16-.18,.31-.5,.45-.97,.42-3.24,.71-5.88,.71s-4.91-.29-5.88-.71c-.32-.14-.5-.29-.5-.45,0-.64,2.86-1.17,6.38-1.17s6.38,.52,6.38,1.17Z"/><path class="cls-27" d="M334.28,256.68c-.97,.42-3.24,.71-5.88,.71s-4.91-.29-5.88-.71c.97-.42,3.24-.71,5.88-.71s4.91,.29,5.88,.71Z"/></g><path class="cls-5" d="M326.71,243.33s-1.02,2.09-1.22,2.93c-.2,.84-1.02,1.5-.59,1.77,.43,.27,1.42-1.06,1.42-1.06,0,0,.16,1.68,.63,1.97,.46,.28,.62-.84,.62-.84,0,0,.26,.98,.65,.95,.57-.04,.35-1.49,.35-1.49,0,0,.2,1,.32,1.21,.09,.18,.64,.37,.7,.04,.15-.85-.06-1.5-.06-1.5,0,0,.35,1.43,.48,1.6,.13,.17,.46,.14,.45-.79-.02-1.28-.79-4.01-1.69-5.24l-2.05,.45Z"/></g><g><g><path class="cls-5" d="M214.89,282.36s-5.16-1.98-6.07-1.08c-1.64,1.64-3.68,4.92-4.54,4.36-.85-.55,1.52-9.11,2.44-9.11,.92,0,4.32,2.73,9.7,3.11l-1.53,2.72Z"/><path class="cls-14" d="M208.67,277.36c-.9-.55-1.61-.83-1.94-.83-.92,0-3.29,8.56-2.44,9.11,.63,.41,1.95-1.26,3.23-2.84-.6-.62-1.42-1.61,1.15-5.45Z"/></g><path class="cls-9" d="M233.11,261.93s9.29,21.38,3.41,25.54c-5.88,4.16-18.87,.25-18.87,.25l-1.23-5.88s9.9-1.17,10.29-3.21c.2-1.05-3-5.34-4.78-9.45-1.68-3.86-1.94-7.59-1.94-7.59l13.12,.34Z"/><g><path class="cls-5" d="M208.04,286.68s-5.35-1.42-6.15-.43c-1.45,1.8-3.12,5.28-4.03,4.82-.91-.46,.51-9.22,1.43-9.32,.92-.1,3.43,1.31,8.82,1.11l-.06,3.82Z"/><path class="cls-14" d="M201.23,282.15c-.96-.25-1.61-.44-1.94-.4-.92,.1-2.34,8.86-1.43,9.32,.67,.34,1.8-1.46,2.9-3.17-.67-.55-1.67-1.66,.46-5.75Z"/></g><path class="cls-9" d="M225.87,263.14s5.38,21.63-1.06,24.88c-6.44,3.25-19.38-.1-19.38-.1l.92-7.55s9.97,.3,10.66-1.66c.36-1.01-2.16-5.72-3.3-10.05-1.07-4.06,1.62-8.94,1.62-8.94l10.54,3.41Z"/><path class="cls-5" d="M243.99,246.53s10.64,13.01,17.35,13.74l-.31,2.64s-13.5-.66-18.87-10.05l1.82-6.33Z"/><path class="cls-16" d="M212.63,261.7s8.7,6.95,25.71,8.38l4.65-15.3,6.38-3.41s-2.76-4.45-4.29-6.02c-1.74-1.79-6.7-7.68-14.68-5.34-6.37,1.86-17.77,21.69-17.77,21.69Z"/><path class="cls-5" d="M233.01,250.15s1.76,8.04,6.52,14.7l-1.27,2.32s-9.19-9-11.35-15.77c0,0,4.31-.22,6.09-1.26Z"/><g><path class="cls-15" d="M249.12,230.85c.32-1.34,.63-2.71,.49-4.08-.55-5.23-8.16-7.92-12.45-5.64-1.85,.98-3.57,2.66-4.57,4.49-1.19,2.19-1.12,5.14,.59,6.96,1.2,1.29,3.02,1.87,4.79,2.02,1.78,.15,3.58-.07,5.37-.11,.82-.02,2.15-.17,2.95-.33,.6-.12,1.37-.26,1.74-.57,.69-.57,.89-1.93,1.08-2.74Z"/><path class="cls-1" d="M248.92,230.93s.69-.63,1.02-.23c.83,1.03-.44,1.79-1.18,1.85l.16-1.62Z"/><path class="cls-5" d="M248.79,231.47c1.28-4.33-.99-8.79-5.07-9.95-4.08-1.17-8.42,1.4-9.7,5.73-1.28,4.33,.99,8.79,5.07,9.95,4.08,1.17,8.42-1.4,9.7-5.73Z"/><path class="cls-5" d="M235.03,235.16c.56,.95,.51,2.13-.06,3.07h0c-.55,.97-2.16,2.36-2.16,2.36-.32,1.23,4.13,3.44,6.91,1.69,.4-.25,.47-.82,.12-1.14-.27-.25-.45-.61-.28-1.13h0c.54-.84,1.46-1.36,2.47-1.41,.84-.04,1.71-.19,2.6-.43,5.29-1.43,4.47-8.31,4.47-8.31,0,0-15.92-3.65-15.25,1.62,.19,1.46,.59,2.69,1.18,3.69Z"/><g><path class="cls-15" d="M239.72,231.05c.26-.53-.11-1.13-.71-1.14-.3,0-.59,.17-.72,.43-.26,.53,.11,1.13,.71,1.14,.3,0,.59-.16,.72-.43Z"/><path class="cls-15" d="M247.32,231.75c.26-.53-.11-1.13-.71-1.14-.3,0-.59,.17-.72,.43-.26,.53,.11,1.13,.71,1.14,.3,0,.59-.17,.72-.43Z"/><path class="cls-1" d="M242.96,233.39c-.1-.03-.15-.13-.12-.22,.03-.09,.13-.15,.22-.12,.2,.06,.38-.01,.48-.1,.08-.07,.12-.15,.11-.22-.02-.1-.34-.45-.69-.74-.08-.06-.09-.18-.02-.25,.06-.07,.18-.08,.26-.02,.23,.19,.78,.68,.81,.97,.02,.19-.07,.39-.24,.53-.22,.18-.53,.25-.81,.17Z"/><path class="cls-15" d="M237.85,229.25c-.09-.03-.17-.1-.19-.2-.03-.13,.05-.26,.18-.31,.92-.39,2.01-.15,2.05-.14,.15,.03,.24,.18,.2,.32-.03,.14-.18,.23-.32,.2h0s-.98-.21-1.74,.11c-.06,.03-.13,.03-.18,.01Z"/><path class="cls-15" d="M247.78,230.41s-.08-.03-.11-.06c-.61-.56-1.59-.67-1.6-.67-.15-.02-.26-.15-.24-.3,.02-.15,.15-.25,.3-.24,.05,0,1.17,.14,1.91,.81,.09,.08,.11,.21,.06,.31-.07,.12-.2,.17-.32,.14Z"/><path class="cls-4" d="M245.22,234.39s-3.17,.41-5.49-.36c0,0,.8,1.76,2.81,1.91,2.01,.14,2.68-1.55,2.68-1.55Z"/></g><path class="cls-15" d="M234.35,230.93c.19,.11,2.32-2,4.01-4.36,1.69-2.36,4.73-2.92,4.73-2.92,0,0,5.1,2.38,5.57,3.62,.47,1.25,.49,3.53,.49,3.53,0,0,.73-3.46-.64-5.85-1.37-2.38-3.94-4.58-9.11-3.87-5.17,.72-7.48,8.39-5.05,9.84Z"/><path class="cls-5" d="M235.11,230.63c-.07-.29-.25-.55-.5-.72-.51-.36-1.45-.84-2.3-.33-1.25,.75,.13,3.86,2.45,3.03,0,0,.71-.43,.35-1.98Z"/><path class="cls-15" d="M234.26,219.48c-1.69-.62-3.46,.71-5.25,.77-2.31,.08-4.13-1.88-6.35-2.53-.89-.26-1.83-.3-2.75-.22-.84,.08-1.68,.27-2.4,.69-1.34,.79-2.11,2.4-1.95,3.94,.16,1.53,1.2,2.93,2.6,3.62,1.4,.69,3.12,.67,4.55,.04,1.01-.45,1.91-1.19,3.01-1.34,1.23-.17,2.44,.44,3.48,1.07,.16,.1,.33,.17,.52,.2,.85,.16,1.12-.53,1.38-1.09,.36-.8,.91-1.59,1.73-1.92,.81-.33,1.86-.04,2.24,.77,.31-.7,.83-1.28,.74-2.07-.1-.83-.75-1.64-1.54-1.93Z"/></g><path class="cls-5" d="M260.68,260.44s2.21-1.14,3.1-1.37c.89-.24,1.58-1.12,1.88-.68,.3,.43-1.09,1.52-1.09,1.52,0,0,1.84,.39,2.42,.42,.58,.03,1.61,.36,1.62,.78,0,.42-2.78,.06-2.78,.06,0,0,2.32,.53,2.41,.92,.09,.39-2.96,.14-2.96,.14,0,0,2.5,.44,2.67,.65,.17,.2-.09,.42-1.02,.47-.92,.05-1.88-.12-1.88-.12,0,0,1.73,.44,1.92,.57,.19,.12,.36,.43-1.02,.37-1.38-.06-4.33-.67-5.68-1.57l.41-2.15Z"/><path class="cls-14" d="M222.63,288.9l-.03-.15c3.53-.61,6.03-2.18,7.44-4.67,1.64-2.9,1.47-6.56,1.04-9.12-.46-2.78-1.32-4.89-1.33-4.91l.14-.06s.88,2.15,1.34,4.94c.43,2.58,.6,6.27-1.06,9.21-1.43,2.53-3.96,4.13-7.54,4.74Z"/><g><polygon class="cls-15" points="247.92 271.3 245.83 270.06 244.15 269.67 244.29 269.09 246.06 269.49 248.23 270.78 247.92 271.3"/><path class="cls-26" d="M244.76,269.46h0c-.11,.45-.56,.72-1.02,.61l-8.24-1.95c-.45-.11-.73-.56-.62-1h0c.11-.45,.56-.72,1.02-.61l8.24,1.95c.45,.11,.73,.56,.62,1Z"/><g><path class="cls-15" d="M258.46,273c-1.73,1.41-4.62,1.3-4.62,1.3l-8.14-1.31c-.27-.04-.34-.39-.1-.53l2.48-1.42,.21-1.87c.02-.21,.22-.36,.43-.32,1.32,.23,5.63,1,7.2,1.64,1.86,.76,2.55,2.51,2.55,2.51Z"/><path class="cls-15" d="M258.46,273l-10.38-1.96,.21-1.87c.02-.21,.22-.36,.43-.32,1.32,.23,5.63,1,7.2,1.64,1.86,.76,2.55,2.51,2.55,2.51Z"/></g></g><path class="cls-5" d="M239.53,264.85s2.51,1.35,3.31,2.03c.8,.68,2.09,.76,1.86,1.33-.22,.56-2.16-.05-2.16-.05,0,0,.8,1.97,1.14,2.53,.34,.57,.68,1.73,.28,2.01-.4,.28-1.84-2.56-1.84-2.56,0,0,.97,2.51,.65,2.84-.32,.33-2.03-2.68-2.03-2.68,0,0,1.17,2.62,1.08,2.91-.09,.28-.46,.18-1.11-.65-.64-.83-1.08-1.84-1.08-1.84,0,0,.68,1.9,.68,2.16,0,.26-.19,.61-1.01-.72-.82-1.33-2.12-4.49-2.11-6.32l2.34-.99Z"/><polygon class="cls-16" points="224.8 247.85 226.03 254.18 236.62 251.64 233.82 243.77 224.8 247.85"/><polygon class="cls-15" points="226.62 254.12 224.25 248.25 224.39 248.2 226.72 253.94 234.71 252.02 233.48 245.95 233.63 245.92 234.89 252.14 226.62 254.12"/></g><g><g><polygon class="cls-15" points="268.19 283.97 265.54 284.02 265.94 175.61 266.29 176.83 268.19 283.97"/><polygon class="cls-15" points="265.75 227.03 253.65 201.12 254.44 200.83 266.79 226.09 265.75 227.03"/><polygon class="cls-15" points="266.7 245.13 265.54 244.34 278.08 227.85 278.35 228.64 266.7 245.13"/></g><path class="cls-23" d="M251.18,193.51c1.85,1.51,3.52,7.83,3.52,7.83,0,0-6.69-.39-8.53-1.9-1.85-1.51-2.22-4.07-.83-5.71,1.39-1.64,4.01-1.74,5.85-.23Z"/><path class="cls-23" d="M264.5,168.54c1.51,1.84,1.78,8.29,1.78,8.29,0,0-6.36-1.59-7.88-3.43-1.51-1.84-1.38-4.41,.3-5.76,1.68-1.34,4.27-.94,5.79,.89Z"/><path class="cls-23" d="M274.59,180.21c-2.11,1.14-8.28,.42-8.28,.42,0,0,2.4-6.04,4.5-7.18,2.11-1.14,4.66-.55,5.7,1.32,1.04,1.87,.18,4.31-1.92,5.44Z"/><path class="cls-23" d="M286.25,228.31c-2.11,1.14-8.82,.41-8.82,.41,0,0,2.94-6.03,5.04-7.17,2.11-1.14,4.66-.55,5.7,1.32,1.04,1.87,.18,4.31-1.92,5.44Z"/><path class="cls-23" d="M276.81,223.64c.84,1.73-.67,6.76-.67,6.76,0,0-4.22-2.32-5.07-4.05-.84-1.73-.24-3.74,1.34-4.49,1.59-.75,3.55,.05,4.4,1.78Z"/><path class="cls-23" d="M280.64,235.89c-1.72-.9-3.89-4.98-3.89-4.98,0,0,5.14-1.45,6.87-.56,1.72,.9,2.45,2.87,1.63,4.39s-2.89,2.04-4.61,1.14Z"/><path class="cls-23" d="M261.78,183.4c2.05,1.23,4.11,7.15,4.11,7.15,0,0-6.14,.67-8.19-.56-2.05-1.23-2.8-3.7-1.67-5.52,1.13-1.82,3.7-2.3,5.76-1.07Z"/><path class="cls-23" d="M263.29,201.45c-1.38,1.65-7.12,2.91-7.12,2.91,0,0,.26-5.68,1.64-7.33,1.38-1.65,3.72-2,5.23-.78,1.51,1.22,1.62,3.55,.25,5.2Z"/><path class="cls-23" d="M248.18,202.36c2.14-.34,7.13,2.33,7.13,2.33,0,0-3.84,4.21-5.99,4.55-2.14,.34-4.13-.92-4.45-2.82-.32-1.9,1.17-3.72,3.31-4.06Z"/><path class="cls-23" d="M253.84,216.44c1.26-1.41,6.05-1.95,6.05-1.95,0,0-.12,4.6-1.38,6-1.26,1.41-3.33,1.64-4.62,.52-1.29-1.12-1.31-3.17-.05-4.57Z"/></g><path class="cls-13" d="M248.63,291.31c-.61-.12-.89-.81-.52-1.3,1.97-2.65,8.12-9.52,18.8-9.35,9.96,.16,15.01,6.19,16.89,9.14,.42,.66-.1,1.52-.9,1.46-4.06-.31-14.08-.93-20.01-.08-7.45,1.07-12.18,.52-14.26,.13Z"/></svg>