<?xml version="1.0" encoding="utf-8"?>
<!-- Generator: Adobe Illustrator 26.3.1, SVG Export Plug-In . SVG Version: 6.00 Build 0)  -->
<svg version="1.1" id="Layer_1" xmlns="http://www.w3.org/2000/svg" xmlns:xlink="http://www.w3.org/1999/xlink" x="0px" y="0px"
	 viewBox="0 0 2753 2000" style="enable-background:new 0 0 2753 2000;" xml:space="preserve">
<style type="text/css">
	.st0{opacity:0.1;fill:#9BC1F9;}
	.st1{fill:#256653;}
	.st2{fill:#3C8F7C;}
	.st3{fill:#327F6B;}
	.st4{fill:#50BFA5;}
	.st5{fill:#96D9C9;}
	.st6{fill:#F8A492;}
	.st7{fill:#355389;}
	.st8{fill:#FE875E;}
	.st9{fill:#13375B;}
	.st10{fill:#F7CC7F;}
	.st11{fill:#F48C7F;}
	.st12{fill:#F47458;}
	.st13{fill:#184655;}
	.st14{fill:#F7A491;}
	.st15{fill:#466EB6;}
	.st16{fill:#FFFFFF;}
	.st17{fill:#DD513A;}
	.st18{fill:#E0973F;}
	.st19{fill:#0E2E35;}
	.st20{fill:#6A97CE;}
	.st21{fill:#9BC1F9;}
</style>
<g>
	<path class="st0" d="M280.8,1871h2277.5c188.8-157.5,91.6-631.3-66-727.4c-169.7-103.4,99.8-461-161.7-577.1
		c-170.7-75.8-442.2,6.8-405.7-195.9c50.6-281.2-541.3-353.2-977.3-277.4C476,175.1,906.6,578,388.1,659.1
		C121.5,700.9,173,1058,197.9,1131.7c21.7,64.3,164.9,166.2-34.2,306.6C-128.2,1644.2,273.9,1867.2,280.8,1871z"/>
	<g>
		<g>
			<path class="st1" d="M2303.7,668.3c0,0-37.3,81.2-62.4,115.5c-25.1,34.3-49,67.1-69,162.2c-20,95.2-16.6,104.7-22.1,129.3
				c-5.5,24.6-41.1,124.2-41.3,142.4c-0.2,18.3-72.1,122.2-90.5,170.9c-18.4,48.7-51,118.2-49.2,153.5l8.2-2.1
				c0,0,6.7-82.5,63.5-165.9c56.8-83.4,48.7-99.1,113.2-142c64.5-42.8,106.2-161.2,106.2-161.2s65.6-128.5,62.6-195.3
				S2337.3,748.6,2303.7,668.3z"/>
			<path class="st1" d="M2216.4,543.4c0,0-2.2,53.3-19.4,85c-17.2,31.7-32,50.9-35.1,85.2c-3.1,34.3-13.9,122.6-61.9,165.7
				c-48,43.1-54.1,172.4-90.6,211.5c-36.5,39.1-41.3,67.2-34.5,134.2c6.7,67.1,29.6,160-23.3,281.3l-12-30.2
				c0,0,37.9-99.8,28.7-158.2s-41.1-146.7-29.4-189s-31.8-50.6-5.6-114.7c26.2-64,15.4-86.3,51-141.7c0,0,3.7-2.6,13-49.4
				c9.4-46.8,84.8-132.7,119.6-162C2151.8,631.8,2201.9,584.9,2216.4,543.4z"/>
			<path class="st2" d="M2074.8,807.4c0,0-41.6,71.3-42.2,117.2c-0.6,45.9,4.4,83.2-16.7,146.1c-21.1,62.8,20.8,102.6,8.7,137.3
				c-12.1,34.7-13,75.8-12.6,106.9c0.4,31.2-47.7,134.3-55,186.5s2,52.4,2,52.4s8-68.9,19-91.7c11.1-22.8,44.7-101.4,52.5-131.8
				c7.9-30.4,29.2-49.9,47.5-101.4c18.4-51.5,44.5-94.8,42.5-167.9C2118.5,987.9,2147.9,910.8,2074.8,807.4z"/>
			<path class="st2" d="M1986.6,1505.9c0,0,19.4-90.5,101.3-99.5c81.9-9,130,7.2,187.9-59s91.5-171,109.9-189.1
				c0,0-29.1-15-77.4,30.2c-48.3,45.2-82.3,79.5-110.3,105.8s-50.7,9.2-80.2,26.5c-24.8,14.5-56.8,56.5-70.9,78.5
				c-4.6,7.1-10,13.7-16.2,19.5c-5.7,5.2-12.4,11.7-16.8,16.4c-8.7,9.4-33.7,71-33.7,71L1986.6,1505.9z"/>
			<path class="st2" d="M1957.7,1489.9c0,0,28.9-110.7,9.5-164.8c-19.3-54.2-79.9-94.2-77.4-128.3c2.4-34,41.3-126,9.6-194.4
				c0,0-12,61.1-23.9,74.6c-11.9,13.6-93.4,68.4-78.9,140.7c14.4,72.3,93.7,89.3,113.2,110.6c19.5,21.3,45.9,21.3,46,35.4
				c0.2,14.2,5.3,65.7-3.4,116.5L1957.7,1489.9z"/>
			<path class="st3" d="M1989.3,1415.9l40.5-116.8c0,0,23.8-93.9,37.6-172.3s7.3-319.4,7.3-319.4s-41.6,71.3-42.2,117.2
				c-0.6,45.9,4.4,83.2-16.7,146.1c-21.1,62.8,20.8,102.6,8.7,137.3c-12.1,34.7-13,75.8-12.6,106.9s-47.7,134.3-55,186.5
				c-4,28.6-3,41.6-1.3,47.5C1949.1,1503.2,1989.3,1415.9,1989.3,1415.9z"/>
			<path class="st3" d="M2189,1346.3c-36.2,7.2-68.5,4.8-111.5,36.7c-42.9,32-68.2,66.1-68.2,66.1s-19.3,34.5-27.3,52.7
				c-1.2,2.8-1.8,4.4-1.8,4.4l6.3-0.3c0,0,19.4-90.5,101.3-99.5c81.9-9,130,7.2,187.9-59s91.5-171,109.9-189.1
				c0,0-61.5,47.9-99.6,90.2C2248.1,1290.9,2225.2,1339.1,2189,1346.3z"/>
			<path class="st3" d="M1875.5,1077.1c-11.9,13.6-93.4,68.4-78.9,140.7c14.4,72.3,93.7,89.3,113.2,110.6
				c19.5,21.3,45.9,21.3,46,35.4c0.2,14.2,5.3,65.7-3.4,116.5l2.3,4.2c4.3-19.8,10.2-50,12.1-73c3.1-37.2-2.9-52.7-14.9-82.8
				c-12-30.2-86.3-91.6-105-123.9c-18.6-32.3,35.9-86.3,48-112.4c12.1-26.1,4.4-90,4.4-90S1887.4,1063.5,1875.5,1077.1z"/>
		</g>
		<g>
			<path class="st4" d="M2068.9,1436.5l12.7-30.8c9.9-22.6,35.2-33.4,56.5-24.1l0,0c53.7,23.4,77,88.7,52.1,145.7l-18.2,41.7
				c-8,18.3-5.2,38.4,5.6,52.5c9.8,12.9,11.4,30.8,4.6,46.3l-9.6,22c-10.4,23.8-30.6,41.4-54.6,48.7c-14,4.2-26.4,14.8-32.9,29.8
				l-13.6,31.1c-15,34.4-53.5,50.8-85.8,36.7l-18.5-8.1c-32.4-14.1-46.5-53.5-31.5-87.9l0,0c24.3-41.1,22.4-71.8,13.7-92.7
				c-12.7-30.6-12.5-65.9,1.2-97.2l1.9-4.4c14.4-33.1,42.3-57.8,75.6-68.4C2042.8,1472.7,2058.1,1461.3,2068.9,1436.5z"/>
			<path class="st5" d="M1839.7,1871c26.1-33.8,168.9-214.7,262-244.9c102.8-33.3,5.9,98.9,5.9,98.9s182.4-199.4,249.3-181.5
				c61.4,16.5,0,140.1,0,140.1s69.1-68.5,152.9-68.5c81.6,0-57,242.8-64.5,255.8H1839.7z"/>
			<g>
				<g>
					<path class="st2" d="M2389.3,1479.5c-74.5,116.4-128.9,245.7-160,383l-5.1-1.4c31-134.5,85-263.5,159.4-379.8
						c17.3-27,36-59.1,68.3-69.6c0.6-0.2,0.9,0.7,0.3,1C2422.6,1423.9,2405.5,1454.3,2389.3,1479.5z"/>
				</g>
				<g>
					<path class="st2" d="M2247.3,1867.4c83.3-113.2,184.5-217.9,304.9-308.9c1.2-0.9,2.8,1.2,1.6,2.1
						c-114.2,87.8-215.2,191.4-300.2,308.5L2247.3,1867.4z"/>
				</g>
				<path class="st2" d="M2396.1,1407.3c1.9,2.8,9.3,10.2,11.4,19.8c2.9,9.2,0.6,20.7,0.4,20.2c-0.6,0.2,8.5-7.4,11.3-19.6
					c3.7-11.7,1.1-27.9-3.5-33.2c-7.9-12.1-21.6-13.4-24.3-7.5C2388.7,1393,2392.3,1400.9,2396.1,1407.3z"/>
				<path class="st2" d="M2414,1511.2c-2.8-2-10-9.5-19.6-11.8c-9.1-3.1-20.6-1-20.2-0.8c-0.2,0.5,7.6-8.3,19.8-10.9
					c11.7-3.4,27.9-0.5,33.2,4.1c12,8.1,12.9,21.9,7,24.4C2428.2,1519,2420.3,1515.2,2414,1511.2z"/>
				<path class="st2" d="M2387.1,1556.8c-2.8-2-10-9.5-19.6-11.8c-9.1-3.1-20.6-1-20.2-0.8c-0.2,0.5,7.6-8.3,19.8-10.9
					c11.7-3.4,27.9-0.5,33.2,4.1c12,8.1,12.9,21.9,7,24.4C2401.3,1564.5,2393.4,1560.7,2387.1,1556.8z"/>
				<path class="st2" d="M2483,1662.4c-2.8-2-10-9.5-19.6-11.8c-9.1-3.1-20.6-1-20.2-0.8c-0.2,0.5,7.6-8.3,19.8-10.9
					c11.7-3.4,27.9-0.5,33.2,4.1c12,8.1,12.9,21.9,7,24.4C2497.2,1670.1,2489.4,1666.4,2483,1662.4z"/>
				<path class="st2" d="M2532,1619.2c-2.8-2-10-9.5-19.6-11.8c-9.1-3.1-20.6-1-20.2-0.8c-0.2,0.5,7.6-8.3,19.8-10.9
					c11.7-3.4,27.9-0.5,33.2,4.1c12,8.1,12.9,21.9,7,24.4C2546.3,1626.9,2538.4,1623.2,2532,1619.2z"/>
				<path class="st2" d="M2358.5,1458.9c2.3,2.5,10.8,8.6,14.4,17.8c4.3,8.6,3.9,20.3,3.6,19.9c-0.5,0.3,7.2-8.7,8.1-21.1
					c1.8-12.1-3.3-27.7-8.7-32.3c-9.7-10.7-23.4-9.8-25.1-3.6C2348.9,1445.9,2353.7,1453.1,2358.5,1458.9z"/>
				<path class="st2" d="M2318.9,1510.5c3.3,1.8,15,5,20.8,13.7c6.6,7.7,7.5,21,7,20.7c-0.6,0.6,8.3-12.8,7.9-27.1
					c0.8-14.3-7.7-29.5-15.1-32.3c-13.8-7.8-31.5-0.8-33,6.8C2304.9,1500.1,2312,1506.2,2318.9,1510.5z"/>
				<path class="st2" d="M2277.3,1588.7c3.6,1.2,15.6,2.4,22.8,10c7.8,6.5,10.9,19.4,10.4,19.2c-0.5,0.7,6-14,3.2-28
					c-1.6-14.2-12.5-27.8-20.3-29.3c-15-5.4-31.2,4.5-31.4,12.3C2261.7,1580.8,2269.7,1585.6,2277.3,1588.7z"/>
				<path class="st2" d="M2400.5,1643.2c2.6,1.6,11.9,4.9,16.2,12.3c4.9,6.7,4.9,17.5,4.5,17.3c-0.5,0.4,7.5-9.9,8-21.6
					c1.5-11.6-4.5-24.4-10.5-27.1c-10.8-7.2-25.6-2.5-27.2,3.7C2389.7,1633.9,2395.1,1639.3,2400.5,1643.2z"/>
				<path class="st2" d="M2464.6,1425.7c-1.6-1.3-5.5-6-11.1-7.8c-5.3-2.2-12.2-1.5-11.9-1.3c-0.2,0.3,4.9-4.6,12.2-5.6
					c7.1-1.5,16.5,0.9,19.4,3.9c6.7,5.3,6.7,13.5,3.1,14.7C2472.7,1430.9,2468.2,1428.3,2464.6,1425.7z"/>
				<path class="st2" d="M2449.7,1392.4c0.1,2,1.4,8-0.6,13.6c-1.5,5.5-6.2,10.6-6.2,10.3c-0.3-0.1,6.6-1,11.9-6.2
					c5.5-4.7,9.4-13.6,8.8-17.8c-0.1-8.6-6.6-13.5-9.8-11.4C2450.5,1382.9,2449.8,1388,2449.7,1392.4z"/>
				<path class="st2" d="M2567.4,1575.2c-1.6-1.3-5.5-6-11.1-7.8c-5.3-2.2-12.2-1.5-11.9-1.3c-0.2,0.3,4.9-4.6,12.2-5.6
					c7.1-1.5,16.5,0.9,19.4,3.9c6.7,5.3,6.7,13.5,3.1,14.7C2575.4,1580.4,2570.9,1577.8,2567.4,1575.2z"/>
				<path class="st2" d="M2549.3,1541.7c0.2,2,2.1,7.9,0.6,13.6c-1,5.6-5.3,11-5.4,10.7c-0.4,0,6.5-1.6,11.3-7.2
					c5.1-5.1,8.2-14.4,7.3-18.4c-0.8-8.5-7.7-13-10.7-10.6C2549.4,1532.1,2549.1,1537.2,2549.3,1541.7z"/>
			</g>
			<g>
				<g>
					<path class="st2" d="M2536.8,1758.3c-76.1,8.3-147,41.9-215.2,74.7c-46,22.1-43.7,28.4-53.1,31.7c-1.5,0.5-3-1.1-2.3-2.6
						c3.6-7.1,13.1-12,19.6-16.1c7.7-4.8,15.7-9,23.8-12.9c17.4-8.4,35.2-16,52.9-23.7c36-15.6,72.6-30.4,110.6-40.3
						c20.9-5.5,42.1-9.4,63.6-11.3C2537.1,1757.6,2537.2,1758.2,2536.8,1758.3L2536.8,1758.3z"/>
				</g>
				<path class="st2" d="M2468.2,1734.7c0.5,3.1,3.7,12.2,1.7,21.1c-1.2,8.8-7.6,17.5-7.7,17.1c-0.6,0,10-2.9,17.2-12
					c7.7-8.3,11.9-22.9,10.2-29.2c-1.8-13.3-12.8-19.7-17.4-15.8C2467.6,1719.7,2467.5,1727.8,2468.2,1734.7z"/>
				<path class="st2" d="M2401.2,1758.7c0.5,3.1,3.7,12.2,1.7,21.1c-1.2,8.8-7.6,17.5-7.7,17.1c-0.6,0,10.1-2.9,17.2-12
					c7.7-8.3,11.9-22.9,10.2-29.2c-1.8-13.3-12.8-19.7-17.4-15.8C2400.6,1743.7,2400.5,1751.8,2401.2,1758.7z"/>
				<path class="st2" d="M2333.1,1789c0.5,3.1,3.7,12.2,1.7,21.1c-1.2,8.8-7.6,17.5-7.7,17.1c-0.6,0,10.1-2.9,17.2-12
					c7.7-8.3,11.9-22.9,10.2-29.2c-1.8-13.3-12.8-19.7-17.4-15.8C2332.5,1774.1,2332.4,1782.1,2333.1,1789z"/>
				<path class="st2" d="M2488.2,1797.3c-1.4-2.6-4-11.1-10.5-16.5c-5.8-5.8-15.4-8.7-15.2-8.3c-0.4,0.3,9-3.5,19.4-0.8
					c10.3,1.9,21.6,10.2,23.8,15.8c6.1,10.8,1.5,21.7-4,21.4C2496.2,1808.7,2491.6,1802.8,2488.2,1797.3z"/>
				<path class="st2" d="M2418.5,1822c-1.4-2.6-4-11.1-10.5-16.5c-5.8-5.8-15.4-8.7-15.2-8.3c-0.4,0.3,9-3.5,19.4-0.8
					c10.3,1.9,21.6,10.2,23.8,15.8c6.1,10.8,1.5,21.7-4,21.4C2426.4,1833.4,2421.8,1827.5,2418.5,1822z"/>
				<path class="st2" d="M2541.3,1771.9c-1.2-1.4-4-6.4-8.8-9c-4.4-2.9-10.8-3.4-10.7-3.2c-0.2,0.3,5.2-3.4,12.1-3.1
					c6.7-0.2,14.9,3.6,17.1,6.8c5.2,6,3.8,13.4,0.3,14C2547.8,1778,2544.1,1774.9,2541.3,1771.9z"/>
				<path class="st2" d="M2533.3,1739.1c-0.3,1.9,0,7.6-2.8,12.3c-2.2,4.8-7.4,8.6-7.4,8.3c-0.3-0.1,6.2,0.2,11.9-3.7
					c5.8-3.4,10.8-10.8,11-14.7c1.3-7.8-3.8-13.4-7-12.1C2535.6,1730.6,2534.1,1735.1,2533.3,1739.1z"/>
			</g>
		</g>
	</g>
	<g>
		<g>
			<path class="st2" d="M573.5,1293c-89.4-79.7-135.4-194.2-158.2-276.2c-24.8-89-28.4-160.1-28.4-160.8l-4.9-0.3
				c0,0.7,3.7,72.3,28.6,161.9c23,82.8,69.5,198.5,160,279.2L573.5,1293z"/>
		</g>
		<g>
			<path class="st2" d="M397.1,835.4c4.4,20.5,0.7,39.9-8.7,53.8c-14.7-10.8-26.3-28.2-30.7-48.7c-4.4-20.5-0.7-39.9,8.7-53.8
				C381.1,797.5,392.6,814.9,397.1,835.4z"/>
		</g>
		<g>
			<path class="st2" d="M369.6,893.8c15.4,14.3,24.4,33.2,26.2,51.3c-16.9,0.8-35.5-6.1-50.9-20.4c-15.4-14.3-24.4-33.2-26.2-51.3
				C335.6,872.6,354.2,879.4,369.6,893.8z"/>
		</g>
		<g>
			<path class="st2" d="M362.4,955.1c19.1,6,34.8,19.3,44.1,35.5c-13.9,8.9-32.5,11.5-51.7,5.5c-19.1-6-34.8-19.3-44.1-35.5
				C324.6,951.7,343.3,949.1,362.4,955.1z"/>
		</g>
		<g>
			<path class="st2" d="M391.9,1028.9c15.2,4.8,27.3,17,34.2,32.5c-11.5,9.7-26.6,13.3-41.7,8.5c-15.2-4.8-27.3-17-34.2-32.5
				C361.7,1027.8,376.7,1024.1,391.9,1028.9z"/>
		</g>
		<g>
			<path class="st2" d="M417.8,923.6c11.9-12,27.7-17.1,43-15.5c0.8,16.2-4.7,32.6-16.7,44.6c-11.9,12-27.7,17.1-43,15.5
				C400.3,952,405.8,935.6,417.8,923.6z"/>
		</g>
		<g>
			<path class="st2" d="M431.6,976.5c11.9-12,27.7-17.1,43-15.5c0.8,16.2-4.7,32.6-16.7,44.6c-11.9,12-27.7,17.1-43,15.5
				C414.1,1004.9,419.7,988.5,431.6,976.5z"/>
		</g>
	</g>
	<g>
		<g>
			<path class="st4" d="M519.6,1401.2c-82.6-12-153.2-61-198-99.9c-48.6-42.2-77.9-82.2-78.2-82.6l-2.9,1.7
				c0.3,0.4,29.9,40.6,78.8,83.2c45.2,39.3,116.6,88.7,200.2,100.9L519.6,1401.2z"/>
		</g>
		<g>
			<path class="st4" d="M241.4,1202.8c10.4,10.2,15.7,22.9,15.6,34.6c-12.7-0.7-26.1-6.3-36.6-16.5c-10.4-10.2-15.7-22.9-15.6-34.6
				C217.6,1187,231,1192.6,241.4,1202.8z"/>
		</g>
		<g>
			<path class="st4" d="M247.9,1247.3c14.5,2.4,26.9,9.9,34.9,19.8c-9.5,6.9-23,10.1-37.4,7.7c-14.5-2.4-26.9-9.9-34.9-19.8
				C220,1248,233.4,1244.9,247.9,1247.3z"/>
		</g>
		<g>
			<path class="st4" d="M267.2,1285.7c13.4-3.9,27.7-2.1,39.3,3.7c-4.7,10.5-14.5,19.2-27.9,23s-27.7,2.1-39.3-3.7
				C244,1298.2,253.8,1289.6,267.2,1285.7z"/>
		</g>
		<g>
			<path class="st4" d="M312.7,1317.3c10.7-3,22.4-0.6,32.3,5.8c-3,10-10.3,17.9-21,21c-10.7,3-22.4,0.6-32.3-5.8
				C294.7,1328.2,302,1320.3,312.7,1317.3z"/>
		</g>
		<g>
			<path class="st4" d="M287.3,1246.1c2.3-11.6,9.6-20.6,19.1-25.5c6.7,9.1,9.8,20.8,7.4,32.3c-2.3,11.6-9.6,20.6-19.1,25.5
				C288,1269.4,285,1257.7,287.3,1246.1z"/>
		</g>
		<g>
			<path class="st4" d="M315.7,1271.6c2.3-11.6,9.6-20.6,19.1-25.5c6.7,9.1,9.8,20.8,7.4,32.3c-2.3,11.6-9.6,20.6-19.1,25.5
				C316.4,1294.8,313.3,1283.1,315.7,1271.6z"/>
		</g>
	</g>
	<g>
		<g>
			<path class="st5" d="M569.3,1648.3c-95.2,36.2-200.1,17.1-271.3-5.3c-77.3-24.3-132.7-57.6-133.2-58l-2.1,4
				c0.6,0.3,56.4,33.9,134.2,58.4c71.9,22.6,177.8,41.9,274.2,5.3L569.3,1648.3z"/>
		</g>
		<g>
			<path class="st5" d="M153.1,1565.7c17.3,6.7,30.6,19.8,37.6,35.1c-14,7.1-31.7,8.2-48.9,1.5c-17.3-6.7-30.6-19.8-37.6-35.1
				C118.1,1560,135.8,1558.9,153.1,1565.7z"/>
		</g>
		<g>
			<path class="st5" d="M186.8,1619.2c16.9-5.9,34.7-4,49.1,3.8c-6,15-18.4,27.5-35.3,33.4c-16.9,5.9-34.7,4-49.1-3.8
				C157.6,1637.6,170,1625.1,186.8,1619.2z"/>
		</g>
		<g>
			<path class="st5" d="M230.7,1656.9c12-13.4,28.2-20.1,44.1-19.8c1.4,16.5-3.9,33.9-15.8,47.3c-12,13.4-28.2,20.1-44.1,19.8
				C213.4,1687.7,218.7,1670.3,230.7,1656.9z"/>
		</g>
		<g>
			<path class="st5" d="M292,1676.3c12-13.4,28.2-20.1,44.1-19.8c1.4,16.5-3.9,33.9-15.8,47.3s-28.2,20.1-44.1,19.8
				C274.7,1707.1,280,1689.8,292,1676.3z"/>
		</g>
		<g>
			<path class="st5" d="M234.3,1613.5c-10.5-13.7-15.2-30.3-14.1-45.3c13.9,1.6,28.1,9.7,38.6,23.4c10.5,13.7,15.2,30.3,14.1,45.3
				C259,1635.3,244.8,1627.2,234.3,1613.5z"/>
		</g>
		<g>
			<path class="st5" d="M298,1633.4c-10.7-13.6-15.7-30.1-14.8-45.1c13.9,1.4,28.2,9.2,38.9,22.8c10.7,13.6,15.7,30.1,14.8,45.1
				C323,1654.8,308.7,1647,298,1633.4z"/>
		</g>
		<g>
			<path class="st5" d="M372.5,1681.7c2.8-7.2,8.4-12.1,15-14.2c3.1,6.6,3.7,14.5,0.9,21.6c-2.8,7.2-8.4,12.1-15,14.2
				C370.3,1696.7,369.7,1688.8,372.5,1681.7z"/>
		</g>
	</g>
	<path class="st2" d="M773.7,1864c0,0,121.4-479.9,81.1-528.2c-55.6-66.6-101.5,154.4-106,135.7c-42.5-177.3-53.8-404.3-191-428.3
		c-78-13.7,18,168.7,12.2,218.1c-5.8,49.3-146.3-114.4-231.6-200.2c-85.4-85.8-129.5-31.5-75.5,76.4
		c52.2,104.3,220.9,218.3,186.1,231.9s-245.9-121.2-271.8-63.6c-31.7,70.6,285,166.7,255.2,182.6c-29.8,15.9-181.2-36.4-177.1,17.6
		c4.1,54,207.6,52,204.2,75.7c-5.6,38.5-140.2-48.6-146.1,4.6c-6.1,54.4,177.1,44.5,173.9,87c-1.8,24.4-41.1-12.4-46.9,21.4
		c-13.2,77.1,228.2,170.9,228.2,170.9L773.7,1864z"/>
	<g>
		<path class="st4" d="M866.3,1866.9c0,0-115.5-177.1-171.1-210.5c-59.2-35.6-14.1,71-14.1,71s-121-144-154.6-114.7
			s-3.1,63.1-3.1,63.1s-108.6-32.2-128.2,7.7c-30,61.3,148.9,112.1,148.9,112.1s-76.8-0.8-62.7,40.6
			C502.7,1898.5,866.3,1866.9,866.3,1866.9z"/>
		<path class="st5" d="M395.2,1683.5c19.5-39.9,128.2-7.7,128.2-7.7s-30.5-33.9,3.1-63.1s130.4,58.3,130.4,58.3s-10.1-72.2,62.7-8.6
			c52.1,45.4,146.7,204.5,146.7,204.5L395.2,1683.5z"/>
	</g>
	<g>
		<g>
			<g>
				<path class="st5" d="M726.1,1422.3l5.2-3.5c-94-142.4-122.7-311.5-130.3-428.2c-8.2-126.7,6.2-220.9,6.3-221.8l-6.4-1.9
					c-0.1,0.9-14.6,95.7-6.4,223.2C602.1,1107.8,631.1,1278.4,726.1,1422.3z"/>
			</g>
			<g>
				<path class="st5" d="M625.8,746.6c0.2,28.6-9.7,52.3-25.6,66.4c-16.1-20.5-26.4-48.1-26.6-76.7c-0.2-28.6,9.7-52.3,25.6-66.4
					C615.3,690.3,625.6,717.9,625.8,746.6z"/>
			</g>
			<g>
				<path class="st5" d="M574.9,810.9c16,25.3,22.6,53.7,20,78.1c-22-6.3-44.1-23.2-60.2-48.5c-16-25.3-22.6-53.7-20-78.1
					C536.7,768.6,558.9,785.6,574.9,810.9z"/>
			</g>
			<g>
				<path class="st5" d="M549.2,887.7c23.1,16,39.7,40.2,47.4,65.3c-20.3,5.7-45,1-68-15c-23.1-16-39.7-40.2-47.4-65.3
					C501.5,867,526.2,871.6,549.2,887.7z"/>
			</g>
			<g>
				<path class="st5" d="M579.3,1021.8c10.1,6,17.7,15.6,21.6,26c-8.3,3.1-18.6,1.9-28.7-4.1c-10.1-6-17.7-15.6-21.6-26
					C558.9,1014.7,569.2,1015.8,579.3,1021.8z"/>
			</g>
			<g>
				<path class="st5" d="M587.5,1071.5c10.1,6,17.7,15.6,21.6,26c-8.3,3.1-18.6,1.9-28.7-4.1c-10.1-6-17.7-15.6-21.6-26
					C567,1064.3,577.4,1065.5,587.5,1071.5z"/>
			</g>
			<g>
				<path class="st5" d="M629,870.4c18.6-10.5,40.3-10.4,59.6-1.7c-3.2,21.5-14.8,40.5-33.4,51c-18.6,10.5-40.3,10.4-59.6,1.7
					C598.8,899.9,610.4,880.9,629,870.4z"/>
			</g>
			<g>
				<path class="st5" d="M632.7,945.2c18.6-10.5,40.3-10.4,59.6-1.7c-3.2,21.5-14.8,40.5-33.4,51c-18.6,10.5-40.3,10.4-59.6,1.7
					C602.6,974.7,614.1,955.8,632.7,945.2z"/>
			</g>
			<g>
				<path class="st5" d="M629,1052.3c12.1-6.9,26.2-6.8,38.8-1.1c-2.1,14-9.6,26.3-21.7,33.2c-12.1,6.9-26.2,6.8-38.8,1.1
					C609.4,1071.6,616.9,1059.2,629,1052.3z"/>
			</g>
		</g>
	</g>
	<g>
		<path class="st6" d="M1955.8,1474.6c10.9,1.8,10.3,3.6,11.7,3.7c1.7,0.2,21.4-9.7,21.4-9.7s58.3-28.8,61.4-30.5l42.1-53l32.4,15
			c0,0-47.3,56.3-50.3,58.8c-3,2.5-86.6,31.8-93.9,34.6c0,0-7.3,6.7-12.1,10.8c-4.7,4-11.1,5.7-12.6,6.6c-0.2,0.1-5.5,2.9-12.9,4.5
			c-6.4,1.4-1.1-2.9-1.1-2.9s11.3-4.8,10.7-5.6c-0.4-0.7-6.4,2.3-13.5,3.9c-1.8,0.4-3.6,0.8-5.2,1.2c-4.3,0.9-6.2-1.5-1.9-3.3
			c1.5-0.6,4.1-1.6,6-2c2.1-0.4,3.8-1.5,5.5-2.2c3.4-1.3,5.8-2.2,5.7-2.3c-0.2-0.2,0.3-0.9-1.6-0.5c-2.3,0.5-7,2.5-10.5,2.9
			c-2,0.2-6.1,0.9-6.1,0.9s-7.2,0.7-7.3-0.3c-0.1-2.2,4.3-3.5,7.1-3.4c1.7-0.9,6.1-1.5,6.1-1.5s8.4-3.3,7.9-4.6
			c-0.2-0.5-5.3,0.3-10.7,0.6c-5.7,0.4-9.8,0.4-10.1-0.7c-0.5-1.8,4.1-2.4,4.1-2.4s4-0.6,5.3-0.9c1.5-0.3,6-1.8,6-1.8
			s15.4-5.7,14.9-6.8c-0.6-1.1-3.1-3.5-4.2-3.5c-1.1,0-3,1.1-4.1,1.1c-1.1,0-3.4-0.2-3.6-1.6c-0.2-1.4,5.9-4.2,5.9-4.2
			S1952.7,1474.1,1955.8,1474.6z"/>
		<path class="st7" d="M2063.1,1418.1c0,0,10.5,9.5,14.9,12.7c3.6,2.6,21.3,11.1,21.3,11.1s17.6-27,25.3-40.5
			c9.3-16.4,15.8-40.8,13.6-41.5c-6.2-1.9-14.7-3-22.6,0.6C2088.4,1373.1,2063.1,1418.1,2063.1,1418.1z"/>
		<path class="st8" d="M1966,1488.7c-4.7,0.7-9.5-0.2-11.5-4.4C1954.1,1489.4,1961.7,1491.9,1966,1488.7z"/>
	</g>
	<path class="st9" d="M660.6,1299.6c0.6-15.7-1.7-31.2-8.6-45.8c-6-12.6-20.9-19.7-34.5-19.7c-43.1-0.1-48.6,57.2-76.1,79.2
		c-8.4,6.7-17.8,12.2-25.7,19.5c-29.3,26.9-16.1,76.6,10.8,100.1c18.7,16.3,48,25.6,71,12.8c12-6.7,21.1-17.7,27.6-29.9
		c9.2-17.2,15.2-37.1,21.7-55.5C653.9,1340.8,659.8,1320.5,660.6,1299.6z"/>
	<path class="st10" d="M667.7,1375.6c-13.5-40.9-31.2-40.2-31.2-40.2l14.4,87c8.3-2.3,19.1-7.3,27.5-9.7
		C675.5,1399.8,671,1385.7,667.7,1375.6z"/>
	<path class="st11" d="M735.7,1515l-49.2-37.6c0,0-5-35-11.6-66.1c-8.3,2.3-15.8,8.9-24.1,11.1l12.5,69.6l64.5,33.3l18.2,23.4
		l4.1-24L735.7,1515z"/>
	<path class="st12" d="M1184.6,1456.3c15.3,0,29.6,4,42,11.1c1.6,0.9,3.3,1.7,5.1,2.4c37.8,15.5,79.2-13.2,79.2-54.1v-201.2h-201.2
		c-40.9,0-69.7-41.4-54.1-79.2c0.7-1.8,1.6-3.5,2.4-5.1c7-12.4,11.1-26.8,11.1-42c0-48.5-40.4-87.5-89.4-85.2
		c-44.3,2.1-80,38.4-81.2,82.8c-0.4,15.8,3.4,30.6,10.5,43.4c0.9,1.6,1.7,3.3,2.4,5.2c15.4,38.5-13.8,80.2-55.3,80.2H656.8v458.4
		c0,108.1,87.7,195.8,195.8,195.8h458.4v-200.5c0-41.1-41.5-70.1-79.6-54.6c-1.8,0.7-3.5,1.5-5.1,2.4c-13.6,7.6-29.4,11.6-46.3,10.7
		c-43.4-2.3-78.5-37.6-80.6-81C1097.1,1496.8,1136.1,1456.3,1184.6,1456.3z"/>
	<path class="st10" d="M1620.6,1344.7c0.7-15.3,5.4-29.4,13-41.5c1-1.5,1.9-3.2,2.7-5c17.3-37.1-9.5-79.8-50.4-81.7l-201-9.4
		l-9.4,201c-1.9,40.9-44.6,67.7-81.7,50.4c-1.8-0.8-3.4-1.7-5-2.7c-12.1-7.6-26.2-12.3-41.5-13c-48.4-2.3-89.3,36.3-89.3,85.3
		c0,44.3,34.7,81.7,78.9,85c15.7,1.2,30.7-2,43.9-8.4c1.6-0.8,3.4-1.5,5.3-2.2c39.1-13.6,79.5,17.6,77.5,58.9l-9.3,199.2l457.9,21.4
		c108,5,199.7-78.4,204.7-186.4l21.4-457.9l-200.3-9.4c-41.1-1.9-71.9,38.2-58.2,77c0.7,1.9,1.4,3.6,2.2,5.2
		c7,13.9,10.2,29.9,8.6,46.7c-4.3,43.3-41.2,76.7-84.7,76.7C1656.9,1434,1618.3,1393.1,1620.6,1344.7z"/>
	<path class="st4" d="M1060.6,1028.3c0.8,15.3-2.5,29.8-9,42.5c-0.8,1.6-1.5,3.4-2.2,5.2c-13.6,38.6,17.2,78.5,58.1,76.4l200.9-10.1
		l-10.1-200.9c-2.1-40.9,37.9-71.7,76.4-58.1c1.8,0.7,3.6,1.4,5.2,2.2c12.7,6.4,27.3,9.7,42.5,9c48.4-2.4,85.3-44.7,80.6-93.5
		c-4.3-44.1-42.4-77.9-86.7-76.9c-15.8,0.4-30.4,4.9-42.8,12.6c-1.6,1-3.2,1.8-5,2.7c-37.6,17.3-80.8-9.8-82.9-51.2l-10-199.2
		l-457.8,23c-108,5.4-191.1,97.4-185.7,205.4l23,457.8l200.3-10.1c41.1-2.1,67.9-45,50.5-82.3c-0.8-1.8-1.7-3.4-2.7-5
		c-8.3-13.2-13.1-28.8-13-45.7c0.1-43.5,33.6-80.3,76.9-84.5C1015.9,942.9,1058.2,979.9,1060.6,1028.3z"/>
	<path class="st13" d="M1471.9,917.4c-15.3,0-29.6-4-42-11.1c-1.6-0.9-3.3-1.7-5.1-2.4c-37.8-15.5-79.2,13.2-79.2,54.1v201.2h201.2
		c40.9,0,69.7,41.4,54.1,79.2c-0.7,1.8-1.6,3.5-2.5,5.1c-7,12.4-11.1,26.8-11.1,42c0,48.5,40.4,87.5,89.4,85.2
		c44.3-2.1,80-38.4,81.2-82.8c0.4-15.8-3.4-30.6-10.5-43.4c-0.9-1.6-1.7-3.3-2.4-5.2c-15.4-38.5,13.8-80.2,55.3-80.2h199.4V700.8
		c0-108.1-87.7-195.8-195.8-195.8h-458.4v200.5c0,41.1,41.5,70.1,79.6,54.6c1.8-0.7,3.5-1.5,5.1-2.4c13.6-7.6,29.4-11.6,46.3-10.7
		c43.4,2.3,78.5,37.6,80.6,81C1559.4,877,1520.4,917.4,1471.9,917.4z"/>
	<path class="st14" d="M525.8,1805.1c0,0-3,21.1-8.3,27.9c-1.8,2.3-5,5.2-7.1,9.3c-3.3,6.4-1.5,16,1,21.3c1.2,2.7-0.1,2.7,2.7,3.6
		c8.4,2.6,17.3-1.8,20.8-9.8c2-4.5,3.7-10.5,4.1-18c0.9-19.2,6.8-28.9,6.8-28.9L525.8,1805.1z"/>
	<path class="st14" d="M617.3,1814.7c0,0,1.9,23.8,0.4,31.6c-0.8,4.1-5.4,12.7-3.3,16.6c2.1,3.9,4.5,4.9,4.5,4.9l54,0.9
		c2.9,0,1-1.8-1.4-3.6c-3.9-2.9-7-4.8-19.4-10.8c-0.8-0.4-3.8-2.3-4.8-2.9c-2.7-1.6-5.4-4.2-7.7-6.8c-3.9-4.3-4.2-25.3-4.2-25.3
		L617.3,1814.7z"/>
	<path class="st7" d="M659.4,1498.2c0,0,6.8,38.7,2.3,64s-25.9,260.3-25.9,260.3l-23.8,1.3c0,0-5-98.2-4.1-111.8
		c0.9-13.7,8-36.5,8-36.5l-2.4-79.2l30-104.1L659.4,1498.2z"/>
	<path class="st15" d="M589.5,1490.1c0,0-18.7,28.3-23.2,51.7c-4.5,23.4,3.3,95.3-5.3,126c-4.6,16.6-22.3,42.2-24.9,63.7
		c-2.7,21.5-13.2,77.6-13.2,77.6l23.8,4.7l55.3-140.3l43.4-126.8l11.1-65.3L589.5,1490.1z"/>
	<path class="st10" d="M604.7,1329.2c0,0-24.8-1.6-34.6,9.1c-9.8,10.7,21.8,95.6,23.6,109.2c1.8,13.6-9.1,49.9-9.1,49.9
		s58.3,11.8,75,0.7c0,0,1.8-98.2,0-107.9c-1.8-9.8-16.7-49.4-20.2-53.3C635.6,1333.1,604.7,1329.2,604.7,1329.2z"/>
	<path class="st14" d="M612.9,1295.9c0,0-0.1,0.7-0.4,2c-1.1,6-5.4,25.8-8.2,31.3c-3.5,6.6,11.9,27.6,26.7,25
		c4.4-0.8-3.7-19.3-3.3-21.3c0.7-3.8,1.8-8.9,2.8-14.2c0.6-3,1.2-6,1.7-8.8c1.6-8,2.9-14.6,2.9-14.6L612.9,1295.9z"/>
	<path class="st12" d="M612.6,1297.9c0.2-1.2,0.4-2,0.4-2l22.2-0.6c0,0-1.3,6.6-2.9,14.6c-0.6,2.8-1.1,5.8-1.7,8.8
		c-3.4-0.5-7-2.2-10.6-5.3c-3.9-3.4-6.5-7.6-8-12C612.2,1300.1,612.4,1298.9,612.6,1297.9z"/>
	<path class="st14" d="M627.9,1245.4c0,0-10.5-1.2-17,7.3c-6.6,8.5-13.6,34.8,2.7,49.1c16.3,14.3,32.4-1.9,34.8-19
		C650.7,1265.6,651.6,1244.8,627.9,1245.4z"/>
	<path class="st14" d="M653.1,1282.5c-1.9,3.8-5.2,5.9-7.3,4.7c-2.1-1.2-2.2-5.2-0.2-9c1.9-3.8,5.2-5.9,7.3-4.7
		C654.9,1274.6,655,1278.7,653.1,1282.5z"/>
	<path class="st9" d="M629,1242.6c0,0-14,25-24,26.2c-10,1.2-11.3,14.4-11.3,14.4s3.6-30.6,13.5-36.5
		C617.1,1240.8,629,1242.6,629,1242.6z"/>
	<path class="st12" d="M536.6,1853.2c-13,2.4-21.6-5.2-26.1-10.9c-3.3,6.4-4.9,16.1-2.5,21.4c2.1,4.7,8.4,4.5,13.3,4.7
		c5.2,0.2,9.2-2.7,11.8-7.2C534.3,1859,535.6,1856.4,536.6,1853.2z"/>
	<path class="st12" d="M647.2,1851.3c-14.3,3.7-24.8,1.2-30.7-1.2c-1.5,4.3-3.5,9.7-2.5,12.9c1.3,3.8,3.2,4.7,4.8,4.7
		c13,0.3,47.8,0.8,57.7,0.9c1.4,0,2.2-1.6,1.3-2.7C675.3,1863.1,648.2,1852,647.2,1851.3z"/>
	<path class="st14" d="M607.7,1275c0.8,4.4-0.8,8.5-3.7,9.1c-2.8,0.6-5.8-2.5-6.6-7c-0.8-4.4,0.8-8.5,3.7-9.1
		C603.9,1267.4,606.9,1270.6,607.7,1275z"/>
	<path class="st16" d="M624,1290.4l12.6,0.6c0,0-0.5,4.8-6.1,4.7C623.8,1295.5,624,1290.4,624,1290.4z"/>
	<g>
		<path class="st17" d="M1700,284.3c1.6,0.1,5.9,1.5,12.2,13.4c8,15.2,19.8,61.1,19.8,61.1l-35.1,13.1l-4.5-9.6l-7.4-73.8
			C1684.9,288.5,1699.5,284.2,1700,284.3z"/>
		<path class="st12" d="M1653.6,277.6c10,0,34.8,2.9,46.4,6.6c0,0,8.5,72.7-7.6,128c-3.6,12.4,3,51.3,3,51.3l-103.9-1.4
			c0,0,12.3-94.1,7.7-109.3c-4.6-15.2-4.7-68.2-4.7-68.2s0.7-0.1,23.4-4C1628.2,278.9,1642.9,277.6,1653.6,277.6z"/>
		<path class="st14" d="M1641.5,598.5c0,0,2.3,26.5,6.5,33.9c4.2,7.3-0.2,19.8-0.4,21.6c-0.2,1.7-8.9,4.2-22.7,2.7
			c-13.8-1.5-13.6-4.7-12.5-9.8c1.1-5.1,8.5-11.8,8.9-16.7c0.4-4.9-4.2-22.5-4.2-22.5L1641.5,598.5z"/>
		<path class="st18" d="M1683.6,441.6c0,0,71.8-4,87.8,5.7c16,9.7-11.4,57.3-11.4,57.3s-49.9-2.3-147.7,3.3
			c-23.2,1.3-25.2-60.4-20.8-65.5C1595.8,437.4,1683.6,441.6,1683.6,441.6z"/>
		<path class="st17" d="M1623.1,658.7c-14.2-1.5-12.4-8.5-11.3-13.8c0.7-3.3,4.8-7.2,7.2-10.9c1.3,1,3.3,2.8,9.5,4.6
			c6.4,1.9,15.2-1.9,20.8-4.2c2,7.4,2.1,16.9,1.9,18.3C1651,654.5,1637.4,660.3,1623.1,658.7z"/>
		<path class="st10" d="M1631,493c2.9,21.7,17.1,129.7,17.1,129.7l-32.9,4.1c0,0-40.5-140.9-38.4-162.5
			c2.1-21.6,17.2-23.4,17.2-23.4S1623.4,435.5,1631,493z"/>
		<path class="st14" d="M1593.2,292.8c9.7-3.6,14.5,83.9,15.8,120c17.2,1.7,47.2,0,54.7-0.5c3.5-0.3,11.6-3.2,15.1-3.7
			c3.6-0.5,6.8-0.7,8.6-0.4c0.6,0.1,18.6,7.4,20.1,9.1c1.9,2,7,7,6.2,9.2c-0.9,2.2-9.9-6.1-9.9-6.1l-4.4-2.5
			c5.5,5.4,16,12.4,14.5,15c-1.5,2.5-10.9-4.7-17.7-9.5c5.8,5.2,13,14.6,11.3,16c-1.5,1.3-9.6-9.5-18.4-12.6c-3.2-1.2-6.5,2-9,2.4
			c-1.9,0.3-4.8,0.9-6.6,0.4l-9.4-2.7c-3.2,0.3-3.3,2.2-6.5,2.9c-3.8,0.8-10,1.6-14.8,2.8c-27.7,6.8-36.9,9.9-45.4,9.9
			C1571.7,442.4,1570.2,301.4,1593.2,292.8z"/>
		<path class="st17" d="M1574.7,375c-1.8-36.9-1.6-82.4,19.1-90.2c8.2-3.1,22.6,15.4,20,90.9C1602.8,376.7,1586.6,377.4,1574.7,375z
			"/>
		<path class="st14" d="M1737.8,621.2c0,0-2.9,9.2,2.3,15.3c5.1,6.1,26.5,12.1,29.3,15.4c2.8,3.3,2.6,6.1,2.6,6.1l-60-1.7l0.7-18.1
			l2.8-13L1737.8,621.2z"/>
		<path class="st17" d="M1743.8,639.6c0,0-15.4,6.2-22.9,2.5c-7.4-3.7-7.2-4.7-9.4-3.3s-2.9,18.4-2.9,18.4l67.5,2
			c4.7-0.1,7.1-3.6,3.3-6.5c-2.6-2-5.6-3.4-7.4-4.4C1766.7,645.2,1743.8,639.6,1743.8,639.6z"/>
		<path class="st10" d="M1735.5,458.6c4.6-9.8,15.2-22.5,33.7-14.8c17.7,7.3,22.5,25.2,16.9,43.6c-5.6,18.4-42.4,126.4-43.6,141.2
			l-29.4,0.2c0,0,5.3-85.5,6.6-106.2C1721,502.8,1727.5,475.5,1735.5,458.6z"/>
		<path d="M1783.2,359.2H1685c-2.6,0-4.9,1.6-5.9,4l-30.2,73.9h-54.1c-1.5,0-2.7,1.2-2.7,2.7l0,0c0,1.5,1.2,2.7,2.7,2.7h154
			c4.2,0,8.1-2.5,9.8-6.4l30.4-68C1790.9,364,1787.8,359.2,1783.2,359.2z"/>
		<path class="st16" d="M1730.3,402.2c-0.7,3.3-3.5,5.5-6.4,5c-2.9-0.6-4.7-3.7-4-7.1c0.7-3.3,3.6-5.5,6.5-5
			C1729.2,395.8,1731,398.9,1730.3,402.2z"/>
		<g>
			<path class="st19" d="M1676.9,188.8c-3-1-5.9-2.1-8.7-3.5c-3.2-1.5-7.3-3.3-9.9-3.7c-5.5-0.8-14.9-0.3-20.1,5.4
				c-6.5,7-18,1.3-15.7,38c2.6,41.6,25.8,37.1,26.3,36.4s20.6-26.6,20.6-26.6s7,15.4,7,14.8C1676.6,249,1712.4,200.8,1676.9,188.8z"
				/>
			<path class="st14" d="M1659.3,264.4l2,14.9c0,0,4.5,21.4-1.3,25.6c-5.8,4.1-24.5-26.2-24.5-26.2l2-37.7L1659.3,264.4z"/>
			<path class="st12" d="M1636.9,253.2c4.8,12.9,16.1,20.8,24.1,23.8l-1.7-12.6l-21.8-23.4L1636.9,253.2z"/>
			<path class="st14" d="M1658.2,200c12.2-2,23.1,7.8,22.8,20.1c-0.1,5.3-0.6,11.9-1.7,19.1c-2.7,17.2-14.4,32.3-22.1,30.9
				s-27.2-16.2-23.8-40.6C1635.5,214.4,1645.4,202.1,1658.2,200z"/>
			<path class="st14" d="M1638.8,232.4c-0.7,3.8-3.7,6.4-6.8,5.9c-3.1-0.5-5-4-4.4-7.8c0.7-3.8,3.7-6.4,6.8-5.9
				C1637.5,225.1,1639.4,228.6,1638.8,232.4z"/>
			<path class="st19" d="M1634.4,224.6c0,0,9.4,2.3,12.8-3.7c3.5-6,15.9-19,31.7-13.6c15.8,5.4-13.9-13.1-15.2-13.1
				c-1.3,0-16.4-0.1-16.4-0.1s-11.7,9.6-12.1,10.7c-0.4,1.1-3.8,12.6-3.8,12.6L1634.4,224.6z"/>
		</g>
		<path class="st16" d="M1651.5,249.7l17,3.3c0,0-1.6,6.4-9.2,5.2C1650.2,256.7,1651.5,249.7,1651.5,249.7z"/>
	</g>
	<g>
		<path class="st6" d="M1363.3,1436.2c0.7,2.2,1,3,1.9,4.5c5.3,9.7,17.7,23.6,17.7,23.6l9.6-21.6c0,0-1.6-6.8-4.3-16.5
			C1378.9,1428.6,1370.1,1430,1363.3,1436.2z"/>
		<path class="st9" d="M1418.3,1417.4c0,0-53.5,23-55.2,22.6c-1.1-0.3-21.9-35.1-22.2-67.9c-0.1-15.1,15.6-33.4,33.2-29.8
			c8.8,1.8,8.7,4.3,21.8,23.3S1418.3,1417.4,1418.3,1417.4z"/>
		<path class="st14" d="M1463.9,1830.5c0,0-1.3,21-1.3,21.1c-0.5,2.7-2.3,9.3-2.3,11.7c0,9.1,43.3-7.7,33.6-11.8
			c-0.9-0.4-5.5-3.1-5.8-6.2c-0.4-4.8-1.6-14.4-1.6-14.4L1463.9,1830.5z"/>
		<path class="st17" d="M1493.8,1851.3c0,0-10.2,2.8-15.4,3.5c-5.2,0.7-12.1-5.2-15.7-3.6c-4,1.7-3.9,17.4-3.9,17.4
			s54.5,4.5,69.8-0.2C1534.7,1866.7,1514.6,1857.8,1493.8,1851.3z"/>
		<path class="st14" d="M1375.4,1830.5c0,0-1.3,21-1.3,21.1c-0.5,2.7-2.3,9.3-2.3,11.7c0,9.1,43.3-7.7,33.6-11.8
			c-0.9-0.4-6.8-5.2-7.1-8.3c-0.4-4.8-0.2-12.4-0.2-12.4L1375.4,1830.5z"/>
		<path class="st17" d="M1405.3,1851.3c0,0-10.2,2.8-15.4,3.5c-5.2,0.7-12.1-5.2-15.7-3.6c-4,1.7-4.2,17.4-4.2,17.4
			s54.7,5.2,70.1-0.2C1446.1,1866.5,1426.1,1857.8,1405.3,1851.3z"/>
		<g>
			<path class="st14" d="M1388.7,1447.8l38.1-53.4c0.2-0.5,0.5-1.4,1-2.9c1.9-5.3,5.9-16.3,9.4-27.3l0-0.1c1.1-3.8,3.4-10.5,5.6-17
				c2.5-7.2,5.6-16.1,5.7-17.6c-0.1-0.3-0.3-0.7-0.5-1.3c-1.4-3.6-3.3-12.3-4-16c-0.4-2.4-0.8-8.2,2-8.2c4.5,0,2.3,5.8,4.4,9.4
				c0.8-2.4,2.3-7.2,3.1-12.1l0.7-11.3c0.1-0.9-0.8-7.1,2.4-7.1l0.1,0c2.8,0.2,2.8,6.9,3.9,18.1c0.4-1.3,0.7-2.9,1-4.3
				c0-0.8,0.5-4.2,1-5.9c-0.6-3.1-0.2-8.1,3.1-7.6c1.7,0.2,1.5,7.1,1.5,7.1c0,0.9-0.1,8.2-0.1,9.7c0.3-2.4,1.7-12.9,4.3-12.9
				c2.2,0,2.3,2.8,2.3,5c0,1.3-1.4,12.6-1.5,14c1-1.7,2.2-11.7,3.2-11.7c4.2,0,2.7,14.2,1.1,17.9c-0.1,0.4-0.3,1.1-0.5,2
				c-0.5,2.5-1.4,6.8-3.6,10.6c-2.7,4.6-6.3,11.8-6.9,12.9c-0.4,2.3-1.7,10.4-3.3,20.6c-0.7,4.4-1.4,9.2-2.2,14.1l0,0
				c-0.1,1.1-0.9,4.5-4,17.3c-4.1,17.6-4.6,18.3-4.7,18.6c-1.8,3.2-42.9,59-44.6,61.3l-1,1.4L1388.7,1447.8z"/>
			<path class="st12" d="M1459.5,1323.3c0,0-3.1-7.9-8.6-7.9c0,0,3.1-1.1,5.7,1S1459.5,1323.3,1459.5,1323.3z"/>
		</g>
		<g>
			<path class="st14" d="M1379.4,1308.1l-4.9,31c0,0,18.7,15,29.6,11.8c9.1-2.7,2.9-14.6,2.9-14.6s-4.9-16.6-3.4-25.2
				C1405.1,1302.4,1379.4,1308.1,1379.4,1308.1z"/>
			<path class="st8" d="M1383,1317.4c4.7,2.2,13.9,5.2,21.2,6c-0.7-4.3-1.1-8.9-0.5-12.3c0.7-4-4.4-5-10.1-4.8
				c-7.4,0.6-14.1,1.8-14.1,1.8l-0.9,6C1379.9,1315.5,1381.4,1316.7,1383,1317.4z"/>
			<path class="st14" d="M1355.9,1272.3c-0.8,0,7.4,34.7,20,40.6s31.5,2.9,35-6.5c3.9-10.3-10.3-45.7-28.1-50.2
				C1365,1251.8,1355.9,1272.3,1355.9,1272.3z"/>
			<path class="st9" d="M1370.5,1240.5c-10.1,5.8-14.7,14.4-16.3,18c-4.7,2.2-10.5,7.1-13.2,20.2c-3.4,16.1,8.6,28.5,21.4,32.2
				c12.7,3.7,14.7,12.2,14.7,12.2l1.4-9.1c0,0-2.8-7.9-7.1-11.9c-4.3-4,2-9.7,2.6-14.4c0.4-3.6-2.2-10.6-1.7-16.6
				c0,0,7.1-10.7,14.1-13.4C1398.3,1253.2,1383.4,1233,1370.5,1240.5z"/>
			<path class="st14" d="M1375.8,1293.7c1.6,4,1,8-1.5,8.9c-2.5,0.9-5.8-1.6-7.5-5.6c-1.6-4-1-8,1.5-8.9
				C1370.8,1287.2,1374.2,1289.7,1375.8,1293.7z"/>
		</g>
		<path class="st6" d="M1422.9,1448.7l73.5-12c0,0-8.4-21.1-11.3-21.1s-55.6,23-55.6,23l-4.2,8.4L1422.9,1448.7z"/>
		<path class="st13" d="M1385.2,1499.1c0,0-7.3,35.4-4.3,62.3c3,26.9,3.2,122.3,3.2,122.3l-11.4,152.7l27.1,0.6
			c0,0,32.1-152.7,31.5-148.7s10.8-107.5,10.8-107.5l-38.2-85.1L1385.2,1499.1z"/>
		<path class="st9" d="M1392.4,1497.4c0,0-4.8,31.9,1.2,45.9c6,14,51.2,151.3,51.8,162.5s15.7,135,15.7,135l31.5-0.9l6.8-137.6
			l-14.2-172.9l-13.8-43.7L1392.4,1497.4z"/>
		<path class="st14" d="M1374.5,1339.1c0,0,7.8,5.1,15,4.5c7.2-0.6,17.5-7.3,17.5-7.3l-1.4-4.8c0,0-18.7-2.7-19.2-2.4
			C1385.9,1329.4,1374.5,1339.1,1374.5,1339.1z"/>
		<path class="st6" d="M1457.2,1414.6c0,0,27.8,26.2,40.3,21.8c12.5-4.5,17.7-19.8-12.9-42.2
			C1457.3,1374.1,1457.2,1414.6,1457.2,1414.6z"/>
		<path class="st7" d="M1476,1447c-4.1-22.5-34.1-92.4-36.4-105.3c-1.2-6.3-17.3-6.4-32.7-5.6c-16.2,0.9-32.4,2.9-32.4,2.9
			s-14.4,2.4-20.7,8.3s-8,22.3,1.1,53.4c7.2,24.6,16.1,38.1,20.5,55.9c0.9,6,1.7,11.9,2.7,18.8c1.6,26.8,0,62.1,0,62.1
			s78.3,16.2,107.6-8.4C1485.6,1529.3,1480.3,1470,1476,1447z"/>
		<path class="st15" d="M1496,1398.7c0,0-30.7,25.4-32.5,25.4c-1.2,0-43.8-31.4-53.7-57.2c-5.4-14.3,6-30.2,19-30.2
			c9,0,13.1,2.4,31,17.5S1496,1398.7,1496,1398.7z"/>
	</g>
	<path class="st9" d="M955.7,267c5-12.1,10.2-24.2,23.2-30.4c10.6-5,21.6-3.1,31,4c26.6,20,3.4,42.1,33.7,80
		c9.4,11.8,20.8,21.3,26.4,35.1c7.9,19.3-1.5,28.6-16.6,37.9c-72.1,44.3-109.9-46.7-108.5-67.5C946,310.7,952.5,274.8,955.7,267z"/>
	<path class="st14" d="M880.9,502.8c3-0.5,10.4-5.8,13-6.2c2-0.4,6.4-1,8.2-1.3c2.3-8.5,13.9-54.9,15.2-68.5
		c1.4-14.7,11.8-78.5,11.8-78.5l27,4.9c0,0-11.2,49.1-14.3,72.8c-2.7,20.4-25.1,66.4-27.9,71.2c0,0.1,0,0.2,0,0.4
		c-0.4,7.2-3.9,4.8-3.9,4.8l-5.6,1.4c0,0-20,1.9-21.3,2.4C881.8,506.7,877.9,503.3,880.9,502.8z"/>
	<path class="st20" d="M952.7,311c-19.1,6.5-29.9,58.3-29.9,58.3s29.9,8.4,37.6,4c0,0,8.7-38.6,11.8-37.2L952.7,311z"/>
	<path class="st14" d="M805.1,592.5c-5.8,15.4-8.9,30.2-9.1,32c-0.1,0.9,1.1,5,1,5.9c-11.7,16-28.6,19.5-43,20.5
		c7.4-7.2,18.2-14,18.7-16.3c0.8-3.6,5.3-19.7,7.5-42.1C789.1,596.7,795.1,593.4,805.1,592.5z"/>
	<path class="st1" d="M971.2,420.2l25.8,72.6c0,0-41.4,7.8-56.9,10.6c-15.5,2.8-102,6.6-104.2,8.2c-1.6,1.1-19.5,59-27.5,90.9
		c-9.1,2-24.6-0.4-32.8-3.2c4.5-45.6,20.6-117.9,25.7-125.8C809.6,460.7,971.2,420.2,971.2,420.2z"/>
	<path class="st14" d="M870.4,624.3c-2.9,16.2-3,31.4-3,33.2c0,0.9,2,4.8,2.1,5.7c-8.5,17.9-24.4,24.5-38.4,28.2
		c5.9-8.4,15.2-17.1,15.3-19.5c0.1-3.7,1.5-20.4-0.6-42.7C855.5,631.5,860.8,627.1,870.4,624.3z"/>
	<path class="st3" d="M1001.3,424l10,17.1c15.2,26,3.6,59.5-24.5,70.4c-0.2,0.1-0.3,0.1-0.4,0.2c-14.7,5.7-99,25.6-100.9,27.5
		c-1.4,1.4-8.1,61.6-10,94.4c-8.5,3.7-24.2,4.2-32.8,3c-4.2-45.7-1.9-119.7,1.7-128.4C850.1,494,1001.3,424,1001.3,424z"/>
	<path class="st9" d="M866.2,658c2.2-2.5,10.5,11.2,12.5,14.1c2.3,3.3,1.7,5.7,1.4,6.3c-0.7,1.4-44.2,26.9-54.8,28.7
		c-1,0.2-2.7-0.5-3.2-0.8c-4.1-3.7,14.9-30.7,23.5-34.3C851.1,669.6,856.1,669.1,866.2,658z"/>
	<path class="st9" d="M794.6,625c2.7-2,8.2,12.9,9.7,16.2c1.7,3.7,0.6,6,0.2,6.4c-1,1.2-48.5,18.2-59.2,18c-1,0-2.6-1-3-1.4
		c-3.4-4.4,20.4-27.4,29.5-29.3C777.6,633.6,782.6,634,794.6,625z"/>
	<path class="st21" d="M970.8,310.8L970.8,310.8L970.8,310.8c-0.5,0-1.2-0.2-1.9-0.4c-3.5-0.6-11.3-1.6-17.3,1
		c-7.3,3.1-18.7,32-18,61.7c0.3,4.5,0.5,8.6,0.8,11.4c1.9,22.4,8.3,64.5,8.6,64.7c8.7,5.6,61.5-16.2,65.1-21
		c3.6-4.8,5.8-63,7.5-65.9l3.5-50.7C1013,309.8,980.2,310.8,970.8,310.8z"/>
	<path class="st14" d="M992.2,292.2c0,0-3.4,17.6-2.7,24.5c0.7,6.9-2.6,29.3-17.3,29.3c-14.7,0.1-2.8-28.4-1.4-35.2
		c1.4-6.8,1.7-27.8,1.7-27.8L992.2,292.2z"/>
	<path class="st12" d="M972.2,293.5c0.2-5.8,0.3-10.6,0.3-10.6l19.7,9.2c0,0-0.7,3.6-1.4,8.2C982.2,302.1,975.9,298.9,972.2,293.5z"
		/>
	<path class="st14" d="M999.4,243.7c0,0,7.6,4.2,10.4,13.3c2.8,9.1-0.4,32.6-20,38.3c-19.6,5.7-28.1-13-24-27.5
		C969.8,253.2,978.5,234.8,999.4,243.7z"/>
	<path class="st14" d="M963.3,262.1c0.4,3.9,2.5,6.9,4.8,6.7c2.3-0.2,3.8-3.6,3.4-7.5c-0.4-3.9-2.5-6.9-4.8-6.7
		C964.4,254.9,962.9,258.2,963.3,262.1z"/>
	<path class="st9" d="M997.1,242.5c0,0,3.6,26.2,12,31c8.5,4.7,4.9,16.4,4.9,16.4s7.7-27,1-35.7
		C1008.3,245.4,997.1,242.5,997.1,242.5z"/>
	<path class="st14" d="M1004.1,277.2c-2.3,3.4-2.3,7.5,0,9c2.3,1.6,6,0,8.4-3.4c2.3-3.4,2.3-7.5,0-9
		C1010.1,272.3,1006.4,273.8,1004.1,277.2z"/>
	<path class="st16" d="M975.5,278.7l13.8,3.5c0,0-1.7,5.2-7.8,3.9C974.1,284.4,975.5,278.7,975.5,278.7z"/>
	<path class="st4" d="M1044.1,500.7c0.7,0,59.5-3,59.5-3s-24.4,17.5-24.9,17.5s-19.4-7.5-20.3-7.5S1044.1,500.7,1044.1,500.7z"/>
	<path class="st14" d="M2235.5,1831.3c0,0,1.2,20.6,1.2,20.7c0.4,2.6,2.1,9.1,2.1,11.5c0,9-39.7-7.6-30.8-11.6
		c0.8-0.4,5-3.1,5.3-6.1c0.4-4.7,1.4-14.2,1.4-14.2L2235.5,1831.3z"/>
	<path class="st10" d="M2207.6,1852c0,0,9.3,2.7,14.1,3.4c4.8,0.7,11.1-5.1,14.4-3.5c3.7,1.7,3.6,17.1,3.6,17.1s-50,4.4-64.1-0.2
		C2170.1,1867.1,2188.6,1858.4,2207.6,1852z"/>
	<path class="st14" d="M2301.7,1830.3c0,0,1.2,20.6,1.2,20.7c0.4,2.6,2.1,9.1,2.1,11.5c0,9-39.7-7.6-30.8-11.6
		c0.8-0.4,6.3-5.1,6.5-8.1c0.4-4.7,0.2-12.2,0.2-12.2L2301.7,1830.3z"/>
	<path class="st10" d="M2274.2,1850.8c0,0,9.3,2.7,14.1,3.4c4.8,0.7,11.1-5.1,14.4-3.5c3.7,1.7,3.9,17.1,3.9,17.1s-49.6,2-64.3-0.2
		C2236.5,1866.8,2255.2,1857.1,2274.2,1850.8z"/>
	<path class="st7" d="M2289.9,1502.4c0,0,6.7,34.8,4,61.2c-2.7,26.4-3,120.2-3,120.2l12.6,150l-27,0.6c0,0-29.4-150-28.9-146.1
		c0.5,3.9-9.9-105.6-9.9-105.6l35.1-83.6L2289.9,1502.4z"/>
	<path class="st15" d="M2280.5,1479.9c0,0,30.5,32.1,19.1,67.2c-4.6,14.1-47,148.7-47.6,159.7c-0.5,11-14.4,132.6-14.4,132.6
		l-28.9-0.9l-6.2-135.2l8.3-182.1l17.5-30.7L2280.5,1479.9z"/>
	<path class="st12" d="M2095.4,1375.4c10-11.1,31.7-27,31.7-27s12.9-11.1,18.2-12.9c7.8-2.7,21.1-9.8,40.3,19.3
		c13.8,20.9,100.7,128.9,114.9,132.6l-93.1,44.6c-2.6-21.3-48.6-61.5-55.2-69C2137.4,1446.2,2085.9,1385.9,2095.4,1375.4z"/>
	<path class="st14" d="M2099.7,1330.1l29,17c0,0,0.8,24.8-8.7,31.2c-8,5.4-14-7.6-14-7.6s-10.8-15-19-19.6
		C2078.9,1346.5,2099.7,1330.1,2099.7,1330.1z"/>
	<path class="st12" d="M2104.6,1341c-1.1,5.2-3.6,12.6-7.5,18.8c-3.2-3.5-6.8-6.9-10-8.7c-3.8-2.1-1.4-6.8,2.3-11.2
		c5.2-5.4,10.3-9.9,10.3-9.9l5.6,3.3C2105.7,1335.5,2104.9,1339.3,2104.6,1341z"/>
	<path class="st14" d="M2084.6,1287.6c0.5-0.6,24.3,29.1,21.4,43c-2.9,13.9-17.4,26.6-27.4,23.1c-11.1-3.9-31.7-38.8-24.3-55.8
		S2084.6,1287.6,2084.6,1287.6z"/>
	<path class="st9" d="M2058.5,1278.2c10.4-5.8,27.4-7.4,40-0.8c15.6,8.2,19.1,28.7,14.3,41.2c-4.9,12.5,0.7,19.6,0.7,19.6l-8.3-4.8
		c0,0-4.8-7.5-5.5-13.5c-0.6-6-9.4-4.9-13.7-7.7c-3.3-2.1-7.5-8.9-12.8-12.4c0,0-13.4-1.6-20,2.1
		C2042,1308.1,2043.6,1286.5,2058.5,1278.2z"/>
	<path class="st14" d="M2092.8,1317.2c-0.1,4.5,2,8.1,4.7,8.1s4.9-3.5,5-8c0.1-4.5-2-8.1-4.7-8.1S2092.9,1312.7,2092.8,1317.2z"/>
	<path class="st16" d="M2068.4,1340.8l12.6-9.4c0,0,3.3,5.1-2.1,9.4C2072.3,1346,2068.4,1340.8,2068.4,1340.8z"/>
	<path class="st6" d="M2036.6,1528.6c3.2-4.6,4.5-11.3,8.9-16.4c1.5-1.7,3.8-3.6,6.5-5.6c21-12.3,75.8-44,78-46.5
		c2.5-2.9,39.9-65.1,39.9-65.1l-33.6-7.6l-32.8,58c-2.7,2.2-54.9,40.7-54.9,40.7s-10.4,8.1-16,11.9c-2.9,1.7-5.6,2.8-8.1,3.6
		c-3.1,1.1-8.9,4-10.1,5c-1.4,1.2-4.1,3.8-5.7,5.4c-1.6,1.6-3.6,3.3-4.4,4.3c-0.5,0.6-1.9,1.4-3,1.9c-1.6,0.8-1.4,3.1,0.3,3.6
		c1.6,0.5,3.8-0.5,5.1-1.2c3.8-1.8,8.4-6.6,8.6-6s-4.4,10.8-4.9,12c-0.5,1.2-5.8,13.2-6.1,15.8c-0.3,2.7,1.3,3.3,2.5,2.3
		c1-0.8,9.7-16.8,9.7-16.8s1.1-2,1.5-0.9c0.4,1.2-7.4,15.7-8.2,18c-0.8,2.4-0.2,4.3,2,3.5c2.7-1,10.1-17,10.1-17s1-2,1.6-1.3
		c0.7,0.7-6.2,12.9-6.3,14.3c-0.1,1.4,1.2,2.8,3,1.6c2.2-1.4,8.7-15.7,8.7-15.7s0.8-0.9,1.1-0.3c0.3,0.7-4.9,11.5-4.5,13.1
		c0.3,1.3,1.5,1.1,1.5,1.1C2030,1544.5,2033.5,1533.2,2036.6,1528.6z"/>
	<path class="st7" d="M2160.7,1427.9c0,0-10.9-3.5-18-6.7c-4.7-2.2-25.2-12.4-25.2-12.4s8.8-37.3,14.8-50.7
		c21.9-49.2,46.8-15.3,50.2-7.4C2190.2,1368.5,2160.7,1427.9,2160.7,1427.9z"/>
	<path class="st16" d="M1396.6,1299.1l10.4-7.8c0,0,2.8,4.2-1.7,7.8C1399.8,1303.4,1396.6,1299.1,1396.6,1299.1z"/>
	<path class="st13" d="M2618.8,1868H200.1c-3,0-5.5,3.1-5.5,7l0,0c0,3.9,2.5,7,5.5,7h2418.7c3,0,5.5-3.1,5.5-7l0,0
		C2624.2,1871.1,2621.8,1868,2618.8,1868z"/>
	<path class="st14" d="M1104.9,497.6c-0.2-0.6-0.8-0.6-1.4-0.7c-5.5-0.2-10.9-0.4-16.3-1.2c-0.9-0.1-1.8-0.3-2.6-0.7
		c-1.5-0.6-3-0.6-4.5-0.2c-0.8,0.2-1.7,0.3-2.5,0.3c-2.7,0-10.6-2.7-14.6-3.4c-0.9-0.2-1.6-0.9-1.9-1.8c-4-15.7-12.5-50.8-13.6-62.3
		c-1.4-14.8-11.6-81.4-11.6-81.4l-27.3,7.6c0,0,11.2,49.2,14.3,73c2.4,18.4,20.8,57.5,26.6,68.7c2.8,8.4,9.1,8.6,10.6,8.8
		c0.8,0.1,1.6,0.5,2.2,1.2c1,1.2,2.1,2.2,3.4,3c1,0.6,1.7,1.4,2.4,2.3c1.2,1.7,2.2,3.5,3.2,5.2c0.7,1.2,1.4,1.5,2.4,1.3
		c1.1-0.3,1.6-1.1,1.6-2.4c0-1.9-0.7-3.7-1.6-5.4c-0.9-1.6-0.9-2.5,0.2-3.9c0.6-0.8,1.2-1.6,2.1-2.3c0.8-0.7,1.7-1.2,2.8-1
		c2,0.5,3.9,0.9,6,1.1l1.7,0.3c0.1,0,0.9,0.2,0.9,0.2c0.1,0,3,0.4,4,0.4c0.8,0,2.1,0.1,3.2,0.1c1,0,3.1-0.5,3.2-0.5
		c1,0,1.8-0.4,2.5-1c0.3-0.3,0.6-0.6,0.4-1c-0.1-0.4-0.5-0.6-0.9-0.7c-0.7-0.1-4-0.5-4-0.7c1,0,4.2-0.1,5.2-0.1
		c1.4,0,2.5-0.5,3.5-1.5C1104.8,498.6,1105.2,498.2,1104.9,497.6z"/>
	<path class="st21" d="M1019.4,311.5c13.5-2.4,24.6,57.8,24.6,57.8s-29.9,8.4-37.6,4c0,0-8.7-38.6-11.8-37.2L1019.4,311.5z"/>
	<path class="st14" d="M693.6,1395c0.9-2.6-11.5-4.6-12.2-7.2c-0.7-2.6,15.7-2.8,16.3-5.1c1.1-4.2-17.9-0.9-17.5-2.8
		c0.4-2,19.8-6.3,17.7-9.7s-19.7,6.6-20.2,4.4c-0.5-2.3,17.2-7.8,16.9-12.8c-0.2-2.7-29.1,13.3-32.4,11.9c-3.4-1.5,3.6-14,0.9-15.9
		c-2.7-1.9-10.3,25.5-12.2,26.4c-1.8,0.9-40.9,23.2-54.8,26.7c-1.7-4.7-5.3-10.9-6.8-15.3c-7.8,5.5-13.6,8.3-21.6,13.4
		c5.8,14.6,14.1,30.6,18.2,32.4c12.4,5.6,60.2-34.1,69.7-40.8c9.6-6.8,15-4.6,21.5-6.7C683.5,1391.7,692.7,1397.6,693.6,1395z"/>
	<path class="st10" d="M566,1416c0,0-10.7-47.3-8.8-61c1.9-13.7,18.1-26.5,29.4-21.7c11.3,4.7,16.4,70.7,16.4,70.7L566,1416z"/>
</g>
</svg>
