<?xml version="1.0" standalone="no"?><svg xmlns="http://www.w3.org/2000/svg" viewBox="0 0 1440 320"><path fill="#00cba9" fill-opacity="1" d="M0,96L30,85.3C60,75,120,53,180,69.3C240,85,300,139,360,165.3C420,192,480,192,540,176C600,160,660,128,720,106.7C780,85,840,75,900,90.7C960,107,1020,149,1080,192C1140,235,1200,277,1260,288C1320,299,1380,277,1410,266.7L1440,256L1440,0L1410,0C1380,0,1320,0,1260,0C1200,0,1140,0,1080,0C1020,0,960,0,900,0C840,0,780,0,720,0C660,0,600,0,540,0C480,0,420,0,360,0C300,0,240,0,180,0C120,0,60,0,30,0L0,0Z"></path></svg>