<?xml version="1.0" standalone="no"?><svg xmlns="http://www.w3.org/2000/svg" viewBox="0 0 1440 320"><path fill="#97dbbf" fill-opacity="1" d="M0,160L13.3,170.7C26.7,181,53,203,80,176C106.7,149,133,75,160,58.7C186.7,43,213,85,240,138.7C266.7,192,293,256,320,266.7C346.7,277,373,235,400,213.3C426.7,192,453,192,480,181.3C506.7,171,533,149,560,133.3C586.7,117,613,107,640,90.7C666.7,75,693,53,720,69.3C746.7,85,773,139,800,160C826.7,181,853,171,880,186.7C906.7,203,933,245,960,266.7C986.7,288,1013,288,1040,272C1066.7,256,1093,224,1120,192C1146.7,160,1173,128,1200,133.3C1226.7,139,1253,181,1280,197.3C1306.7,213,1333,203,1360,176C1386.7,149,1413,107,1427,85.3L1440,64L1440,0L1426.7,0C1413.3,0,1387,0,1360,0C1333.3,0,1307,0,1280,0C1253.3,0,1227,0,1200,0C1173.3,0,1147,0,1120,0C1093.3,0,1067,0,1040,0C1013.3,0,987,0,960,0C933.3,0,907,0,880,0C853.3,0,827,0,800,0C773.3,0,747,0,720,0C693.3,0,667,0,640,0C613.3,0,587,0,560,0C533.3,0,507,0,480,0C453.3,0,427,0,400,0C373.3,0,347,0,320,0C293.3,0,267,0,240,0C213.3,0,187,0,160,0C133.3,0,107,0,80,0C53.3,0,27,0,13,0L0,0Z"></path></svg>